<svg width="40" height="40" viewBox="0 0 40 40" fill="none" xmlns="http://www.w3.org/2000/svg">
<path d="M40 19.7128C40 25.0117 39.112 29.3099 38.0162 29.3099C36.9204 29.3099 36.0327 25.0129 36.0327 19.7128C36.0327 14.4128 36.9208 10.1158 38.0162 10.1158C39.1116 10.1158 40 14.4124 40 19.7128Z" fill="black"/>
<path d="M34.9379 19.7128C34.9379 25.6284 32.4125 30.4258 29.2972 30.4258C26.1819 30.4258 23.6565 25.6284 23.6565 19.7128C23.6565 13.7973 26.1815 8.99991 29.2968 8.99991C32.4121 8.99991 34.9375 13.7958 34.9375 19.7128" fill="black"/>
<path d="M22.5624 19.7128C22.5624 25.9974 17.5116 31.092 11.2814 31.092C5.05122 31.092 0 25.9962 0 19.7128C0 13.4295 5.05083 8.33334 11.2814 8.33334C17.512 8.33334 22.5624 13.4283 22.5624 19.7128Z" fill="black"/>
</svg>
