<svg width="265" height="62" viewBox="0 0 265 62" fill="none" xmlns="http://www.w3.org/2000/svg">
<path d="M117.248 44.776L114.752 41.032C114.048 41.16 113.333 41.224 112.608 41.224C110.496 41.224 108.555 40.7333 106.784 39.752C105.013 38.7493 103.605 37.3733 102.56 35.624C101.536 33.8533 101.024 31.8587 101.024 29.64C101.024 27.4213 101.536 25.4373 102.56 23.688C103.605 21.9173 105.013 20.5413 106.784 19.56C108.555 18.5787 110.496 18.088 112.608 18.088C114.741 18.088 116.683 18.5787 118.432 19.56C120.203 20.5413 121.6 21.9173 122.624 23.688C123.648 25.4373 124.16 27.4213 124.16 29.64C124.16 31.496 123.787 33.2133 123.04 34.792C122.293 36.3493 121.269 37.6507 119.968 38.696L124.736 44.776H117.248ZM107.424 29.64C107.424 31.4107 107.883 32.8187 108.8 33.864C109.717 34.888 110.987 35.4 112.608 35.4C114.208 35.4 115.467 34.8773 116.384 33.832C117.323 32.7867 117.792 31.3893 117.792 29.64C117.792 27.848 117.323 26.44 116.384 25.416C115.467 24.3707 114.208 23.848 112.608 23.848C110.987 23.848 109.717 24.3707 108.8 25.416C107.883 26.44 107.424 27.848 107.424 29.64ZM137.827 41.224C135.715 41.224 133.773 40.7333 132.003 39.752C130.232 38.7493 128.824 37.3733 127.779 35.624C126.755 33.8533 126.243 31.8587 126.243 29.64C126.243 27.4213 126.755 25.4373 127.779 23.688C128.824 21.9173 130.232 20.5413 132.003 19.56C133.773 18.5787 135.715 18.088 137.827 18.088C139.96 18.088 141.901 18.5787 143.651 19.56C145.421 20.5413 146.819 21.9173 147.843 23.688C148.867 25.4373 149.379 27.4213 149.379 29.64C149.379 31.8587 148.867 33.8533 147.843 35.624C146.819 37.3733 145.421 38.7493 143.651 39.752C141.88 40.7333 139.939 41.224 137.827 41.224ZM137.827 35.4C139.427 35.4 140.685 34.8773 141.603 33.832C142.541 32.7867 143.011 31.3893 143.011 29.64C143.011 27.848 142.541 26.44 141.603 25.416C140.685 24.3707 139.427 23.848 137.827 23.848C136.205 23.848 134.936 24.3707 134.019 25.416C133.101 26.44 132.643 27.848 132.643 29.64C132.643 31.4107 133.101 32.8187 134.019 33.864C134.936 34.888 136.205 35.4 137.827 35.4ZM178.534 18.44V41H172.262V28.552L168.006 41H162.758L158.47 28.456V41H152.198V18.44H159.782L165.446 33.096L170.982 18.44H178.534ZM185.145 41.256C184.035 41.256 183.139 40.9573 182.457 40.36C181.795 39.7413 181.465 38.9627 181.465 38.024C181.465 37.0853 181.795 36.3067 182.457 35.688C183.139 35.0693 184.035 34.76 185.145 34.76C186.233 34.76 187.107 35.0693 187.769 35.688C188.451 36.3067 188.793 37.0853 188.793 38.024C188.793 38.9413 188.451 39.7093 187.769 40.328C187.107 40.9467 186.233 41.256 185.145 41.256ZM202.546 41.224C200.434 41.224 198.492 40.7333 196.722 39.752C194.951 38.7493 193.543 37.3733 192.498 35.624C191.474 33.8533 190.962 31.8587 190.962 29.64C190.962 27.4213 191.474 25.4373 192.498 23.688C193.543 21.9173 194.951 20.5413 196.722 19.56C198.492 18.5787 200.434 18.088 202.546 18.088C204.679 18.088 206.62 18.5787 208.37 19.56C210.14 20.5413 211.538 21.9173 212.562 23.688C213.586 25.4373 214.098 27.4213 214.098 29.64C214.098 31.8587 213.586 33.8533 212.562 35.624C211.538 37.3733 210.14 38.7493 208.37 39.752C206.599 40.7333 204.658 41.224 202.546 41.224ZM202.546 35.4C204.146 35.4 205.404 34.8773 206.322 33.832C207.26 32.7867 207.73 31.3893 207.73 29.64C207.73 27.848 207.26 26.44 206.322 25.416C205.404 24.3707 204.146 23.848 202.546 23.848C200.924 23.848 199.655 24.3707 198.738 25.416C197.82 26.44 197.362 27.848 197.362 29.64C197.362 31.4107 197.82 32.8187 198.738 33.864C199.655 34.888 200.924 35.4 202.546 35.4ZM237.813 41H231.541L223.189 28.392V41H216.917V18.44H223.189L231.541 31.208V18.44H237.813V41ZM247.658 23.464V27.144H254.858V31.912H247.658V35.976H255.818V41H241.386V18.44H255.818V23.464H247.658Z" fill="#063A8D"/>
<g clip-path="url(#clip0_201_2221)">
<path d="M72.8529 23.4568C72.7641 23.4214 72.6752 23.4037 72.6042 23.3683C72.6042 23.4037 72.5864 23.4214 72.5864 23.4568C72.6752 23.4745 72.7641 23.4745 72.8529 23.4568Z" fill="black"/>
<path d="M71.2186 31.3168C71.1653 31.4584 70.8989 31.4761 70.8101 31.7594C71.0587 31.6531 71.3074 31.5646 71.5384 31.4761C71.4496 31.3699 71.3785 31.2814 71.2897 31.1752C71.2542 31.2283 71.2364 31.2637 71.2186 31.3168Z" fill="black"/>
<path d="M70.8101 24.9615C70.8811 24.9261 70.9344 24.9084 71.0055 24.873C70.9522 24.873 70.9166 24.8907 70.8634 24.9084C70.8456 24.9084 70.8278 24.9261 70.8101 24.9615Z" fill="black"/>
<path d="M71.2719 22.8726C71.2363 22.8549 71.2186 22.8549 71.1831 22.8549C71.1475 22.908 71.0942 22.9434 71.0587 22.9965C71.1298 22.9611 71.2008 22.908 71.2719 22.8726Z" fill="black"/>
<path d="M71.1298 32.5737C71.5916 32.6622 71.8936 32.3967 72.2489 32.3081C72.16 32.2019 72.0712 32.0957 71.9824 32.0072C71.6804 32.1488 71.3962 32.3259 71.1298 32.5737Z" fill="black"/>
<path d="M72.089 23.1558C72.0357 23.1381 71.9824 23.1204 71.9292 23.1027C71.8936 23.1735 71.8403 23.2266 71.8048 23.2975C71.9114 23.262 72.0002 23.2089 72.089 23.1558Z" fill="black"/>
<path d="M70.4192 33.211C71.3251 33.3526 72.2311 33.1756 73.1192 33.3349C72.9594 33.1402 72.7817 32.9454 72.6219 32.7507C71.8758 32.8746 71.1297 32.91 70.4192 33.211Z" fill="black"/>
<path d="M66.529 27.0681C66.3336 27.3691 66.4224 27.7054 66.3869 28.0064C66.3691 28.148 66.3691 28.2896 66.3691 28.4312C66.7066 28.2188 67.0264 28.0064 67.3106 27.7585C67.1685 27.4222 66.9909 27.0858 66.529 27.0681Z" fill="black"/>
<path d="M76.7963 30.8388C76.9917 30.8388 77.2226 30.8211 77.2049 30.5733C77.1693 30.2723 76.9029 30.3431 76.7075 30.3608C76.5121 30.3785 76.3167 30.4139 76.1035 30.4316C76.2634 30.591 76.4233 30.7503 76.5831 30.8919C76.6187 30.8565 76.7075 30.8388 76.7963 30.8388Z" fill="black"/>
<path d="M72.2311 33.7775C72.6752 33.866 73.1015 33.866 73.5456 33.8306C73.4568 33.7244 73.368 33.6181 73.2791 33.5296C72.9239 33.6004 72.5686 33.689 72.2311 33.7775Z" fill="black"/>
<path d="M77.2405 31.5646C77.3826 31.7063 77.5247 31.8479 77.6668 31.9895C77.578 31.7948 77.4359 31.6531 77.2405 31.5646Z" fill="black"/>
<path d="M77.2049 29.8121C77.347 29.7944 77.4181 29.6704 77.4181 29.5465C77.4181 29.3518 77.276 29.2987 77.1338 29.281C76.9384 29.2633 76.7608 29.281 76.5654 29.281C76.6542 28.9623 76.9562 29.0685 77.1516 28.98C77.3292 28.9092 77.5602 28.8915 77.5069 28.6437C77.4714 28.4489 77.2582 28.4489 77.0983 28.4489C76.1746 28.4135 75.2687 28.4844 74.3805 28.7322C74.8956 29.2279 75.4108 29.7412 75.9437 30.2546C76.3345 30.0953 76.743 29.8652 77.2049 29.8121Z" fill="black"/>
<path d="M58.3222 34.2731C58.944 34.344 59.5834 34.2731 60.2229 34.2908C61.0756 34.2908 61.8217 33.9899 62.5322 33.5296C62.9408 33.2641 63.0296 32.9631 62.8164 32.6268C62.621 32.3081 62.248 32.2196 61.8749 32.4852C61.0223 33.0694 60.0808 33.2464 59.0683 33.2818C58.1268 33.3172 57.3452 33.7421 56.759 34.4856C57.2919 34.4325 57.7893 34.22 58.3222 34.2731Z" fill="black"/>
<path d="M54.6985 30.113C54.8584 29.9891 55.0182 29.8475 55.036 29.6173C55.0893 28.9446 55.2136 28.2896 55.1604 27.5992C55.1248 27.2629 54.9827 27.0327 54.6452 26.9796C54.361 26.9265 54.1478 27.2098 54.1301 27.6346C54.0945 28.2896 54.2189 28.9446 54.2722 29.5819C54.3077 29.8298 54.432 30.0068 54.6985 30.113Z" fill="black"/>
<path d="M65.2145 29.9891C64.877 30.0776 64.5217 30.1838 64.3263 30.5379C64.5395 30.8388 64.8414 30.7503 65.0901 30.6972C65.4809 30.6087 65.8717 30.4848 66.2448 30.3608C66.8665 30.1484 67.4704 29.8829 68.0566 29.5996C67.9678 29.3872 67.879 29.157 67.7902 28.9269C66.9731 29.3695 66.1204 29.7412 65.2145 29.9891Z" fill="black"/>
<path d="M66.2448 28.8384C66.2093 28.8915 66.1738 28.9446 66.1205 28.9977C66.0849 28.98 66.0494 28.9623 66.0139 28.9446C65.5343 29.1747 65.0191 29.3518 64.4862 29.4934C64.3974 29.5111 64.3441 29.5819 64.3086 29.7058C64.8593 29.936 66.2981 29.3518 67.6304 28.5551C67.5771 28.4135 67.5238 28.2719 67.4527 28.1303C67.0797 28.3958 66.6711 28.626 66.2448 28.8384Z" fill="black"/>
<path d="M42.6548 33.2995C41.6422 33.2641 40.7008 33.0871 39.8481 32.5029C39.4751 32.255 39.102 32.3435 38.9066 32.6445C38.6935 32.9631 38.7823 33.2818 39.1909 33.5473C39.8836 34.0076 40.6297 34.3085 41.5001 34.3085C42.1396 34.3085 42.7613 34.3617 43.4008 34.2908C43.9515 34.2377 44.4311 34.4502 44.9818 34.5033C44.3778 33.7598 43.5785 33.3349 42.6548 33.2995Z" fill="black"/>
<path d="M47.0601 26.9796C46.7226 27.0327 46.5805 27.2629 46.545 27.5992C46.4917 28.2719 46.616 28.9446 46.6693 29.6173C46.6871 29.8475 46.847 29.9891 47.0068 30.113C47.2733 30.0068 47.4154 29.8298 47.4332 29.5819C47.4865 28.9269 47.6108 28.2896 47.5753 27.6346C47.5397 27.2098 47.3443 26.9265 47.0601 26.9796Z" fill="black"/>
<path d="M71.183 31.0689C71.2185 31.1043 71.2363 31.1397 71.2718 31.1751C71.3429 31.0335 71.4139 30.9273 71.5027 30.8211C71.5027 30.8034 71.485 30.8034 71.485 30.7857C71.1475 30.3785 70.7922 30.0068 70.4192 29.635C70.3126 29.7412 70.2238 29.8297 70.1172 29.9183C70.4902 30.29 70.8455 30.6618 71.183 31.0689Z" fill="black"/>
<path d="M77.6846 31.9895C77.7734 32.1665 77.8267 32.379 77.8444 32.6268C77.8444 32.6622 77.8444 32.7153 77.8444 32.7507C78.0398 32.9455 78.2352 33.1402 78.4306 33.3349C78.4129 33.1225 78.3951 32.91 78.3774 32.6976C78.1464 32.4498 77.9155 32.2196 77.6846 31.9895Z" fill="black"/>
<path d="M69.8508 29.1216C69.7797 29.2456 69.6909 29.3518 69.5844 29.458C69.6199 29.4934 69.6376 29.5111 69.6732 29.5288C69.7265 29.5819 69.7797 29.6173 69.833 29.6704C69.9396 29.5819 70.0462 29.4757 70.135 29.3695C70.0462 29.281 69.9396 29.1925 69.8508 29.1216Z" fill="black"/>
<path d="M76.4055 31.2814C76.5654 31.3345 76.6897 31.4053 76.8318 31.423C76.9917 31.4584 77.1161 31.4938 77.2226 31.5646C76.9917 31.3345 76.7786 31.122 76.5476 30.8919C76.4588 30.9627 76.4055 31.0866 76.4055 31.2814Z" fill="black"/>
<path d="M69.4244 28.7853C68.9803 29.0862 68.5363 29.3518 68.0566 29.5996C68.0744 29.6173 68.0744 29.6527 68.0922 29.6704C68.1277 29.7589 68.1632 29.8474 68.1988 29.9183C68.4297 29.7943 68.6428 29.6704 68.8738 29.5465C68.8738 29.4049 68.8915 29.2633 68.9626 29.1393C69.1225 29.1216 69.2646 29.1747 69.3889 29.2633C69.531 29.1924 69.6554 29.1216 69.7975 29.0508C69.6376 28.9446 69.531 28.8561 69.4244 28.7853Z" fill="black"/>
<path d="M74.0252 33.7775C73.8653 33.7952 73.7055 33.8129 73.5278 33.8306C73.6166 33.9368 73.7055 34.043 73.7943 34.1315C73.9542 34.1138 74.114 34.0961 74.2739 34.0784C74.2028 33.9722 74.114 33.866 74.0252 33.7775Z" fill="black"/>
<path d="M68.0389 28.6968C68.0034 28.5906 67.9501 28.5021 67.9146 28.3958C67.8258 28.449 67.737 28.5021 67.6304 28.5729C67.6837 28.6968 67.737 28.8207 67.7725 28.9269C67.8613 28.8738 67.9679 28.8207 68.0567 28.7676C68.0567 28.7499 68.0567 28.7145 68.0389 28.6968Z" fill="black"/>
<path d="M75.9082 30.2369C75.7483 30.29 75.5707 30.3431 75.3931 30.3431C75.4286 30.3785 75.4819 30.4316 75.5174 30.467C75.7128 30.4493 75.8904 30.4316 76.0858 30.4139C76.0326 30.3608 75.9793 30.3077 75.9082 30.2369Z" fill="black"/>
<path d="M77.7023 38.7873C77.7556 38.8759 77.8799 38.9467 77.8621 39.0529C78.0398 39.3007 78.2352 39.5309 78.4128 39.7787C78.4306 39.584 78.4661 39.4069 78.4839 39.2122C78.324 39.0175 78.1819 38.8228 78.022 38.6103C77.9332 38.7165 77.7733 38.6811 77.7023 38.7873Z" fill="black"/>
<path d="M67.4705 28.1303C67.5593 28.0772 67.6481 28.0064 67.7369 27.9533C67.6836 27.8294 67.6303 27.6877 67.5771 27.5638C67.4882 27.6346 67.4172 27.7054 67.3284 27.7762C67.3284 27.7762 67.3284 27.7762 67.3284 27.7939C67.3639 27.9002 67.4172 28.0241 67.4705 28.1303Z" fill="black"/>
<path d="M73.8831 28.8738C73.9008 28.8738 73.9186 28.8561 73.9364 28.8561C74.0785 28.803 74.2028 28.7676 74.3449 28.7145C74.2739 28.6437 74.2028 28.5729 74.1318 28.502C74.0074 28.5729 73.8653 28.6614 73.741 28.7322C73.7943 28.803 73.8476 28.8384 73.8831 28.8738Z" fill="black"/>
<path d="M71.1297 22.3946C70.8811 22.3769 70.6324 22.3238 70.3837 22.3061C70.206 22.5716 70.0462 22.8372 69.8685 23.1204C69.9396 23.1912 70.0284 23.262 70.0995 23.3329C70.508 23.7223 70.9876 24.0233 71.5205 24.3596C71.6449 24.2888 71.7692 24.218 71.8936 24.1472C71.414 23.8462 70.9699 23.5099 70.5258 23.1381C70.4014 23.0319 70.2238 22.9434 70.1705 22.6601C70.5258 22.6956 70.8455 22.7664 71.183 22.8549C71.3607 22.6601 71.5383 22.4654 71.6982 22.253C71.5205 22.1468 71.3607 22.0406 71.183 21.9343C71.0409 21.8458 70.9166 21.775 70.7922 21.6688C70.7212 21.775 70.6501 21.8812 70.5791 22.0051C70.7567 22.1468 70.9343 22.2707 71.1297 22.3946Z" fill="black"/>
<path d="M71.9824 32.0072C72.1068 31.9364 72.2489 31.8833 72.3732 31.8301C72.2311 31.6708 72.089 31.4938 71.9647 31.3345C71.8225 31.3699 71.6804 31.423 71.5383 31.4761C71.6804 31.6531 71.8225 31.8301 71.9824 32.0072Z" fill="black"/>
<path d="M71.8935 24.5897C71.7692 24.6074 71.6449 24.6074 71.556 24.6074C71.3784 24.6959 71.183 24.7845 71.0054 24.873C71.6804 24.7668 72.3199 25.227 73.0127 25.1031C73.0837 24.7491 72.7995 24.6605 72.6041 24.5543C72.462 24.4835 72.3376 24.395 72.1955 24.3065C72.0534 24.3596 71.9113 24.4304 71.787 24.5012C71.8225 24.5366 71.858 24.572 71.8935 24.5897Z" fill="black"/>
<path d="M71.9291 23.1027C72.0357 22.9257 72.1778 22.7664 72.3199 22.6247C72.1778 22.5362 72.0357 22.4654 71.9113 22.3769C71.7159 22.5539 71.5028 22.7487 71.2719 22.8726C71.485 22.9434 71.7159 23.0142 71.9291 23.1027Z" fill="black"/>
<path d="M72.5863 23.3505C72.6396 23.1912 72.7107 23.0496 72.8172 22.908C72.7462 22.8549 72.6574 22.8195 72.5863 22.7664C72.4087 22.908 72.2488 23.0319 72.0712 23.1558C72.2488 23.2266 72.4264 23.2974 72.5863 23.3505Z" fill="black"/>
<path d="M73.1548 23.5453C73.2258 23.5099 73.3146 23.4568 73.3857 23.4214C73.3679 23.3328 73.3324 23.262 73.2791 23.2089C73.137 23.2974 72.9949 23.4037 72.8528 23.4391C72.9594 23.4922 73.0482 23.5276 73.1548 23.5453Z" fill="black"/>
<path d="M72.2489 32.3081C72.3732 32.4498 72.4976 32.6091 72.6219 32.7507C72.7818 32.733 72.9239 32.6976 73.0838 32.6622C72.9594 32.5206 72.8351 32.3613 72.7108 32.2196C72.5864 32.2373 72.4798 32.2727 72.3555 32.2904C72.3022 32.2904 72.2844 32.3081 72.2489 32.3081Z" fill="black"/>
<path d="M70.6856 24.9615C70.7389 24.9438 70.7922 24.9261 70.8633 24.9084C70.9876 24.7668 71.112 24.6605 71.2363 24.5543C71.1653 24.5366 71.0942 24.5189 71.0409 24.5366C70.7567 24.5366 70.4902 24.5897 70.3481 24.873C70.2238 25.1385 70.3481 25.351 70.508 25.5457C70.5791 25.6342 70.6679 25.705 70.7389 25.7935C71.2363 26.2892 71.7337 26.7849 72.2311 27.2806C72.3199 27.1743 72.4087 27.0681 72.4975 26.9796C72.0001 26.5193 71.5205 26.0414 71.0231 25.5811C70.881 25.4041 70.7567 25.227 70.6856 24.9615Z" fill="black"/>
<path d="M73.1193 33.3349C73.1726 33.388 73.2258 33.4588 73.2791 33.5119C73.368 33.4942 73.4568 33.4588 73.5634 33.4411C73.4212 33.4057 73.2614 33.3703 73.1193 33.3349Z" fill="black"/>
<path d="M73.2081 28.2188C73.3325 28.148 73.4746 28.0595 73.5989 27.9887C73.5279 27.9179 73.4568 27.8471 73.368 27.7762C73.1904 27.8117 73.0305 27.8471 72.8706 27.8825C72.995 28.0064 73.1015 28.1126 73.2081 28.2188Z" fill="black"/>
<path d="M66.0316 28.9446C66.1026 28.9092 66.1737 28.8738 66.2625 28.8384C66.3336 28.7145 66.3691 28.5729 66.3691 28.4489C66.2625 28.5198 66.1559 28.5729 66.0671 28.626C65.9961 28.6614 65.9428 28.6968 65.8717 28.7322C65.8895 28.803 65.9428 28.8738 66.0316 28.9446Z" fill="black"/>
<path d="M74.3627 28.7322C74.2206 28.7676 74.0785 28.8207 73.9542 28.8738C73.9364 28.8738 73.9186 28.8915 73.9009 28.8915C74.3983 29.3872 74.9134 29.8652 75.4108 30.3608C75.5884 30.3431 75.7661 30.3077 75.9259 30.2546C75.393 29.7235 74.8779 29.2279 74.3627 28.7322Z" fill="black"/>
<path d="M73.1193 33.3349C73.2614 33.3703 73.4035 33.4057 73.5456 33.4411C73.4568 33.4588 73.368 33.4942 73.2614 33.5119C73.3502 33.6182 73.439 33.7244 73.5278 33.8129C73.6877 33.7952 73.8476 33.7775 74.0252 33.7598C73.7055 33.388 73.3857 33.0163 73.066 32.6445C72.9239 32.6799 72.764 32.7153 72.6041 32.733C72.7818 32.9454 72.9594 33.1402 73.1193 33.3349Z" fill="black"/>
<path d="M72.2488 32.3081C72.2843 32.3081 72.3199 32.2904 72.3376 32.2904C72.462 32.2727 72.5686 32.2373 72.6929 32.2196C72.5863 32.0957 72.4797 31.9541 72.3554 31.8302C72.2311 31.8833 72.0889 31.9364 71.9646 32.0072C72.0712 32.1134 72.16 32.2019 72.2488 32.3081Z" fill="black"/>
<path d="M71.5383 31.4761C71.6804 31.423 71.8225 31.3876 71.9646 31.3345C71.8225 31.1575 71.6804 30.9981 71.5383 30.8211C71.4495 30.9273 71.3607 31.0512 71.3074 31.1752C71.3607 31.2637 71.4495 31.3699 71.5383 31.4761Z" fill="black"/>
<path d="M73.4035 23.6161C73.4213 23.5276 73.4035 23.4745 73.4035 23.4214C73.3325 23.4745 73.2437 23.5099 73.1726 23.5453C73.2437 23.5807 73.3147 23.5984 73.4035 23.6161Z" fill="black"/>
<path d="M78.4306 33.3172C78.7148 33.6004 79.0168 33.9014 79.301 34.1846C79.2833 33.9722 79.2655 33.7421 79.23 33.5296C78.9458 33.2464 78.6615 32.9631 78.3773 32.6799C78.3951 32.8923 78.4128 33.1048 78.4306 33.3172Z" fill="black"/>
<path d="M66.3691 28.4489C66.3869 28.3073 66.3869 28.1657 66.3869 28.0241C66.4224 27.7231 66.3158 27.4045 66.529 27.0858C67.0086 27.1035 67.1685 27.4399 67.3106 27.7762C67.3994 27.7054 67.4705 27.6346 67.5593 27.5638C67.5238 27.4576 67.4705 27.3691 67.4349 27.2628C67.2928 26.9265 67.0264 26.6964 66.6534 26.6964C66.2626 26.6787 66.0494 26.9796 65.8718 27.2983C65.8007 27.0504 65.7474 26.8203 65.6764 26.5724C65.552 26.1122 65.3566 25.6873 65.0724 25.2978C64.6638 24.7314 64.2553 24.6605 63.6868 24.9969C63.5625 25.0677 63.4914 25.2624 63.2605 25.1562C63.4381 24.0941 63.7934 22.9257 62.1236 22.6955C62.7631 21.952 63.0296 21.0315 63.7401 20.3411C64.4684 20.6243 64.9125 20.0578 65.3744 19.5445C65.9783 20.0578 66.4757 19.7746 66.9376 19.4205C67.3461 19.1196 67.6836 18.7301 68.1277 18.4469C68.1277 18.5177 68.1455 18.5531 68.1277 18.6062C67.8258 19.5267 68.1455 19.9693 69.1047 20.0047C69.5666 20.0224 70.0284 20.0047 70.4903 19.8985C70.3659 20.0224 70.2238 20.0932 70.0995 20.1818C69.46 20.6243 69.4245 20.9961 69.9574 21.5449C70.135 21.7219 70.3126 21.8812 70.508 22.0405C70.5791 21.9343 70.6502 21.8281 70.7212 21.7042C70.5969 21.6157 70.4725 21.5272 70.3482 21.4209C69.8508 20.9961 69.8863 20.6597 70.4548 20.3234C70.7923 20.1286 71.1475 20.0047 71.5028 19.8277C71.6982 19.7392 71.9469 19.6861 72.0002 19.3851C71.787 19.1904 71.5561 19.2966 71.3252 19.3497C70.6857 19.4913 70.064 19.7038 69.3889 19.6684C69.2113 19.6684 69.0337 19.6684 68.856 19.6507C68.3231 19.5622 68.1633 19.3143 68.3587 18.8009C68.5363 18.2876 68.8205 17.8273 69.1225 17.367C69.2113 17.2254 69.3712 17.1015 69.3357 16.8713C69.0514 16.9067 68.9449 17.1192 68.8027 17.2608C68.3231 17.7388 67.8613 18.2344 67.3284 18.6416C67.204 18.7478 67.0797 18.8363 66.9553 18.9249C66.2803 19.3674 66.0849 19.3497 65.5698 18.7655C65.3033 18.7655 65.179 18.978 65.0724 19.155C64.6994 19.7392 64.2553 20.1463 63.5092 19.7038C63.1362 20.0578 63.1539 20.6066 62.7276 20.8899C62.319 21.1554 61.8039 21.0846 61.3953 21.3855C61.5197 21.8989 61.9638 21.6334 62.2658 21.775C62.0704 22.2884 61.5019 22.4831 61.271 22.9434C61.4309 23.3151 61.7151 23.1735 61.946 23.1735C62.8164 23.1735 62.9763 23.3328 62.9585 24.2003C62.9408 24.9084 62.6743 25.5634 62.4434 26.2184C62.3546 26.4662 62.0704 26.8026 62.4434 26.9796C62.7454 27.1212 62.8697 26.7318 63.0118 26.5193C63.2427 26.2184 63.4381 25.882 63.7224 25.6165C64.273 25.0677 64.575 25.1031 64.9658 25.7758C65.25 26.2715 65.3921 26.8203 65.5165 27.3691C65.6053 27.7585 65.6941 28.1657 65.7829 28.5551C65.8007 28.6083 65.8185 28.6791 65.8362 28.7322C65.9073 28.6968 65.9606 28.6614 66.0316 28.626C66.156 28.5729 66.2626 28.502 66.3691 28.4489Z" fill="black"/>
<path d="M71.2719 22.8726C71.5028 22.731 71.6982 22.5539 71.9113 22.3769C71.8403 22.3415 71.787 22.2884 71.7159 22.253C71.5383 22.4477 71.3784 22.6602 71.2008 22.8549C71.2186 22.8549 71.2363 22.8726 71.2719 22.8726Z" fill="black"/>
<path d="M69.833 29.104C69.8152 29.0862 69.7975 29.0685 69.762 29.0508C69.6198 29.1217 69.4955 29.1925 69.3534 29.2633C69.4244 29.3164 69.5133 29.3872 69.5843 29.458C69.6909 29.3341 69.7797 29.2279 69.833 29.104Z" fill="black"/>
<path d="M70.4192 29.635C70.3304 29.5465 70.2238 29.458 70.135 29.3695C70.0284 29.458 69.9396 29.5642 69.833 29.6704C69.9218 29.7589 70.0284 29.8475 70.1172 29.936C70.2238 29.8297 70.3126 29.7412 70.4192 29.635Z" fill="black"/>
<path d="M77.7023 38.7873C77.7556 38.6811 77.9155 38.7165 78.022 38.628C77.951 38.5395 77.8799 38.451 77.8089 38.3625C76.672 36.8931 75.4818 35.4946 74.2739 34.0784C74.1141 34.0961 73.9542 34.1138 73.7943 34.1315C75.1621 35.7248 76.5121 37.3357 77.8089 38.9998C77.8266 39.0175 77.8444 39.0352 77.8622 39.0706C77.8799 38.9467 77.7733 38.8758 77.7023 38.7873Z" fill="black"/>
<path d="M72.089 23.1558C72.2666 23.0496 72.4265 22.908 72.6041 22.7663C72.5153 22.7132 72.4265 22.6601 72.3377 22.607C72.1956 22.7486 72.0535 22.908 71.9469 23.085C71.9824 23.1204 72.0357 23.1381 72.089 23.1558Z" fill="black"/>
<path d="M70.8633 24.8907C70.9166 24.873 70.9521 24.873 71.0054 24.8553C71.183 24.7668 71.3784 24.6782 71.5561 24.5897C71.4317 24.572 71.3429 24.5543 71.2363 24.5189C71.112 24.6428 70.9876 24.7668 70.8633 24.8907Z" fill="black"/>
<path d="M68.5362 30.2369C68.856 30.0953 68.856 29.8121 68.8737 29.5465C68.6428 29.6704 68.4297 29.7943 68.1987 29.9183C68.252 30.0599 68.3408 30.1661 68.5362 30.2369Z" fill="black"/>
<path d="M77.6845 31.9895C77.5424 31.8479 77.4003 31.7062 77.2582 31.5646C77.1516 31.5115 77.0095 31.4584 76.8674 31.423C76.7252 31.3876 76.5831 31.3345 76.441 31.2814C76.441 31.1043 76.4766 30.9627 76.6009 30.8919C76.441 30.7326 76.2812 30.5733 76.1213 30.4316C75.9259 30.4493 75.7483 30.467 75.5529 30.4847C76.3345 31.2283 77.0983 31.9895 77.8621 32.7507C77.8621 32.7153 77.8621 32.6622 77.8621 32.6268C77.8088 32.3612 77.7733 32.1488 77.6845 31.9895Z" fill="black"/>
<path d="M69.6554 22.5716C69.5843 22.7664 69.6731 22.9257 69.833 23.0496C69.8508 23.0673 69.8685 23.085 69.9041 23.1027C70.0639 22.8372 70.2416 22.5716 70.4192 22.2884C70.3304 22.2707 70.2416 22.2707 70.1705 22.2707C69.9396 22.253 69.7264 22.3415 69.6554 22.5716Z" fill="black"/>
<path d="M73.2436 28.2542C73.4212 28.4135 73.5811 28.5906 73.7587 28.7499C73.8831 28.6614 74.0074 28.5906 74.1495 28.5198C73.9719 28.3427 73.7943 28.1657 73.6166 28.0064C73.4923 28.0772 73.3502 28.1657 73.2258 28.2365C73.2258 28.2365 73.2258 28.2365 73.2436 28.2542Z" fill="black"/>
<path d="M72.8706 27.8825C73.0304 27.8471 73.2081 27.8117 73.368 27.7762C73.0837 27.493 72.7817 27.2275 72.4975 26.9442C72.4087 27.0504 72.3199 27.1389 72.2311 27.2452C72.462 27.4753 72.6752 27.6877 72.8706 27.8825Z" fill="black"/>
<path d="M71.7692 24.5012C71.9113 24.4304 72.0534 24.3773 72.1778 24.3065C72.0889 24.2534 71.9824 24.1826 71.8935 24.1295C71.7692 24.2003 71.6449 24.2534 71.5205 24.3419C71.6093 24.395 71.6804 24.4481 71.7692 24.5012Z" fill="black"/>
<path d="M72.8529 23.4568C73.0128 23.4214 73.1549 23.3151 73.2792 23.2266C73.1904 23.1381 73.0838 23.085 72.9772 23.0319C72.9239 22.9965 72.8706 22.9611 72.8174 22.9434C72.7108 23.0673 72.622 23.2089 72.5864 23.386C72.6752 23.386 72.7641 23.4214 72.8529 23.4568Z" fill="black"/>
<path d="M78.5016 39.2122C78.4838 39.4069 78.4661 39.584 78.4305 39.7787C78.6792 40.0974 78.9102 40.3983 79.1588 40.717C79.1766 40.5399 79.2121 40.3452 79.2299 40.1682C78.9812 39.8495 78.7325 39.5309 78.5016 39.2122Z" fill="black"/>
<path d="M68.3408 29.3695C68.181 29.1925 68.1454 28.98 68.0744 28.7676C67.9856 28.8207 67.879 28.8738 67.7902 28.9269C67.879 29.1571 67.9678 29.3695 68.0566 29.5996C68.5362 29.3695 68.9803 29.0863 69.4244 28.7853C68.9448 28.4844 68.6961 28.6614 68.3408 29.3695Z" fill="black"/>
<path d="M66.2447 28.8384C66.1737 28.8738 66.1026 28.9092 66.0138 28.9446C66.0493 28.9623 66.0848 28.98 66.1204 28.9977C66.1914 28.9446 66.227 28.8915 66.2447 28.8384Z" fill="black"/>
<path d="M67.7369 27.9532C67.6481 28.0064 67.5593 28.0772 67.4705 28.1303C67.5237 28.2719 67.5948 28.4135 67.6481 28.5551C67.7369 28.502 67.8257 28.4489 67.9323 28.3781C67.8613 28.2542 67.7902 28.0949 67.7369 27.9532Z" fill="black"/>
<path d="M76.8141 47.0191C78.1286 47.5502 79.1767 48.5061 80.5444 48.8425C79.7451 48.1521 79.3365 47.267 79.1056 46.2933C78.7859 44.9302 78.7859 43.5317 78.9635 42.1509C79.0168 41.6729 79.0878 41.2126 79.1589 40.7346C78.9102 40.416 78.6793 40.115 78.4306 39.7964C78.4128 39.9911 78.3773 40.2036 78.3418 40.3983C78.0398 42.4164 77.9865 44.4168 78.3951 46.4349C78.4839 46.8421 78.6437 47.2316 78.8036 47.6741C78.5016 47.7095 78.3418 47.4971 78.1286 47.4263C77.5424 47.1961 77.0983 46.6828 76.4233 46.6828C76.3345 46.6828 76.2812 46.612 76.2457 46.5411C76.068 46.2048 75.7838 45.9215 75.5884 45.4259C76.1391 45.8507 76.4944 46.311 77.0628 46.488C77.2582 46.2225 77.0805 45.9924 77.0273 45.7445C77.2582 45.7268 77.3648 45.957 77.5602 45.9215C77.7556 45.5498 77.7556 45.5498 77.4358 44.7886C77.8977 44.4345 77.8977 44.346 77.4181 43.691C77.4891 43.3369 77.8089 43.0006 77.5246 42.5934C77.4714 42.5226 77.5069 42.4341 77.5779 42.3633C78.1286 41.8145 77.9687 41.1949 77.7378 40.5753C77.8621 40.3629 78.1464 40.4868 78.3062 40.3098C78.1997 39.9734 77.9154 39.7964 77.6135 39.6902C77.1871 39.5309 76.8319 39.3007 76.5654 38.8759C77.045 38.8936 77.4003 39.3184 77.8799 39.2299C77.9154 39.1768 77.9332 39.1414 77.9332 39.106C77.9154 39.0883 77.8977 39.0706 77.8799 39.0352C76.6009 37.3711 75.2331 35.7779 73.8653 34.1669C72.8883 34.2554 71.9114 34.2023 70.9166 34.1138C69.5666 33.9899 68.2698 33.6181 66.9908 33.1402C67.7369 32.9454 68.5007 32.9277 69.3534 32.8392C69.0159 32.3435 68.4652 32.6091 68.1455 32.3081C68.9271 32.0603 69.8153 31.9187 70.2416 30.9804C69.6909 30.7326 69.3534 31.0512 68.9804 31.1929C68.2698 31.4761 67.5415 31.6885 66.6889 31.5823C68.0389 31.2814 69.2113 30.768 70.1705 29.936C70.0817 29.8475 69.9751 29.7589 69.8863 29.6704C69.5666 29.9537 69.2291 30.2369 68.785 30.3608C69.0514 29.9891 69.3889 29.7412 69.6554 29.4403C69.5843 29.3695 69.5133 29.2987 69.4245 29.2456C69.2468 29.3341 69.0869 29.4226 68.9271 29.5288C68.9093 29.7943 68.9093 30.0776 68.5896 30.2192C68.4119 30.1661 68.3053 30.0422 68.2521 29.9006C67.9678 30.0599 67.6659 30.2015 67.3639 30.3077C66.4224 30.6795 65.4277 30.8565 64.4329 31.1044C64.6638 31.3168 64.948 31.2991 65.3033 31.4053C64.7882 31.4761 64.4151 31.4407 63.9177 31.2814C64.4507 32.0072 65.1257 32.1842 65.8185 32.3258C64.6461 32.4852 63.7756 31.7594 62.7809 31.2814C62.6743 31.1398 62.923 30.9273 62.7454 30.768C62.621 31.0158 62.6743 31.3876 62.2124 31.4053C62.1592 30.8388 62.6743 30.3254 62.3901 29.6527C61.9105 30.3077 62.0703 31.1575 61.4841 31.6708C61.4841 30.8034 62.248 30.0599 61.8749 29.1216C61.6085 29.281 61.6085 29.5819 61.3953 29.8652V28.502C61.0401 28.9092 61.0223 29.3695 60.6137 29.7589C60.7558 29.0862 60.969 28.5552 60.969 27.9533C60.5782 28.2719 60.6137 28.8561 60.1696 29.1216C60.0986 28.6437 60.5071 28.2011 60.2052 27.7408C59.9032 27.9002 60.0631 28.2542 59.7788 28.4312C59.7611 27.7585 60.3295 27.0504 59.6012 26.5193C59.7255 26.2715 59.8854 26.36 60.0098 26.3954C60.4539 26.5547 60.8091 26.8557 61.1644 27.1566C62.1236 28.0241 63.1894 28.6437 64.6638 28.5375C64.2197 28.8915 63.7401 28.7322 63.3848 28.9446C63.5447 29.1216 63.7579 29.1571 63.971 29.1393C64.6283 29.0685 65.3033 28.9623 65.9073 28.6791C65.8895 28.626 65.8717 28.5729 65.854 28.502C65.7652 28.1126 65.6763 27.7054 65.5875 27.316C65.4632 26.7672 65.3211 26.2184 65.0369 25.7227C64.6283 25.0323 64.3441 24.9969 63.7934 25.5634C63.5269 25.8289 63.3138 26.1653 63.0829 26.4662C62.9408 26.6787 62.8164 27.0681 62.5144 26.9265C62.1414 26.7495 62.4256 26.4131 62.5144 26.1653C62.7454 25.5103 63.0296 24.873 63.0296 24.1472C63.0473 23.2797 62.8875 23.1204 62.017 23.1204C61.7861 23.1204 61.5019 23.262 61.342 22.8903C61.5552 22.4477 62.1414 22.2353 62.3368 21.7219C62.0348 21.5803 61.5907 21.8281 61.4664 21.3324C61.8749 21.0315 62.3901 21.0846 62.7986 20.8368C63.225 20.5535 63.225 20.0047 63.5802 19.6507C64.3263 20.0932 64.7526 19.6861 65.1434 19.1019C65.2678 18.9249 65.3744 18.7124 65.6408 18.7124C66.156 19.2966 66.3691 19.3143 67.0264 18.8718C67.1507 18.7832 67.2751 18.677 67.3994 18.5885C67.9323 18.1636 68.3942 17.6857 68.8738 17.2077C69.0159 17.0661 69.1225 16.8359 69.4067 16.8182C69.4422 17.0661 69.2823 17.1723 69.1935 17.3139C68.8915 17.7742 68.6073 18.2345 68.4297 18.7478C68.2521 19.2612 68.3942 19.5091 68.9271 19.5976C69.1047 19.633 69.2823 19.6153 69.46 19.6153C70.1172 19.633 70.7567 19.4205 71.3962 19.2966C71.6271 19.2435 71.8581 19.1373 72.0712 19.332C72.0179 19.6507 71.7515 19.6861 71.5738 19.7746C71.2363 19.9516 70.8633 20.0755 70.5258 20.2703C69.9574 20.6066 69.9218 20.943 70.4192 21.3678C70.5436 21.4741 70.6679 21.5626 70.7923 21.6511C71.5206 20.5712 72.2844 19.5268 73.1903 18.5C73.1193 18.9957 73.1193 18.9957 72.7462 19.4382C72.5331 19.7038 72.3199 19.9516 72.0179 20.3057C72.693 20.1109 72.9949 19.5268 73.6699 19.4205C73.1548 20.0047 72.6752 20.5358 72.1956 21.0669C72.8884 20.8191 73.2259 20.0755 74.043 20.0755C73.1015 20.6066 72.391 21.4032 71.6982 22.1999C71.7692 22.2353 71.8225 22.2884 71.8936 22.3238C72.2489 22.0051 72.5864 21.6688 73.0305 21.5272C73.0837 21.598 73.1193 21.6865 73.1726 21.7573C72.8884 22.0405 72.5864 22.2884 72.3022 22.5893C72.391 22.6424 72.4798 22.6955 72.5686 22.7487C72.8351 22.5362 73.1015 22.3238 73.4568 22.1645C73.2436 22.4477 72.9949 22.6601 72.7995 22.8903C72.8528 22.9257 72.9061 22.9611 72.9594 22.9788C73.0482 23.0319 73.1726 23.085 73.2614 23.1735C73.4213 23.0673 73.5989 22.9788 73.8121 23.0496C73.6699 23.1735 73.5101 23.2797 73.3502 23.386C73.368 23.4391 73.368 23.5099 73.3502 23.5807C73.2614 23.563 73.1903 23.5276 73.1015 23.5099C72.693 23.7223 72.2666 23.8816 71.8403 24.0941C71.9291 24.1472 72.0357 24.218 72.1245 24.2711C72.4443 24.1295 72.7818 24.0056 73.137 23.9347V24.572C73.4568 24.3419 73.7232 24.1472 74.1496 24.2357C73.4035 24.9615 72.5508 25.5457 72.0357 26.4485C72.6752 26.1122 73.1015 25.4926 73.8121 25.2447C73.4213 25.8466 72.9416 26.36 72.4443 26.9088C72.7285 27.192 73.0305 27.4576 73.3147 27.7408C73.5811 27.6877 73.8298 27.6346 74.114 27.6169C73.9186 27.7408 73.7232 27.847 73.5278 27.9533C73.7055 28.1303 73.8831 28.3073 74.0607 28.4666C74.7713 28.0595 75.5174 27.7585 76.3522 27.6169C76.7963 27.5461 77.2937 27.5107 77.5246 26.9442C77.951 28.8207 78.1286 30.7149 78.2885 32.6091C78.5727 32.8923 78.8569 33.1756 79.1411 33.4588C79.1234 33.2995 79.1056 33.1579 79.0878 32.9985C78.8214 30.7149 78.6793 28.4312 78.1997 26.1653C77.7556 24.1295 77.3292 22.0937 76.6898 20.1109C76.5476 19.6507 76.299 19.3851 75.8016 19.3497C75.5706 19.332 75.3397 19.2612 75.091 19.2081C75.322 18.6239 76.0503 18.323 75.8726 17.5972C75.393 17.4555 75.1799 17.9335 74.7713 17.9689C74.8068 17.7034 74.9845 17.5795 75.1088 17.4378C75.322 17.2077 75.4463 16.8359 75.3575 16.6235C75.1088 16.0924 75.322 15.6676 75.5174 15.2073C75.6062 15.0126 75.6417 14.8001 75.5884 14.5523C75.5351 14.2513 75.6417 13.915 76.0147 13.738C76.8674 13.3308 77.72 12.9059 78.626 12.5873C78.8569 12.4988 79.1411 12.4988 79.2299 12.1093C79.0168 11.9677 78.8747 11.7198 78.5549 11.6136C77.9154 11.4189 77.2937 11.1888 76.6542 10.994C74.9489 10.4807 73.2081 10.339 71.4495 10.3567C71.183 10.3567 70.8811 10.4098 70.5969 10.1797C70.8455 10.0204 71.0409 9.91417 71.2541 9.82565C72.0179 9.507 72.8173 9.32998 73.6167 9.09984C73.8121 9.04673 74.0963 9.04673 74.1851 8.60416C71.2541 7.94916 68.2876 7.66592 65.3033 7.542C65.3388 6.78078 66.3158 6.51524 66.2981 5.5947C64.1487 6.16119 62.0881 6.69227 59.9742 7.24105C60.0986 6.65686 60.4006 6.2497 60.596 5.82483C60.8091 5.38227 61.4131 5.20524 61.4664 4.56794C59.2459 4.79807 57.0965 5.11672 54.9471 5.77173C55.0715 5.02821 55.3379 4.47943 55.6399 3.91294C55.8886 3.45267 55.782 3.25794 55.2847 3.27564C53.757 3.32875 52.3181 3.6651 51.0214 4.51483C50.9326 4.56794 50.8615 4.62105 50.7905 4.69186C50.7194 4.62105 50.6484 4.56794 50.5595 4.51483C49.2628 3.6828 47.8062 3.34645 46.2963 3.27564C45.7989 3.25794 45.6923 3.45267 45.941 3.91294C46.243 4.46172 46.5095 5.02821 46.6338 5.77173C44.4844 5.11672 42.335 4.79807 40.1146 4.56794C40.1679 5.20524 40.7718 5.38227 40.985 5.82483C41.1804 6.2674 41.4824 6.65686 41.6067 7.24105C39.4928 6.69227 37.4323 6.16119 35.2829 5.5947C35.2651 6.49754 36.2421 6.78078 36.2776 7.542C33.2934 7.66592 30.3268 7.94916 27.3959 8.60416C27.4847 9.04673 27.7511 9.02903 27.9643 9.09984C28.7637 9.32998 29.563 9.507 30.3268 9.82565C30.54 9.91417 30.7354 10.0204 30.9841 10.1797C30.6999 10.4098 30.3979 10.3567 30.1314 10.3567C28.3729 10.339 26.6143 10.4807 24.9267 10.994C24.2872 11.1888 23.6655 11.4189 23.026 11.6136C22.724 11.7021 22.5819 11.9677 22.351 12.1093C22.4398 12.4988 22.724 12.4988 22.955 12.5873C23.8431 12.9059 24.6958 13.3308 25.5662 13.738C25.9392 13.915 26.0458 14.2513 25.9925 14.5523C25.957 14.8001 25.9925 15.0126 26.0636 15.2073C26.259 15.6676 26.4722 16.0747 26.2235 16.6235C26.1169 16.8359 26.259 17.19 26.4722 17.4378C26.5965 17.5795 26.7741 17.7211 26.8097 17.9689C26.4011 17.9335 26.1879 17.4555 25.7083 17.5972C25.5307 18.323 26.2412 18.6239 26.4899 19.2081C26.259 19.2612 26.0103 19.332 25.7794 19.3497C25.282 19.3851 25.0333 19.633 24.8912 20.1109C24.2517 22.0937 23.8254 24.1295 23.3813 26.1653C22.8839 28.4135 22.7596 30.7149 22.4931 32.9985C22.4753 33.1756 22.4576 33.3703 22.4398 33.5473C22.4398 33.6358 22.4398 33.7067 22.4221 33.7775C22.4398 33.8483 22.4753 33.9014 22.4753 33.9899C22.4753 34.043 22.4931 34.0961 22.4931 34.1492C22.7418 33.9014 22.9905 33.6535 23.2392 33.4057C23.3635 33.2818 23.4879 33.1579 23.6122 33.0517C24.5182 32.1488 25.4241 31.2637 26.3478 30.3785C26.3656 30.3608 26.3833 30.3431 26.4011 30.3254C27.1294 29.6173 27.8399 28.9269 28.5683 28.2188C28.888 27.9179 29.19 27.5992 29.492 27.2983C29.7762 27.015 30.0426 26.7318 30.3268 26.4485C30.5578 26.2007 30.8065 25.9706 31.0552 25.7404C31.144 25.6696 31.215 25.5811 31.2861 25.4926C31.446 25.2979 31.5881 25.0854 31.4459 24.8199C31.3038 24.5366 31.0374 24.4835 30.7532 24.4835C30.6999 24.4835 30.6644 24.4835 30.6111 24.5012C30.5933 24.5012 30.5933 24.5012 30.5755 24.5012C30.54 24.5012 30.4867 24.5189 30.4512 24.5366C30.3446 24.5543 30.238 24.5897 30.1137 24.5897C30.0782 24.5897 30.0426 24.5897 30.0071 24.5897C29.9716 24.5897 29.936 24.5897 29.8828 24.572C30.2025 24.3419 30.5222 24.1472 30.8242 23.9524L30.842 23.9347C30.8953 23.8993 30.9663 23.8639 31.0196 23.8108C31.0374 23.7931 31.0552 23.7754 31.0729 23.7754C31.1262 23.74 31.1617 23.7046 31.215 23.6692C31.2328 23.6515 31.2683 23.6338 31.2861 23.6161C31.3394 23.5807 31.3749 23.5453 31.4104 23.5099C31.4282 23.4922 31.446 23.4745 31.4637 23.4568C31.517 23.4037 31.5881 23.3506 31.6413 23.2974C31.6946 23.2443 31.7479 23.2089 31.7835 23.1558C31.8367 23.1027 31.8723 23.0673 31.9256 23.0142C32.0677 22.8903 32.1565 22.731 32.1032 22.5362C32.0321 22.3061 31.819 22.2353 31.6236 22.2353C31.4992 22.2353 31.3749 22.253 31.2506 22.2707C31.144 22.2884 31.0374 22.3061 30.913 22.3238C30.8242 22.3415 30.7176 22.3415 30.6288 22.3592C30.7887 22.253 30.9486 22.1645 31.1084 22.0405C31.3394 21.8812 31.5525 21.7042 31.7479 21.4918C32.2808 20.9253 32.2453 20.5535 31.6058 20.1287C31.4815 20.0401 31.3394 19.9693 31.215 19.8454C31.6769 19.9516 32.1387 19.9693 32.6006 19.9516C33.5776 19.9162 33.8796 19.4736 33.5776 18.5531C33.5598 18.5177 33.5776 18.4646 33.5776 18.3938C34.0394 18.677 34.3769 19.0665 34.7677 19.3674C35.2296 19.7215 35.727 20.0047 36.3309 19.4914C36.8105 20.0047 37.2546 20.5712 37.9652 20.288C38.6757 20.9784 38.9422 21.8989 39.5817 22.6424C37.9297 22.8903 38.2672 24.0587 38.4448 25.1031C38.2139 25.2093 38.1251 25.0146 38.0185 24.9438C37.4323 24.5897 37.0415 24.6783 36.6329 25.2447C36.3487 25.6342 36.1711 26.0591 36.0289 26.5193C35.9579 26.7495 35.9046 26.9973 35.8336 27.2452C35.6559 26.9265 35.4428 26.6433 35.052 26.6433C34.6789 26.661 34.4302 26.8911 34.2704 27.2097C34.2171 27.3337 34.1638 27.4576 34.1105 27.5992C34.0572 27.7231 34.0039 27.8293 33.9684 27.9533C33.9151 28.0949 33.844 28.2365 33.7907 28.3781C33.7552 28.4666 33.7197 28.5552 33.6842 28.6437C33.6664 28.6791 33.6486 28.7145 33.6486 28.7499C33.5776 28.9446 33.5421 29.1571 33.3822 29.3164C33.0091 28.5906 32.7782 28.4135 32.2631 28.7499C32.2098 28.7853 32.1565 28.8207 32.1032 28.8561C32.0854 28.8561 32.0854 28.8738 32.0677 28.8738C32.0144 28.9092 31.9611 28.9623 31.89 29.0154C31.89 29.0154 31.8723 29.0154 31.8723 29.0331C31.6413 29.2279 31.4282 29.4226 31.215 29.635C31.0552 29.7943 30.8775 29.9714 30.7176 30.1307C30.6999 30.1484 30.6821 30.1661 30.6821 30.1661C30.5222 30.3431 30.3624 30.5202 30.2025 30.7149C30.167 30.7503 30.1492 30.7857 30.1137 30.8211C29.6163 31.423 29.1012 32.0072 28.6038 32.6091C28.284 32.9808 27.9643 33.3526 27.6623 33.7067C27.5735 33.8129 27.4847 33.9014 27.3959 34.0076C26.2057 35.4061 25.0155 36.8223 23.8787 38.274C23.7721 38.3979 23.6833 38.5395 23.5767 38.6634C23.4168 38.8759 23.2569 39.0706 23.0971 39.283C22.8661 39.584 22.6175 39.9026 22.3865 40.2036C22.4043 40.3983 22.4221 40.593 22.4398 40.7878C22.4931 41.2126 22.5642 41.6375 22.6175 42.0624C22.7951 43.4609 22.7951 44.8417 22.4753 46.2048C22.2444 47.1784 21.8359 48.0636 21.0365 48.754C22.4043 48.4176 23.4523 47.4617 24.7668 46.9306C24.678 47.6033 24.5892 48.2583 24.5182 48.9133C24.4471 49.5683 24.305 50.2233 24.3938 50.9314C24.8734 50.8252 25.0333 50.5243 25.2287 50.2587C25.6728 49.6391 26.1346 49.0372 26.6853 48.5062C26.8985 48.2937 27.1649 48.1167 27.5202 47.8334C27.2715 48.6301 26.9695 49.2674 26.8097 50.0817C27.5735 49.4798 28.2485 48.9841 29.0656 48.7186C29.6874 48.5238 29.8117 48.5416 30.1137 49.1257C30.6111 50.0817 30.6644 51.0553 30.3446 52.0644C29.9893 53.2151 28.7992 54.0294 27.5913 53.9586C27.4669 53.9586 27.3426 53.9055 27.2715 54.0648C28.959 55.0562 32.8137 54.3481 35.2474 51.0553C35.1585 51.4802 35.1052 51.7812 35.052 52.0998C34.9098 53.038 34.8921 53.9763 35.2118 54.9145C35.3184 55.2509 35.3717 55.6049 35.4428 55.959C35.8336 56.0652 35.798 55.7289 35.8691 55.5518C36.1355 54.8437 36.4908 54.1887 36.9882 53.5868C36.9527 54.5605 37.379 55.4279 37.3257 56.4016C37.2724 57.3575 37.0415 58.2604 36.9349 59.2163C38.5514 57.8355 39.2086 55.9767 39.635 53.9763C40.2567 54.472 40.4166 55.1978 40.7008 55.959C41.287 55.6581 41.5889 55.1093 42.0153 54.5074C42.2462 55.782 42.335 56.9504 42.2284 58.1364C43.4364 57.0566 44.3245 55.7997 44.893 54.1533C45.2482 55.5695 44.7331 56.7733 44.5732 58.0302C45.7989 56.7202 46.7049 55.2686 47.0957 53.4983C47.2378 54.7198 47.4864 55.8882 47.824 57.0212C48.197 57.0566 48.197 56.8264 48.2503 56.614C48.499 55.5695 48.7477 54.5251 48.9964 53.4806C49.0496 53.2505 49.1029 53.038 49.1918 52.8079C49.245 53.7108 49.5293 54.5428 49.849 55.3748C50.0444 55.8705 50.222 56.3839 50.5063 56.8441C50.6128 56.9681 50.7194 57.1097 50.8082 57.2336C50.826 57.2159 50.8438 57.1805 50.8615 57.1628C50.9148 57.0566 50.9859 56.9681 51.0569 56.8795C51.0569 56.8795 51.0569 56.8618 51.0392 56.8618C51.3234 56.4016 51.501 55.8882 51.6964 55.3925C52.0162 54.5782 52.3004 53.7285 52.3537 52.8256C52.4425 53.0558 52.4958 53.2682 52.5491 53.4983C52.7978 54.5428 53.0464 55.5872 53.2951 56.6317C53.3484 56.8264 53.3484 57.0743 53.7215 57.0389C54.0767 55.9059 54.3077 54.7375 54.4498 53.516C54.8406 55.2863 55.7465 56.7379 56.9722 58.0479C56.7946 56.791 56.2794 55.6049 56.6525 54.171C57.2209 55.8174 58.1091 57.0743 59.317 58.1541C59.2282 56.9504 59.2992 55.7997 59.5301 54.5251C59.9565 55.1447 60.2585 55.6758 60.8447 55.9767C61.1289 55.2155 61.2887 54.4897 61.9105 53.994C62.3368 55.9944 62.994 57.8532 64.6105 59.234C64.5039 58.2781 64.2553 57.3752 64.2197 56.4193C64.1664 55.4633 64.5928 54.5782 64.5572 53.6045C65.0369 54.2064 65.3921 54.8614 65.6763 55.5695C65.7474 55.7466 65.7119 56.0829 66.1027 55.9767C66.1737 55.6226 66.2092 55.2686 66.3336 54.9322C66.6533 54.0117 66.6356 53.0735 66.4935 52.1175C66.4402 51.8166 66.3869 51.4979 66.2981 51.073C68.7317 54.3835 72.5864 55.0739 74.2739 54.0825C74.2029 53.9232 74.0607 53.9763 73.9542 53.9763C72.7462 54.0294 71.5561 53.2151 71.2008 52.0821C70.8811 51.073 70.9344 50.0994 71.4317 49.1434C71.7337 48.577 71.8581 48.5416 72.4798 48.7363C73.2969 49.0018 73.9719 49.5152 74.7358 50.0994C74.5759 49.2851 74.2739 48.6478 74.0252 47.8511C74.3805 48.1344 74.6469 48.3114 74.8601 48.5238C75.4108 49.0549 75.8904 49.6568 76.3167 50.2764C76.5121 50.542 76.672 50.8429 77.1516 50.9491C77.2404 50.241 77.0983 49.586 77.0273 48.931C76.9917 48.3468 76.8852 47.7095 76.8141 47.0191ZM75.0733 38.6811C74.6825 38.6457 74.345 38.5926 74.0075 38.5749C73.5456 38.5572 73.0837 38.5572 72.6219 38.6634C72.2489 38.7519 71.8581 38.7342 71.5206 38.5218C71.5561 38.5926 71.6094 38.6634 71.6627 38.7696C71.4495 38.9113 71.2541 39.0352 71.0054 38.8405C69.8153 37.9553 68.3764 37.5481 67.0797 36.8223C68.2165 37.0171 69.2291 37.7075 70.4015 37.796C69.8153 37.3534 69.1935 36.9817 68.3586 36.7338C69.0692 36.5037 69.5843 36.8577 70.0995 36.9109C70.2593 36.84 69.9751 36.663 70.2416 36.6099C70.7034 36.5037 71.1653 36.4683 71.6271 36.5391C72.6929 36.7338 74.2739 37.7252 75.0733 38.6811ZM67.808 33.9014C69.0692 34.3085 70.2771 34.8396 71.4673 35.4592C71.5561 35.5123 71.6271 35.5831 71.7337 35.654C70.6324 36.1142 68.3053 36.1496 66.7244 35.9903C67.4882 35.7779 68.2343 35.9372 68.9981 35.5477C68.6073 35.3707 68.3231 35.2999 67.9856 35.3707C67.6481 35.4415 67.3106 35.4415 66.9553 35.4238C67.0619 35.2468 67.2751 35.3707 67.3816 35.2114C66.7954 34.9458 66.1737 35.1406 65.5875 35.0344C65.5342 34.9458 65.623 34.9635 65.6586 34.9281C65.7119 34.8927 65.7652 34.875 65.7474 34.7334C65.5342 34.5741 65.25 34.7334 64.9836 34.6449C65.0724 34.3794 65.3744 34.4679 65.5342 34.3263C65.4987 34.2377 65.4632 34.1669 65.4277 34.0961C65.6941 34.0784 65.9606 34.043 66.2448 34.0253C65.5875 33.6181 64.8947 33.9014 64.2197 33.8837C65.4277 33.3703 66.6356 33.5119 67.808 33.9014ZM71.9469 19.1904C72.4443 18.1459 73.2436 17.3493 74.043 16.5527C73.5278 17.5795 72.6574 18.3407 71.9469 19.1904ZM72.9772 17.1369C73.1903 16.5704 73.4923 16.0393 73.5101 15.3312C73.8121 15.5613 73.9719 15.6853 74.1673 15.8269C73.8831 16.3757 73.439 16.7474 72.9772 17.1369ZM75.695 19.6861C76.1924 20.3765 76.2101 21.12 76.4588 21.7573C76.7075 22.43 76.8674 23.1204 77.0095 23.8285C77.1516 24.5189 77.347 25.2093 77.4181 26.0591C76.4766 25.5811 75.5884 25.882 74.5937 25.9351C74.9845 25.5811 75.393 25.5457 75.766 25.4749C76.1213 25.4041 76.4944 25.4041 76.5476 24.9084C76.5654 24.8022 76.7608 24.7137 76.8852 24.6074C76.5654 24.4658 76.299 24.3596 76.0325 24.2357C76.6365 23.7577 76.6009 23.3328 75.8726 22.8195C76.0858 22.6955 76.299 22.6247 76.3522 22.3769C76.1213 22.0937 75.8549 22.3415 75.5706 22.3592C76.2279 21.5095 75.8904 20.7305 74.7713 20.5712C75.0022 20.1995 75.5529 20.2526 75.695 19.6861ZM61.6795 7.20565C63.0651 6.887 64.4329 6.40902 65.925 6.12578C65.5165 6.72767 65.0191 7.18794 65.0724 7.94916C67.808 8.01997 70.508 8.37403 73.3324 8.8166C72.6397 9.02903 72.0712 9.17065 71.5383 9.38309C70.9876 9.59552 70.508 9.89646 70.0639 10.3744C70.5436 10.6754 71.0054 10.6754 71.4495 10.6754C72.8883 10.6754 74.345 10.6754 75.7305 11.0648C76.672 11.3304 77.649 11.5605 78.626 12.1978C77.0628 12.7643 75.695 13.437 74.4338 14.3044C74.3805 13.7734 74.345 13.7557 76.1391 12.4811C74.1496 13.083 72.3554 14.1805 70.3659 14.8178C71.1653 14.1805 72.1245 13.8088 72.9949 13.1184C72.5153 12.9944 72.1956 13.1892 71.9114 13.3485C70.7034 14.0035 69.5133 14.6762 68.4297 15.5436C68.0744 15.8269 67.6836 16.057 67.0974 16.234C68.785 14.5523 70.6857 13.4193 72.5153 12.1447C70.6324 12.9944 68.9981 14.1982 67.3994 15.5259C67.506 15.1365 68.6784 13.8442 69.2291 13.4193C69.9574 12.8528 70.8988 12.6581 71.5916 12.0031C70.5258 12.0916 69.7087 12.7643 68.785 13.1892C69.1758 12.6227 69.9574 12.4811 70.3126 11.7907C69.9751 11.7376 69.7797 11.8969 69.5666 12.0385C68.9271 12.4811 68.2698 12.9236 67.6303 13.3485C67.2573 13.5963 66.8843 13.8088 66.4402 13.8973C67.7192 12.8528 69.2113 12.1093 70.4903 11.0648C67.8968 12.4103 65.5698 14.1451 63.1362 15.7384C64.7526 14.3222 66.6178 13.2423 68.181 11.773C67.577 11.9677 67.0086 12.2332 66.4935 12.605C65.0546 13.614 63.6691 14.6762 62.3013 15.7915C61.9282 16.0924 61.5552 16.3757 61.0578 16.4642C62.0703 15.3843 63.225 14.4638 64.3441 13.5078C65.4632 12.5519 66.8487 11.9677 67.9856 10.7993C67.3106 10.8524 66.8843 11.1003 66.4579 11.3835C64.6105 12.5873 62.923 14.0035 61.3065 15.4905C61.1289 15.6676 60.9335 15.8269 60.7203 15.9508C62.0526 14.1805 63.5802 12.605 65.3921 11.3127C64.6105 11.6844 63.7756 11.9854 63.1006 12.5519C62.0526 13.4193 61.1822 14.4638 60.3295 15.5082C60.2052 15.6676 60.0986 15.8623 59.8854 15.9508C60.0098 15.4551 60.5604 14.6585 61.4841 13.7203C62.1414 13.0476 62.8342 12.428 63.4737 11.7553C61.573 12.959 60.2407 14.6939 59.015 16.535C59.2992 15.6676 59.8144 14.9772 60.365 14.2867C61.0578 13.437 61.8039 12.6227 62.5855 11.8615C62.8164 11.6313 63.0829 11.4189 63.0829 11.0117C61.0578 12.7997 59.2992 14.7824 58.1446 17.2608C58.4466 15.9685 59.1216 14.8532 59.8677 13.8088C60.6137 12.7643 61.4841 11.8084 62.1414 10.7108C60.969 11.6313 60.1163 12.8528 59.2637 14.0566C58.3933 15.2781 57.7893 16.6412 57.3452 18.0574C57.2742 17.19 57.8071 15.8623 59.0505 13.5609C59.8321 12.1093 60.7736 10.7639 61.8394 9.507C61.2532 9.87876 60.6848 10.3036 60.294 10.8878C58.8196 13.0299 57.5406 15.2781 56.8834 17.8273C56.8656 17.8981 56.8123 17.9689 56.7057 18.1459C56.9011 15.402 58.1801 13.2246 59.5834 11.1003C58.8551 11.6136 58.3578 12.304 57.8959 13.0476C57.8604 12.9236 57.8248 12.8351 57.7893 12.7289C57.4696 12.9236 57.4696 13.3308 57.1676 13.614C57.3452 12.6758 58.038 12.0208 58.1268 11.1357C57.2742 12.2686 56.8834 13.614 56.3505 14.8886C56.6524 13.2246 57.363 11.7021 58.038 10.162C57.3097 11.118 56.759 12.1978 56.084 13.1715C56.3327 12.1801 56.9189 11.3481 57.2386 10.3921C56.4215 11.3481 55.9952 12.5165 55.4268 13.614C55.6577 12.605 55.9241 11.6313 56.2617 10.64C55.3379 12.0385 54.8228 13.5609 54.7517 15.2427C54.5208 14.8178 54.5386 14.6585 54.7162 13.5609C54.805 12.9767 55.0004 12.4103 54.9649 11.8084C54.4853 12.4988 54.5563 13.3485 54.3254 14.1805C53.7037 13.1361 54.6096 12.2863 54.5919 11.3127C54.1123 11.7553 54.1656 12.3926 53.8991 12.8705C53.6682 12.6404 53.6859 12.6404 53.9879 11.7198C54.1123 11.3481 54.3432 10.9763 54.2721 10.5515C53.6326 11.4189 53.6682 12.605 52.8866 13.5609C52.8688 12.8528 53.2596 12.3394 53.2063 11.7376C52.7267 12.4811 52.7267 13.4016 52.3359 14.1805C52.2648 13.5432 52.4425 12.9059 52.3892 12.2332C51.9984 12.4457 52.1583 12.7643 52.0339 13.0121C51.7319 12.1978 52.3714 9.4539 53.0287 8.8166C53.3129 9.09984 53.0997 9.63092 53.5438 9.84336C55.1248 8.63957 56.5814 7.18795 58.5709 6.55065C58.2334 7.13484 58.0202 7.77214 57.6294 8.37403C58.9972 8.07308 60.294 7.5243 61.6795 7.20565ZM40.8073 5.15213C41.1271 5.08132 41.4113 5.13443 41.6778 5.18753C41.8554 5.18753 42.0153 5.22294 42.1751 5.27605C43.7028 5.54159 45.2127 5.80713 46.6693 6.32051C47.0779 6.46213 47.2555 6.30281 47.1667 5.84254C47.0424 5.13443 46.7581 4.47943 46.4384 3.77132C47.9838 3.84213 49.4049 4.17848 50.7017 4.9397C50.7194 4.9397 50.7549 4.9574 50.7727 4.9574C50.7905 4.9751 50.8082 4.9751 50.826 4.9928C50.8438 4.9751 50.8615 4.9751 50.8793 4.9574C50.8971 4.9397 50.9326 4.9397 50.9503 4.92199C52.2471 4.16078 53.6504 3.82442 55.2136 3.75361C54.8939 4.46172 54.6096 5.11672 54.4853 5.82483C54.3965 6.2674 54.5741 6.44443 54.9827 6.30281C56.3149 5.84254 57.6827 5.577 59.0505 5.32916C59.3525 5.22294 59.6723 5.18753 59.992 5.16983C60.2585 5.11672 60.5249 5.06362 60.8447 5.13443C60.2052 6.19659 59.1571 6.8693 58.411 7.78984C58.6775 7.06403 59.1926 6.53294 59.7255 6.01956C59.8499 5.89564 59.992 5.80713 60.0986 5.66551C59.8499 5.68321 59.6012 5.68321 59.3525 5.75402C59.2104 5.84254 59.0328 5.89564 58.8374 5.93105C58.4821 5.98416 58.1446 6.14348 57.8248 6.28511C57.3808 6.49754 56.9367 6.72767 56.4038 6.99322C56.7057 6.55065 57.2209 6.44443 57.434 6.03727C57.2919 5.93105 57.2031 6.00186 57.1143 6.05497C56.0485 6.76308 55.1425 7.68362 54.2899 8.74579C54.5208 7.70132 55.409 7.15254 55.7643 6.30281C54.805 6.9047 54.2188 7.78984 53.7925 8.8343C53.6149 8.2147 54.3965 7.73673 53.9702 7.15254C53.7215 7.04632 53.6326 7.34727 53.4372 7.31186C53.3662 7.18795 53.5438 7.06403 53.4195 6.94011C53.0464 7.25876 52.78 7.64822 52.6201 8.10849C52.4425 8.58646 52.2826 9.06444 52.105 9.54241C51.9451 9.94957 51.9273 10.4098 51.6609 10.7993C51.6254 9.09984 52.3714 7.5597 52.6734 5.93105C52.1405 6.56835 51.7675 7.29416 51.501 8.05538C51.501 8.03768 51.501 8.01997 51.501 8.00227C51.4655 7.71903 51.4655 7.43578 51.43 7.17024C51.4655 6.83389 51.4833 6.49754 51.43 6.14348C51.3767 6.232 51.3411 6.30281 51.3056 6.39132C51.2523 6.16119 51.1457 5.93105 51.0214 5.71862C50.9326 5.86024 50.8793 5.98416 50.826 6.09037C50.7727 5.98416 50.7194 5.87794 50.6306 5.71862C50.4885 5.93105 50.3997 6.16119 50.3464 6.39132C50.3109 6.30281 50.2576 6.232 50.222 6.14348C50.1687 6.49754 50.1865 6.85159 50.222 7.17024C50.2043 7.45349 50.1865 7.73673 50.151 8.00227C50.151 8.01997 50.151 8.03768 50.151 8.05538C49.8845 7.31186 49.5293 6.60375 48.9964 5.96646C49.2983 7.59511 50.0444 9.13525 50.0089 10.8347C49.7424 10.463 49.7247 10.0027 49.5648 9.57782C49.3872 9.09984 49.2273 8.62187 49.0496 8.14389C48.872 7.68362 48.6233 7.29416 48.2503 6.97551C48.1259 7.09943 48.3036 7.22335 48.2325 7.34727C48.0371 7.38268 47.9483 7.08173 47.6996 7.18794C47.2733 7.75443 48.0549 8.23241 47.8772 8.86971C47.4509 7.82524 46.8647 6.94011 45.9055 6.33821C46.2608 7.20565 47.1489 7.73673 47.3799 8.78119C46.5095 7.71903 45.6213 6.79848 44.5555 6.09037C44.4666 6.03727 44.3778 5.96646 44.2357 6.07267C44.4489 6.47984 44.964 6.58605 45.266 7.02862C44.7331 6.76308 44.289 6.53294 43.8449 6.32051C43.5252 6.16119 43.1877 6.00186 42.8324 5.96646C42.7258 5.94875 42.6192 5.93105 42.5127 5.89564C42.4416 5.89564 42.3705 5.87794 42.2995 5.87794C42.1396 5.86024 41.9797 5.84254 41.8376 5.80713C41.7488 5.78943 41.6778 5.75402 41.5889 5.73632C41.6955 5.86024 41.8376 5.96646 41.9442 6.07267C42.4771 6.58605 42.9923 7.11713 43.2587 7.84295C42.4949 6.887 41.4468 6.21429 40.8073 5.15213ZM24.6425 23.8108C24.7846 23.1027 24.9445 22.4123 25.1932 21.7396C25.4419 21.1023 25.4596 20.3765 25.957 19.6684C26.0991 20.2349 26.6498 20.1818 26.8629 20.5535C25.7616 20.7128 25.4063 21.4741 26.0636 22.3415C25.7971 22.3238 25.5307 22.076 25.282 22.3592C25.3353 22.607 25.5484 22.6778 25.7616 22.8018C25.0333 23.2974 24.9978 23.74 25.6017 24.218C25.3353 24.3419 25.0688 24.4481 24.7491 24.5897C24.8734 24.696 25.0688 24.7845 25.0866 24.8907C25.1399 25.3864 25.5129 25.3864 25.8682 25.4572C26.2412 25.5457 26.6498 25.5634 27.0406 25.9174C26.0458 25.882 25.1399 25.5634 24.2162 26.0414C24.305 25.1916 24.5004 24.5012 24.6425 23.8108ZM27.3959 28.7499C26.4899 28.4666 25.5484 28.3958 24.5892 28.4312C24.4116 28.4312 24.2162 28.4312 24.1807 28.626C24.1274 28.8915 24.3583 28.8915 24.5359 28.9623C24.7313 29.0508 25.0333 28.9446 25.1221 29.2633C24.9267 29.2633 24.7313 29.2456 24.5537 29.2633C24.3938 29.281 24.2517 29.3341 24.2695 29.5288C24.2695 29.6704 24.3405 29.7766 24.4826 29.7943C24.9622 29.8475 25.4063 30.113 25.8682 30.2546C25.8149 30.3077 25.7616 30.3608 25.7083 30.4139C25.4774 30.3962 25.2287 30.3608 24.9978 30.3254C24.8024 30.3077 24.5182 30.2369 24.5004 30.5379C24.4649 30.8034 24.6958 30.8211 24.909 30.8034C25.0511 30.8034 25.1399 30.8388 25.2109 30.9096C25.0333 31.0866 24.8557 31.2637 24.678 31.423C24.2872 31.5469 24.0563 31.7948 23.9497 32.1488C23.7366 32.3612 23.5412 32.556 23.328 32.7684C23.4879 30.8211 23.6477 28.8738 24.0918 26.9619C24.3228 27.5107 24.8201 27.5461 25.2642 27.6346C26.1169 27.7762 26.9162 28.0949 27.6445 28.5198C27.5202 28.626 27.4491 28.6968 27.3959 28.7499ZM28.1242 28.0418C27.911 27.9179 27.6801 27.7939 27.4669 27.6523C27.7867 27.67 28.0886 27.7408 28.3729 27.7939C28.284 27.8825 28.213 27.971 28.1242 28.0418ZM30.6111 24.8553C30.6821 24.8907 30.7532 24.9261 30.842 24.9615C30.8242 24.9261 30.7887 24.9084 30.7709 24.873C30.8775 24.8907 30.9841 24.9084 31.0907 24.9615C31.0374 25.227 30.8953 25.4218 30.7354 25.5634C30.2203 26.0414 29.7051 26.537 29.19 27.015C28.6926 26.4485 28.1597 25.9174 27.7689 25.2979C28.4794 25.5457 28.9058 26.1653 29.5452 26.5016C29.0301 25.5988 28.1775 25.0146 27.4314 24.2888C27.8577 24.2003 28.1242 24.395 28.4439 24.6251V23.9878C28.8347 24.0587 29.19 24.2003 29.5452 24.3596C29.4209 24.4304 29.3143 24.5012 29.19 24.572C28.9946 24.6783 28.7104 24.7491 28.7814 25.1208C29.4031 25.2093 29.9893 24.8376 30.6111 24.8553ZM27.4847 15.8092C27.6623 15.6676 27.8222 15.5436 28.1419 15.3135C28.1775 16.0216 28.4617 16.5527 28.6748 17.1192C28.213 16.7474 27.7689 16.3757 27.4847 15.8092ZM29.7051 19.1904C28.9946 18.323 28.1242 17.5795 27.609 16.5527C28.4084 17.367 29.2077 18.1636 29.7051 19.1904ZM29.1189 22.8195C29.0301 22.8726 28.959 22.9257 28.8702 22.9611C28.6748 22.7132 28.4084 22.5008 28.1775 22.1822C28.5505 22.3592 28.8347 22.607 29.1189 22.8195ZM28.4617 21.7927C28.515 21.7219 28.5505 21.6334 28.6038 21.5626C29.0834 21.7219 29.4209 22.076 29.7939 22.4123C29.6518 22.5008 29.5097 22.5716 29.3676 22.6601C29.1012 22.3592 28.7637 22.0937 28.4617 21.7927ZM28.4439 23.2797C28.4084 23.3328 28.3729 23.4037 28.3729 23.4922C28.1775 23.386 27.9821 23.2443 27.8044 23.085C28.0709 23.0142 28.2485 23.1381 28.4439 23.2797ZM31.4992 22.6601C31.517 22.6955 31.5525 22.731 31.5703 22.7664C31.4992 22.9611 31.3571 23.0319 31.2506 23.1381C30.8065 23.5276 30.3268 23.8639 29.8295 24.1826C29.4031 23.9701 28.9591 23.7931 28.5505 23.5807C28.6748 23.5453 28.7814 23.5099 28.888 23.4745C28.9591 23.4745 29.0123 23.4745 29.0834 23.4568C29.0834 23.4391 29.0656 23.4214 29.0656 23.4037C29.2433 23.3328 29.4387 23.262 29.6163 23.1912C29.6874 23.2266 29.7584 23.262 29.8472 23.2974C29.8117 23.2443 29.7762 23.1912 29.7584 23.1381C29.9893 23.0496 30.2025 22.9611 30.4334 22.8903C30.4867 22.9257 30.54 22.9434 30.5933 22.9788C30.5578 22.9434 30.5222 22.908 30.5045 22.8726C30.8242 22.7841 31.144 22.6955 31.4992 22.6601ZM30.5933 21.9343C30.3979 22.0582 30.1847 22.1822 29.9893 22.2884C29.2788 21.4741 28.5683 20.6597 27.609 20.1109C28.4261 20.1109 28.7637 20.8545 29.4564 21.1023C28.9768 20.5712 28.515 20.0401 27.9821 19.4559C28.6571 19.5622 28.9591 20.1641 29.6341 20.3411C29.3321 19.987 29.1189 19.7215 28.9058 19.4736C28.5327 19.0134 28.5327 19.0134 28.4617 18.5354C29.3854 19.5622 30.167 20.642 30.913 21.7396C30.8065 21.8104 30.6999 21.8812 30.5933 21.9343ZM33.2223 15.5613C32.1565 14.6939 30.9486 14.0212 29.7406 13.3662C29.4564 13.2069 29.1367 13.0299 28.6571 13.1361C29.5275 13.8265 30.5045 14.1982 31.2861 14.8355C29.2966 14.2159 27.5024 13.1184 25.5129 12.4988C27.307 13.7734 27.2715 13.7911 27.2182 14.3222C25.9392 13.4547 24.5892 12.7643 23.026 12.2155C24.0208 11.5782 24.98 11.3481 25.9215 11.0825C27.3248 10.6931 28.7637 10.6931 30.2025 10.6931C30.6644 10.6931 31.1262 10.6931 31.5881 10.3921C31.1617 9.91417 30.6644 9.59552 30.1137 9.40079C29.5808 9.18835 29.0123 9.04673 28.3196 8.8343C31.144 8.39173 33.8263 8.03768 36.5796 7.96687C36.6329 7.20565 36.1355 6.72767 35.727 6.14348C37.2191 6.42673 38.5691 6.9047 39.9725 7.22335C41.358 7.542 42.6548 8.10849 44.0226 8.44484C43.6318 7.84295 43.4364 7.20565 43.0811 6.62146C45.0706 7.25876 46.5272 8.71038 48.1082 9.91417C48.5523 9.70173 48.3213 9.17065 48.6233 8.88741C49.2806 9.52471 49.9378 12.2686 49.6181 13.083C49.4937 12.8528 49.6536 12.5165 49.2628 12.304C49.2095 12.9767 49.4049 13.614 49.3161 14.2513C48.9253 13.4547 48.9253 12.5519 48.4457 11.8084C48.3746 12.4103 48.7832 12.9059 48.7654 13.6317C48.0016 12.6758 48.0371 11.5074 47.3799 10.6223C47.3088 11.0648 47.5397 11.4189 47.6641 11.7907C47.9661 12.7112 47.9838 12.6935 47.7529 12.9413C47.4864 12.4457 47.5397 11.8261 47.0601 11.3835C47.0424 12.3571 47.9483 13.2069 47.3266 14.2513C47.0957 13.4193 47.1489 12.5696 46.6871 11.8792C46.6693 12.4811 46.847 13.0476 46.9358 13.6317C47.1134 14.7293 47.1312 14.8886 46.9003 15.3135C46.8292 13.614 46.3141 12.1093 45.3903 10.7108C45.7101 11.6844 45.9943 12.6758 46.2252 13.6849C45.6568 12.5873 45.2482 11.4189 44.4134 10.463C44.7331 11.4189 45.3193 12.2686 45.568 13.2423C44.893 12.2509 44.3423 11.1888 43.614 10.2328C44.2712 11.773 44.9995 13.2954 45.3015 14.9594C44.7686 13.6849 44.3778 12.3394 43.5252 11.2065C43.614 12.0916 44.3245 12.7466 44.4844 13.6849C44.1824 13.4016 44.1824 13.0121 43.8627 12.7997C43.8272 12.9059 43.7916 12.9944 43.7561 13.1184C43.2942 12.3571 42.7791 11.6844 42.0686 11.1711C43.4719 13.2954 44.7509 15.4728 44.9463 18.2168C44.8397 18.0397 44.7864 17.9689 44.7686 17.8981C44.1114 15.2781 42.8324 13.0299 41.358 10.8878C40.9672 10.3036 40.3988 9.87876 39.8126 9.507C40.8784 10.7816 41.8199 12.1093 42.6015 13.5609C43.8449 15.8623 44.3778 17.19 44.3068 18.0574C43.8627 16.6235 43.2587 15.2604 42.3883 14.0566C41.5357 12.8528 40.683 11.6313 39.5106 10.7108C40.1679 11.8261 41.0383 12.7643 41.7843 13.8088C42.5482 14.8709 43.2054 15.9685 43.5074 17.2608C42.3528 14.7824 40.5942 12.7997 38.5691 11.0117C38.5514 11.4012 38.8356 11.6313 39.0665 11.8615C39.8481 12.6404 40.5942 13.437 41.287 14.2867C41.8376 14.9594 42.3528 15.6676 42.637 16.535C41.4113 14.6939 40.079 12.959 38.1783 11.7553C38.8178 12.428 39.5284 13.0653 40.1679 13.7203C41.0916 14.6762 41.6422 15.4728 41.7666 15.9508C41.5534 15.8623 41.4468 15.6676 41.3225 15.5082C40.4698 14.4638 39.5994 13.4193 38.5514 12.5519C37.8764 11.9854 37.0592 11.6844 36.2599 11.3127C38.0895 12.605 39.5994 14.1805 40.9317 15.9508C40.7185 15.8269 40.5231 15.6499 40.3455 15.4905C38.729 13.9858 37.0592 12.5696 35.1941 11.3835C34.7677 11.118 34.3414 10.8524 33.6664 10.7993C34.8033 11.95 36.1888 12.5519 37.3079 13.5078C38.427 14.4638 39.5817 15.3843 40.5942 16.4642C40.0968 16.3757 39.7238 16.0924 39.3507 15.7915C37.9829 14.6762 36.5974 13.614 35.1585 12.605C34.6434 12.2332 34.075 11.9677 33.471 11.773C35.0342 13.2423 36.8994 14.3399 38.5158 15.7384C36.0822 14.1451 33.7552 12.4103 31.1617 11.0648C32.4229 12.127 33.9328 12.8528 35.2118 13.8973C34.7677 13.7911 34.3947 13.5963 34.0217 13.3485C33.3822 12.9059 32.7249 12.4811 32.0854 12.0385C31.8723 11.8969 31.6946 11.7376 31.3394 11.7907C31.6946 12.4811 32.4585 12.6227 32.867 13.1892C31.9433 12.7643 31.1262 12.0916 30.0604 12.0031C30.7532 12.6581 31.6946 12.8705 32.4229 13.4193C32.9736 13.8442 34.1282 15.1365 34.2526 15.5259C32.6539 14.2159 31.0196 12.9944 29.1189 12.1624C30.9486 13.437 32.867 14.5877 34.5368 16.2517C33.9684 16.0924 33.5776 15.8623 33.2223 15.5613ZM37.5389 18.5C36.8105 18.022 36.1533 17.4555 35.5849 16.7828C35.3006 16.4465 35.0164 16.1101 34.9454 15.6499C34.8921 15.2604 34.4302 15.0657 34.2881 14.6231C34.6612 14.6762 34.9276 14.8532 35.2118 14.9772C36.2243 15.402 37.2191 15.8446 38.2316 16.2872C38.9422 16.6058 39.5461 17.0484 40.0968 17.6857C40.1323 17.3847 39.8481 17.2077 39.9902 16.9068C41.1626 17.2785 42.2284 17.8804 43.2765 18.6062C43.2942 18.1105 43.2942 18.1105 42.8324 17.3139C43.2587 17.4732 43.4186 17.8627 43.7561 18.0574C44.1291 18.2699 44.4134 18.6062 44.662 18.9426C44.893 19.2612 45.1061 19.5799 45.4259 20.0224C45.5325 18.7832 45.568 17.668 45.7634 16.5881C46.0298 16.6058 46.1364 16.7651 46.2252 16.9776C46.2963 17.1369 46.3851 17.2962 46.5805 17.2785C46.8292 17.2785 46.8647 17.0661 46.9358 16.889C47.2555 15.9508 47.5753 15.0126 47.895 14.0743C47.9483 13.8973 48.0194 13.738 48.0904 13.5255C48.4812 13.8265 48.7121 14.2159 48.9964 14.5346C49.4227 14.9949 49.5648 14.9772 49.8135 14.3753C50.151 13.5786 50.453 12.782 50.8082 12.0031C51.1457 12.782 51.4655 13.5963 51.803 14.3753C52.0517 14.9772 52.1938 14.9949 52.6201 14.5346C52.9221 14.2159 53.153 13.8265 53.5261 13.5255C53.5971 13.738 53.6682 13.8973 53.7215 14.0743C54.0412 15.0126 54.3609 15.9508 54.6807 16.889C54.734 17.0661 54.7873 17.2785 55.036 17.2785C55.2491 17.2785 55.3202 17.1369 55.3912 16.9776C55.4801 16.7828 55.5866 16.6058 55.8531 16.5881C56.0485 17.668 56.084 18.7655 56.1906 20.0224C56.4926 19.5799 56.7235 19.2435 56.9544 18.9426C57.2031 18.6062 57.4873 18.2699 57.8604 18.0574C58.1979 17.8627 58.3578 17.4909 58.7841 17.3139C58.34 18.1105 58.34 18.1105 58.34 18.6062C59.388 17.8981 60.4539 17.2962 61.6262 16.9068C61.7506 17.19 61.4664 17.367 61.5197 17.6857C62.0703 17.0484 62.6743 16.5881 63.3848 16.2872C64.3796 15.8446 65.3921 15.402 66.4046 14.9772C66.6889 14.8532 66.9553 14.6939 67.3284 14.6231C67.1862 15.0657 66.7244 15.2604 66.6711 15.6499C66.6 16.1278 66.3336 16.4465 66.0316 16.7828C65.4632 17.4555 64.8059 18.022 64.0776 18.5C61.5197 20.1464 60.0808 22.5362 59.2815 25.4041C58.8018 27.1566 58.2867 28.8738 57.5406 30.5379C57.3808 30.8742 57.1854 31.1575 56.9011 31.423C57.3275 30.5556 57.7005 29.6704 58.0025 28.7676C58.3045 27.847 58.6953 26.9442 58.6064 25.9351C58.0558 27.1035 57.9314 28.4312 57.2919 29.5642C57.7893 26.9265 58.2156 24.2888 58.9972 21.7219C58.5176 22.5893 58.0913 23.4922 57.7005 24.3773C57.3097 25.2624 57.0788 26.2007 56.8123 27.1212C56.9367 24.6606 57.7538 22.4123 58.8551 20.2526C57.7005 22.1114 56.7413 24.0587 56.4215 26.2538C56.4215 24.6251 56.99 23.1381 57.363 21.5803C56.9367 22.1114 56.6702 22.7487 56.4215 23.3683C56.4571 22.6955 56.759 22.076 56.9011 21.4032C56.5814 21.5095 56.6702 21.8458 56.4571 21.9697C56.3682 21.775 56.5814 21.5449 56.4393 21.3678C56.2439 21.3678 56.3149 21.6688 56.1373 21.6334C55.8709 21.4918 56.013 21.1731 55.7998 21.0315C55.5866 21.1908 55.7998 21.5272 55.5156 21.6865C55.4445 21.3324 55.5866 21.0138 55.5866 20.7128C55.5866 20.4296 55.5866 20.1464 55.5866 19.8631C55.409 20.2703 55.4623 20.6951 55.2491 21.2262C55.1781 20.6243 55.1958 20.1818 55.2314 19.7215C55.2847 19.2612 55.4801 18.8009 55.1958 18.3761C54.8939 18.3761 55.0004 18.7301 54.7873 18.7478C54.6807 18.5885 54.5919 18.4115 54.3609 18.5177C54.2366 18.3053 54.4498 17.9866 54.0412 17.845C53.757 18.323 54.0412 18.9249 53.7037 19.4382C53.6682 18.7124 54.0234 18.0574 53.7392 17.4201C53.4905 17.4024 53.4905 17.6503 53.3307 17.7565C53.2951 17.3493 53.4195 17.013 53.1886 16.5704C52.9043 17.5263 53.0464 18.4646 52.7622 19.3143C52.478 18.3938 53.0642 17.4378 52.6379 16.4996C52.3537 16.7828 52.4247 17.1192 52.3537 17.4555C52.2826 17.0661 52.407 16.6412 52.0339 16.3757C51.9096 16.3757 51.9273 16.5704 51.7497 16.5173C51.6431 16.4111 51.7497 16.1632 51.4477 16.0216C51.3589 17.1546 51.501 18.2345 51.43 19.332C51.3234 19.2435 51.2701 19.1373 51.2346 19.0311C51.3589 17.7742 51.3056 16.5173 51.2523 15.2604C51.1635 15.3666 51.1102 15.4551 51.0747 15.5613C51.0569 15.3312 51.0036 15.1011 50.7905 14.8886C50.5773 15.1011 50.524 15.3312 50.5063 15.5613C50.4707 15.4551 50.4174 15.3489 50.3286 15.2604C50.2753 16.5173 50.222 17.7742 50.3464 19.0311C50.3109 19.1373 50.2576 19.2435 50.151 19.332C50.0799 18.2345 50.222 17.1546 50.1332 16.0216C49.8312 16.1455 49.9378 16.4111 49.8312 16.5173C49.6536 16.5527 49.6714 16.358 49.547 16.3757C49.174 16.6412 49.2983 17.0484 49.2273 17.4555C49.1562 17.1192 49.2273 16.7828 48.9431 16.4996C48.5167 17.4378 49.1029 18.3938 48.8187 19.3143C48.5345 18.4646 48.6766 17.5263 48.3924 16.5704C48.1792 16.9953 48.3036 17.3493 48.2503 17.7565C48.0904 17.6503 48.0904 17.4024 47.8417 17.4201C47.5575 18.0574 47.895 18.7124 47.8772 19.4382C47.5397 18.9072 47.824 18.3053 47.5397 17.845C47.1312 17.9866 47.3443 18.3053 47.22 18.5177C46.9891 18.4115 46.9003 18.5708 46.7937 18.7478C46.5627 18.7124 46.6871 18.3761 46.3851 18.3761C46.1009 18.8009 46.2963 19.2612 46.3496 19.7215C46.4029 20.1641 46.4029 20.6243 46.3318 21.2262C46.1187 20.6951 46.1897 20.2526 45.9943 19.8631C45.9943 20.1464 45.9943 20.4296 45.9943 20.7128C45.9943 21.0315 46.1364 21.3324 46.0654 21.6865C45.7811 21.5272 46.0121 21.1908 45.7811 21.0315C45.568 21.1554 45.7101 21.4918 45.4436 21.6334C45.266 21.6688 45.3371 21.3855 45.1417 21.3678C44.9996 21.5626 45.2127 21.775 45.1239 21.9697C44.893 21.8458 44.9818 21.5095 44.6798 21.4032C44.8219 22.0937 45.1239 22.6955 45.1594 23.3683C44.9107 22.7487 44.6443 22.1114 44.218 21.5803C44.591 23.1204 45.1594 24.6251 45.1594 26.2538C44.8397 24.0587 43.8627 22.1291 42.7258 20.2526C43.8272 22.4123 44.6443 24.6606 44.7686 27.1212C44.4844 26.2007 44.2712 25.2624 43.8804 24.3773C43.4896 23.4745 43.0633 22.5893 42.5837 21.7219C43.3653 24.2888 43.7739 26.9442 44.289 29.5642C43.6495 28.4312 43.5252 27.1035 42.9745 25.9351C42.8857 26.9442 43.2765 27.847 43.5785 28.7676C43.8804 29.6704 44.2535 30.5556 44.6798 31.423C44.3956 31.1752 44.2002 30.8919 44.0403 30.5379C43.2942 28.8915 42.7791 27.1566 42.2995 25.4041C41.5357 22.5362 40.0968 20.1286 37.5389 18.5ZM34.4302 27.847C34.7322 28.0949 35.0697 28.3073 35.425 28.5198C35.4428 28.6437 35.4783 28.7676 35.5493 28.8915C35.123 28.6791 34.6967 28.4312 34.2881 28.1834C34.3414 28.0595 34.3947 27.9533 34.4302 27.847ZM33.7019 29.6527C33.7019 29.635 33.7197 29.635 33.7197 29.6173C34.2881 29.9006 34.8743 30.1484 35.4605 30.3608C35.8336 30.5025 36.2243 30.6087 36.6151 30.6972C36.8638 30.7503 37.1658 30.8388 37.379 30.5379C37.1836 30.1838 36.8283 30.0776 36.4908 29.9891C35.6026 29.7412 34.7855 29.3695 33.9861 28.9446C34.0394 28.8207 34.0927 28.6968 34.1282 28.5906C35.425 29.3518 36.8461 29.9183 37.379 29.7058C37.3435 29.5642 37.2902 29.5111 37.2013 29.4934C36.6684 29.3695 36.1888 29.1925 35.7092 28.9623C35.798 28.9092 35.8513 28.8384 35.8868 28.7676C36.4553 29.0154 37.0948 29.1039 37.7165 29.1748C37.9297 29.1925 38.1428 29.157 38.3027 28.98C37.9474 28.7676 37.4678 28.9269 37.0237 28.5729C38.4981 28.6791 39.5639 28.0595 40.5231 27.192C40.8606 26.8734 41.2337 26.5902 41.6778 26.4308C41.8021 26.3777 41.962 26.3069 42.0863 26.5547C41.3758 27.0858 41.9442 27.7939 41.9087 28.4666C41.6422 28.2896 41.7843 27.9356 41.4824 27.7762C41.1804 28.2542 41.5712 28.6968 41.5179 29.157C41.0738 28.8915 41.1093 28.3073 40.7185 27.9887C40.7185 28.5906 40.9317 29.1216 41.0738 29.7943C40.6652 29.4049 40.6475 28.9446 40.2922 28.5375V29.9006C40.079 29.6173 40.079 29.3164 39.8126 29.157C39.4573 30.113 40.2212 30.8388 40.2034 31.7062C39.6172 31.1929 39.7771 30.3254 39.2974 29.6881C39.0132 30.3608 39.5461 30.8742 39.4751 31.4407C39.031 31.423 39.0843 31.0335 38.9422 30.8034C38.7645 30.9627 38.9955 31.1752 38.9066 31.3168C37.9297 31.7948 37.0415 32.5029 35.8691 32.3612C36.5619 32.2196 37.2369 32.0426 37.7698 31.3168C37.2902 31.4761 36.8994 31.5115 36.3842 31.4407C36.7395 31.3345 37.0415 31.3522 37.2546 31.1398C36.2599 30.8919 35.2651 30.7149 34.3236 30.3431C34.0572 30.2369 33.7907 30.113 33.5421 29.9891C33.6131 29.8652 33.6486 29.7589 33.7019 29.6527ZM36.2243 34.0607C36.1888 34.1492 36.1533 34.22 36.1178 34.2908C36.2776 34.4325 36.5796 34.344 36.6684 34.6095C36.4197 34.698 36.1178 34.5387 35.9046 34.698C35.8691 34.8219 35.9401 34.8573 35.9934 34.8927C36.029 34.9104 36.1178 34.8927 36.0645 34.999C35.4783 35.1052 34.8566 34.9104 34.2704 35.176C34.3769 35.3353 34.5901 35.2114 34.6967 35.3884C34.3236 35.4061 33.9861 35.4061 33.6664 35.3353C33.3289 35.2645 33.0447 35.3353 32.6539 35.5123C33.4177 35.9018 34.1638 35.7425 34.9276 35.9549C33.3467 36.1142 31.0196 36.0788 29.9183 35.6185C30.0071 35.5477 30.0959 35.4769 30.1847 35.4238C31.3571 34.8042 32.5828 34.2731 33.844 33.866C35.0164 33.4765 36.2243 33.3349 37.4323 33.8129C36.7573 33.8129 36.0645 33.5473 35.4072 33.9545C35.6914 34.0076 35.9579 34.043 36.2243 34.0607ZM32.8315 29.1393C32.9026 29.281 32.9203 29.458 32.9203 29.6173C32.7249 29.5111 32.5473 29.4049 32.3519 29.2987C32.494 29.1925 32.6361 29.1216 32.8315 29.1393ZM32.1032 29.5288C32.121 29.5111 32.1032 29.5111 32.1032 29.5288C32.3697 29.7766 32.6716 30.0245 32.9203 30.3608C32.494 30.2369 32.1743 29.9891 31.8723 29.7235C31.9611 29.6527 32.0321 29.5819 32.1032 29.5288ZM28.2307 33.8306C28.6393 33.866 29.0301 33.8483 29.4209 33.7775C29.1012 33.7067 28.7814 33.6181 28.4794 33.5473C28.5505 33.4765 28.6215 33.388 28.6748 33.3172C29.5097 33.1933 30.3801 33.3526 31.2328 33.211C30.5755 32.91 29.8472 32.8746 29.1544 32.7684C29.2788 32.6268 29.4031 32.4852 29.5275 32.3435C29.8295 32.4498 30.1314 32.6622 30.54 32.5737C30.2913 32.3435 30.0426 32.1842 29.7762 32.0426C29.936 31.8656 30.0782 31.6885 30.238 31.4938C30.4512 31.5646 30.6644 31.6531 30.8775 31.7417C30.7887 31.4584 30.5222 31.4407 30.469 31.2991C30.469 31.2814 30.4512 31.2637 30.4512 31.246C30.5045 31.1752 30.5755 31.1044 30.6288 31.0335C30.9486 30.6618 31.2861 30.29 31.6413 29.9537C32.5828 30.7503 33.7374 31.2283 35.052 31.5292C34.1993 31.6354 33.471 31.4407 32.7605 31.1398C32.3874 30.9981 32.0321 30.6795 31.4992 30.9273C31.9256 31.8479 32.8137 32.0072 33.5953 32.255C33.2756 32.556 32.7249 32.2904 32.3874 32.7861C33.2223 32.8746 34.0039 32.8923 34.75 33.0871C33.4532 33.565 32.1743 33.9191 30.8242 34.0607C29.8828 34.1492 28.9413 34.2023 27.9998 34.1315C28.0531 34.043 28.1419 33.9368 28.2307 33.8306ZM30.0249 36.5568C30.4867 36.486 30.9486 36.5214 31.4104 36.6276C31.6769 36.6807 31.3927 36.8577 31.5525 36.9286C32.0677 36.8754 32.5651 36.5214 33.2934 36.7515C32.4585 36.9994 31.8367 37.3711 31.2506 37.8137C32.4229 37.7075 33.4355 37.0348 34.5723 36.84C33.2756 37.5659 31.8545 37.973 30.6466 38.8582C30.3979 39.0352 30.2025 38.929 29.9893 38.7873C30.0426 38.6811 30.0959 38.6103 30.1314 38.5395C29.7939 38.7519 29.4031 38.7696 29.0301 38.6811C28.5683 38.5749 28.1064 38.5749 27.6445 38.5926C27.307 38.6103 26.9518 38.6634 26.5787 38.6988C27.3781 37.7252 28.959 36.7338 30.0249 36.5568ZM23.5234 47.3909C23.3102 47.4794 23.1326 47.6918 22.8484 47.6387C23.0083 47.1961 23.1681 46.8067 23.2569 46.3995C23.6655 44.3991 23.6122 42.381 23.3102 40.3629C23.2925 40.2036 23.2747 40.0619 23.2392 39.9026C23.4346 39.6548 23.63 39.4069 23.8254 39.1414V39.1591C24.305 39.2476 24.6603 38.8227 25.1399 38.805C24.8734 39.2122 24.5182 39.46 24.0918 39.6194C23.7721 39.7433 23.4879 39.9026 23.3991 40.239C23.5589 40.416 23.8431 40.3098 23.9675 40.5045C23.7188 41.1241 23.5767 41.7437 24.1274 42.2925C24.1807 42.3633 24.2339 42.4518 24.1807 42.5226C23.8787 42.9298 24.2162 43.2484 24.2872 43.6202C23.8076 44.2752 23.8076 44.3637 24.2695 44.7178C23.9497 45.4967 23.9497 45.4967 24.1451 45.8507C24.3405 45.8861 24.4471 45.656 24.678 45.6737C24.6247 45.9215 24.4471 46.1517 24.6425 46.4172C25.2109 46.2225 25.5662 45.7799 26.1169 45.3551C25.9215 45.8507 25.6373 46.134 25.4596 46.4703C25.4241 46.5411 25.3708 46.612 25.282 46.612C24.5537 46.6474 24.1096 47.1784 23.5234 47.3909ZM25.6906 48.1167C25.9392 48.2229 26.0636 47.8866 26.33 48.0459C25.7261 48.7717 25.4063 49.6745 24.8379 50.418C24.8912 49.5683 24.98 48.7363 25.1044 47.9043C25.1221 47.7449 25.1399 47.5679 25.2642 47.4263C25.957 46.612 26.7386 45.8861 27.5557 45.1957C26.8629 46.134 25.9748 46.9306 25.6906 48.1167ZM29.6518 42.5757C28.2307 43.1776 26.7919 42.9652 25.4419 42.204C25.3175 42.1332 25.1044 42.1155 25.1044 41.8499C25.4063 41.8499 25.6906 41.8676 25.9925 41.8499C27.0228 41.7968 27.9998 41.6198 28.8525 40.9648C29.2433 40.6638 29.6163 40.3806 29.9716 40.0265C30.7709 39.2653 31.5881 38.5218 32.6539 38.0792C34.0572 37.4773 35.496 37.0171 37.0237 36.8223C37.4145 36.7692 37.8053 36.8223 38.3027 36.8223C37.7343 37.2826 37.1836 37.5836 36.6507 37.8845C36.1 38.1854 35.5138 38.3802 34.9454 38.6811C35.9579 38.5395 36.8105 38.0261 37.7165 37.6013C37.3435 38.0792 36.8994 38.4687 36.3665 38.7342C35.3006 39.283 34.2171 39.7964 33.0269 40.0973C32.7605 40.1682 32.4762 40.2213 32.2453 40.5222C33.0269 40.5045 33.6664 40.1327 34.3769 40.1327C33.169 40.6461 31.819 40.7878 30.7176 41.5667C31.8367 41.1772 33.0091 41.0533 34.1282 40.7169C35.2651 40.3806 36.2954 39.8318 37.379 39.3361C35.9579 40.2036 34.6079 41.2303 32.9559 41.6552C34.519 41.5136 35.8868 40.8586 37.2191 40.0796C36.9882 40.3983 36.704 40.6284 36.4375 40.894C35.6559 41.6552 34.6789 41.9738 33.6309 41.9561C32.2631 41.9561 30.9486 42.0269 29.6518 42.5757ZM38.7645 36.2736C38.6935 36.2381 38.6224 36.2027 38.4626 36.1142C39.2442 35.6363 39.8659 34.9813 40.9139 35.1583C40.7896 35.4061 40.5587 35.5831 40.7185 35.7956C40.9139 36.0434 41.1449 35.831 41.3403 35.7602C41.5001 35.7071 41.6422 35.6008 41.7843 35.53C41.8909 35.4769 42.0153 35.4238 42.1396 35.5831C41.4646 36.0257 40.5764 36.185 40.1501 36.9994C40.985 36.7692 41.6245 36.0788 42.5127 35.9726C41.5357 36.5568 40.8073 37.3711 40.1501 38.274C41.5179 37.4773 42.708 36.3975 44.3601 36.2204C43.2232 36.6807 42.264 37.3711 41.5889 38.4156C42.6192 37.8845 43.5252 37.1056 44.6798 36.84C43.685 37.5659 42.8502 38.4156 42.1219 39.3892C43.0278 38.7696 43.8627 38.0792 44.9285 37.7429C44.2002 38.3625 43.614 39.0883 43.01 39.8141C43.987 39.2122 44.9463 38.6103 45.9588 38.0615C46.2785 37.8845 46.4029 37.9553 46.4917 38.274C45.5502 38.6457 44.7686 39.1945 44.3068 40.0973C45.2482 39.8141 45.941 38.9644 47.0424 39.0529C45.5147 40.0796 44.4134 41.4605 43.6673 43.1068C43.614 42.6996 43.614 42.3279 43.614 41.9384C43.614 41.549 43.8094 41.1595 43.6495 40.6107C42.9034 40.8055 42.3528 41.2834 41.7666 41.6552C41.1626 42.0446 40.6297 42.5226 40.0435 42.9829C40.5231 42.0092 40.7718 40.9648 41.056 39.8495C40.1679 39.8495 39.4396 40.2921 38.5869 40.5399C38.9244 39.8318 39.3685 39.283 39.7593 38.7165C40.0435 38.3094 39.9192 38.1323 39.4396 38.0615C39.0488 38.0084 38.6757 38.2032 38.2139 38.1677C38.427 37.7783 38.6935 37.5127 38.9599 37.2472C39.5639 36.6276 39.5461 36.5568 38.7645 36.2736ZM42.1041 46.488C42.4061 45.2134 42.3883 43.9388 42.9034 42.7882C42.5127 44.6824 42.4594 46.612 42.1396 48.5238C42.9923 46.4703 43.916 44.4522 44.9463 42.3456C44.893 44.346 43.0456 50.2764 42.0863 51.6749C41.9442 51.6218 41.9442 51.5333 41.9087 51.4625C41.6245 50.7013 41.5889 49.9047 41.4824 49.108C41.2692 47.5502 41.2514 45.9924 41.5712 44.4522C41.7311 43.6733 42.0153 42.9475 42.5837 42.2217C42.4061 43.0183 42.2284 43.691 42.0863 44.3637C41.8732 45.5144 41.8909 45.9747 42.1041 46.488ZM30.4334 46.8775C30.5045 46.0278 30.8065 45.2488 31.2683 44.5407C31.819 43.691 32.4762 42.8944 33.471 42.6288C34.3236 42.381 35.2829 42.4872 36.2421 42.0446C35.8868 42.6111 35.425 42.8767 35.1585 43.3724C36.0645 43.2484 36.6329 42.6111 37.3257 42.2217C35.6559 44.7178 33.0624 45.7976 30.4334 46.8775ZM28.7992 54.1002C30.1137 53.3921 30.5578 52.8964 30.9486 51.3917C31.0552 50.9314 31.0374 50.4712 31.0019 50.0109C30.9663 49.3205 31.1617 48.6832 31.3571 48.0459C31.517 47.4971 31.8723 47.0545 32.3874 46.7536C31.8545 47.5856 31.6236 48.5061 31.5525 49.4621C32.0499 48.4176 32.5828 47.4086 33.3467 46.5411C32.796 47.7095 32.121 48.8071 32.0677 50.1348C32.5828 49.5152 32.6539 48.7009 33.1157 48.0636C33.0624 48.3999 32.9736 48.7186 32.9026 49.0372C32.8137 49.4798 32.9381 50.0109 32.8315 50.3826C32.5651 51.374 32.2098 52.383 31.2683 53.162C33.3644 52.4893 34.5901 50.9845 35.7447 49.3913C34.6789 52.5601 30.9486 54.7021 28.7992 54.1002ZM36.3842 53.3567C36.1178 53.8701 35.7803 54.3658 35.7803 54.9853C35.7803 55.0031 35.7092 55.0031 35.6559 55.0208C35.6382 54.9676 35.6026 54.9145 35.6026 54.8437C35.4605 52.5778 36.0112 50.4535 36.8816 48.3999C36.9527 48.2229 37.077 48.0813 37.379 48.099C36.8816 49.5329 36.3309 50.9314 36.1711 52.5601C36.402 52.2945 36.4375 52.0644 36.5086 51.852C36.9527 50.6128 37.2724 49.3205 37.752 48.0813C37.8586 47.798 37.9474 47.5325 38.3737 47.4617C38.054 48.099 37.8941 48.7009 37.7343 49.3028C37.3967 50.6836 37.0592 52.0821 36.3842 53.3567ZM39.3863 52.7725C39.3507 53.1797 39.2974 53.5691 39.2797 53.9763C39.2086 55.6758 38.4626 57.0743 37.4323 58.3666C37.681 56.9858 37.8231 55.6049 37.5921 54.2064C37.4856 53.5337 37.4856 52.861 37.4678 52.1883C37.4678 51.9051 37.5389 51.5864 37.7698 51.5687C38.0185 51.551 37.9829 51.4271 38.0007 51.3032C38.1073 50.6836 38.1961 50.064 38.2849 49.4444C38.4448 51.0553 38.1783 52.684 38.5336 54.2772C38.9066 52.4539 38.8356 50.5951 39.2264 48.7717C39.0843 50.1171 39.5106 51.4448 39.3863 52.7725ZM38.3915 46.8067C37.6277 47.2847 36.8283 47.7272 36.0645 48.2406C35.496 48.6124 34.9276 48.9841 34.1638 49.232C34.7144 47.8865 35.0875 46.5588 35.6914 45.3374C35.8158 45.0718 35.8691 44.7178 36.0645 44.5584C36.7217 44.0274 37.2369 43.3369 38.0362 42.7351C37.8053 43.213 37.5744 43.5494 37.6632 43.9919C38.0895 43.8503 38.2849 43.4963 38.6224 43.3015C37.681 44.9833 36.3309 46.3464 35.1052 47.9397C35.4783 47.8866 35.6026 47.7272 35.7625 47.5856C36.473 47.0191 36.9349 46.1517 37.8586 45.8153C38.0007 45.7622 38.0895 45.5675 38.1961 45.4436C38.6757 44.8417 39.1376 44.2398 39.6172 43.6202C39.9547 43.8857 39.6705 44.0274 39.5284 44.1867C39.031 44.7001 38.5514 45.2311 38.2139 45.9038C39.5461 45.1957 40.4698 44.0274 41.5534 42.8767C41.1449 44.4522 40.7718 45.0187 39.6527 45.9215C39.2442 46.2579 38.8178 46.5411 38.3915 46.8067ZM40.8429 55.7466C40.7541 54.8791 40.3455 54.2772 39.8481 53.7285C39.6882 53.5514 39.635 53.3921 39.6527 53.1797C39.7771 51.9936 40.0258 50.8429 40.1146 49.6391C40.1679 50.418 40.1323 51.197 40.1856 51.9759C40.2389 52.7371 40.2212 53.5337 40.6475 54.2418C40.5587 52.6486 40.5764 51.073 40.5764 49.3913C40.8429 50.8252 41.0027 52.1706 41.1804 53.4983C41.8732 53.3744 42.1396 52.8433 42.5482 52.4539C42.2995 53.693 41.7843 54.7729 40.8429 55.7466ZM42.637 57.4991C42.5837 56.8087 42.5482 56.1183 42.4594 55.4456C42.4594 55.3925 42.4416 55.304 42.4771 55.2686C42.9567 54.5605 43.1166 53.7285 43.4364 52.8079C43.5074 54.1533 42.6725 55.2332 42.9567 56.4724C43.4719 55.8882 43.7206 55.1801 44.0758 54.5251C43.8094 55.6049 43.3653 56.614 42.637 57.4991ZM48.9253 52.5778C48.6588 53.6399 48.3924 54.7021 48.1259 55.7643C48.1082 55.8351 48.0726 55.9236 47.9305 55.8882C47.7351 54.2064 47.1134 52.5424 47.3976 50.7898C47.1134 51.7989 46.9003 52.8256 46.6516 53.8347C46.3851 54.8437 46.0121 55.8174 45.3015 56.6848C45.2838 56.5609 45.2482 56.4901 45.266 56.437C45.5147 55.1447 45.3193 53.8701 44.9995 52.6132C44.3068 49.9047 44.2002 47.2138 45.1417 44.523C45.3903 43.7972 45.7634 43.1422 46.0831 42.4518C45.9233 43.9742 45.568 45.479 45.8167 47.143C46.0831 45.8684 46.0654 44.6824 46.3673 43.5494C46.4384 45.6383 46.3496 47.7449 46.616 49.8161C46.7404 47.9928 46.5627 46.1517 46.9891 44.346C47.0424 45.5321 47.1489 46.7005 47.3799 47.8511C47.6463 47.1076 47.4687 46.3287 47.6463 45.5852C47.824 47.3201 48.0016 49.0372 48.1792 50.7721C48.4457 48.7717 48.3213 46.789 48.0726 44.824C48.5345 46.311 48.7477 47.8334 48.9253 49.3559C49.0496 50.4357 49.1918 51.5156 48.9253 52.5778ZM51.803 53.0735C51.6609 53.4098 51.5721 53.7462 51.4655 54.1002C51.2523 54.826 51.0925 55.5695 50.8082 56.2954C50.5418 55.5872 50.3641 54.8437 50.151 54.1002C50.0444 53.7639 49.9556 53.4098 49.8135 53.0735C49.4582 52.2237 49.2983 51.3386 49.3516 50.4003C49.6358 50.9668 49.6181 51.5864 49.8845 52.2237C50.1155 51.5864 49.9023 50.9845 49.9556 50.3826C50.2753 50.9668 50.2753 51.6572 50.7372 52.2945C50.7549 52.3122 50.7727 52.3299 50.7905 52.3476C50.8082 52.3299 50.826 52.2945 50.8615 52.2768C51.3234 51.6572 51.3056 50.9668 51.6431 50.3826C51.6786 50.9845 51.4655 51.5864 51.7142 52.2237C51.9984 51.5864 51.9629 50.9668 52.2471 50.4003C52.3359 51.3386 52.1583 52.2237 51.803 53.0735ZM50.826 49.3913C49.7069 48.0105 49.2095 46.3287 48.801 44.6115C48.5345 43.4786 48.4812 42.3102 48.2858 41.1772C47.9483 39.2122 47.0068 37.5836 45.5147 36.2736C44.5377 35.4238 43.3298 35.1052 42.0863 34.9104C41.1981 34.7688 40.3633 34.4856 39.5461 34.1492C39.0132 33.9368 38.6224 33.565 38.3737 33.0517C38.2494 32.7861 38.2494 32.5206 38.3915 32.255C38.6224 31.7771 38.8711 31.6885 39.3507 31.901C39.4396 31.9364 39.5284 32.0072 39.6172 32.0603C40.31 32.556 41.0383 32.6268 41.8376 32.3081C42.7436 31.9364 43.5962 32.0249 44.4489 32.5029C45.1417 32.8923 45.2838 32.8215 45.5325 32.0603C45.9233 30.9273 45.9055 29.7235 45.8344 28.5552C45.7811 27.8116 45.8167 27.0681 45.8877 26.3423C45.941 25.7935 45.9233 25.2447 46.0298 24.7137C46.545 22.1645 48.0549 20.5181 50.5951 19.8454C50.6661 19.8277 50.7194 19.81 50.7905 19.7923C50.8615 19.81 50.9148 19.8277 50.9859 19.8454C53.5261 20.5181 55.036 22.1645 55.5511 24.7137C55.6577 25.2447 55.6399 25.8112 55.6932 26.3423C55.782 27.0681 55.7998 27.8116 55.7465 28.5552C55.6577 29.7235 55.6577 30.9273 56.0485 32.0603C56.2972 32.8038 56.4571 32.8746 57.1321 32.5029C57.9847 32.0249 58.8551 31.9187 59.7433 32.3081C60.5427 32.6445 61.271 32.556 61.9638 32.0603C62.0526 32.0072 62.1414 31.9364 62.2302 31.901C62.7098 31.6885 62.9585 31.7771 63.1894 32.255C63.3138 32.5206 63.3316 32.7684 63.2072 33.0517C62.9585 33.565 62.5677 33.9368 62.0348 34.1492C61.2177 34.4856 60.365 34.7688 59.4946 34.9104C58.2512 35.1052 57.0432 35.4238 56.0663 36.2736C54.5741 37.5836 53.6326 39.2122 53.2951 41.1772C53.0997 42.3102 53.0464 43.4786 52.78 44.6115C52.4425 46.3287 51.9451 48.0105 50.826 49.3913ZM61.8927 38.7165C62.2835 39.283 62.7276 39.8141 63.0651 40.5399C62.2124 40.2921 61.4841 39.8495 60.596 39.8495C60.8802 40.9648 61.1111 42.0092 61.6085 42.9829C61.0223 42.5403 60.4894 42.0446 59.8854 41.6552C59.2992 41.2834 58.7663 40.8055 58.0025 40.6107C57.8426 41.1595 58.038 41.549 58.038 41.9384C58.038 42.3102 58.038 42.6996 57.9847 43.1068C57.2386 41.4428 56.1373 40.0796 54.6096 39.0529C55.711 38.9644 56.4038 39.7964 57.3452 40.0973C56.8834 39.1768 56.1018 38.6457 55.1603 38.274C55.2491 37.9553 55.3735 37.9022 55.6932 38.0615C56.7057 38.5926 57.665 39.1945 58.642 39.8141C58.038 39.106 57.4518 38.3625 56.7235 37.7429C57.7716 38.0792 58.6242 38.7696 59.5301 39.3892C58.7841 38.4333 57.9492 37.5659 56.9722 36.84C58.1268 37.1056 59.0328 37.8668 60.0631 38.4156C59.388 37.3711 58.4288 36.6984 57.2919 36.2204C58.9439 36.4152 60.1519 37.495 61.5019 38.274C60.8269 37.3711 60.1163 36.5568 59.1394 35.9726C60.0275 36.0788 60.6493 36.7692 61.5019 36.9994C61.0756 36.2027 60.2052 36.0257 59.5124 35.5831C59.6367 35.4238 59.7433 35.4769 59.8677 35.53C60.0275 35.6008 60.1696 35.7071 60.3117 35.7602C60.5071 35.831 60.7381 36.0434 60.9335 35.7956C61.1111 35.5831 60.8802 35.4061 60.7381 35.1583C61.7684 34.9813 62.3901 35.654 63.1894 36.1142C63.0296 36.2027 62.9763 36.2381 62.8875 36.2736C62.0881 36.5568 62.0881 36.6276 62.6921 37.2472C62.9585 37.5127 63.225 37.7783 63.4381 38.1677C62.9763 38.2032 62.6032 38.0084 62.2124 38.0615C61.7328 38.1323 61.6085 38.3271 61.8927 38.7165ZM58.7308 42.7705C59.2637 43.9211 59.2282 45.1957 59.5301 46.4703C59.7611 45.957 59.7611 45.5144 59.5479 44.3637C59.4236 43.691 59.2459 43.0183 59.0505 42.2217C59.619 42.9652 59.9032 43.6733 60.0631 44.4522C60.365 45.9924 60.365 47.5502 60.1519 49.108C60.0453 49.9047 60.0098 50.7013 59.7255 51.4625C59.69 51.5333 59.7078 51.6395 59.5479 51.6749C58.5887 50.2764 56.759 44.3283 56.688 42.3456C57.7005 44.4522 58.6242 46.4703 59.4946 48.5238C59.1749 46.612 59.1216 44.6647 58.7308 42.7705ZM56.6702 52.6132C56.3505 53.8701 56.1551 55.127 56.4038 56.437C56.4215 56.4901 56.386 56.5609 56.3682 56.6848C55.6399 55.8174 55.2847 54.8437 55.0182 53.8347C54.7695 52.8256 54.5563 51.8166 54.2721 50.7898C54.5563 52.5601 53.9346 54.2064 53.7392 55.8882C53.5971 55.9236 53.5616 55.8351 53.5438 55.7643C53.2774 54.7021 53.0109 53.6399 52.7445 52.5778C52.478 51.5156 52.6201 50.4357 52.7445 49.3736C52.9221 47.8511 53.153 46.3287 53.5971 44.8417C53.3484 46.8067 53.2241 48.7894 53.4905 50.7898C53.6682 49.0549 53.8458 47.3378 54.0234 45.6029C54.2011 46.3464 54.0234 47.1253 54.2899 47.8689C54.5031 46.7005 54.6274 45.5321 54.6807 44.3637C55.107 46.1694 54.9471 48.0105 55.0537 49.8339C55.3379 47.7449 55.2314 45.656 55.3024 43.5671C55.5866 44.7001 55.5689 45.8861 55.8531 47.1607C56.1018 45.479 55.7287 43.9919 55.5866 42.4695C55.9064 43.1599 56.2794 43.8326 56.5281 44.5407C57.4696 47.2138 57.3452 49.9047 56.6702 52.6132ZM59.1926 55.4456C59.1038 56.1183 59.0683 56.8087 59.015 57.4991C58.2689 56.614 57.8248 55.6049 57.5584 54.5251C57.9314 55.1801 58.1624 55.8882 58.6775 56.4724C58.9617 55.2332 58.1268 54.1533 58.1979 52.8079C58.5176 53.7285 58.6775 54.5605 59.1571 55.2686C59.2104 55.304 59.2104 55.3748 59.1926 55.4456ZM61.7861 53.7285C61.2887 54.2772 60.8802 54.8791 60.7914 55.7466C59.8499 54.7729 59.3347 53.6753 59.0861 52.4539C59.4946 52.8433 59.7611 53.3744 60.4539 53.4983C60.6315 52.1529 60.7914 50.8252 61.0578 49.3913C61.0578 51.073 61.0756 52.6486 60.9868 54.2418C61.4131 53.5337 61.3776 52.7371 61.4486 51.9759C61.5019 51.197 61.4664 50.418 61.5197 49.6391C61.6085 50.8252 61.8572 51.9936 61.9815 53.1797C62.017 53.3921 61.9638 53.5514 61.7861 53.7285ZM60.1163 42.8944C61.1999 44.0451 62.1236 45.2134 63.4559 45.9215C63.1362 45.2665 62.6565 44.7355 62.1414 44.2044C61.9993 44.0628 61.7151 43.9211 62.0526 43.6379C62.5322 44.2398 62.994 44.8594 63.4737 45.4613C63.5802 45.5852 63.6691 45.7799 63.8112 45.833C64.7171 46.1871 65.1967 47.0368 65.9073 47.6033C66.0671 47.7272 66.1915 47.9043 66.5645 47.9574C65.3388 46.3464 63.9888 44.9833 63.0473 43.3192C63.3848 43.514 63.5802 43.868 64.0066 44.0097C64.0954 43.5671 63.8467 43.2307 63.6335 42.7528C64.4329 43.3546 64.948 44.0451 65.6053 44.5761C65.8007 44.7355 65.854 45.0895 65.9783 45.3551C66.5823 46.5765 66.9376 47.8865 67.506 49.2497C66.7422 49.0018 66.156 48.6301 65.6053 48.2583C64.8592 47.7449 64.0599 47.3024 63.2783 46.8244C62.8519 46.5588 62.4256 46.2756 62.0348 45.957C60.8979 45.0364 60.5249 44.4522 60.1163 42.8944ZM62.3723 53.9763C62.3546 53.5691 62.3013 53.1797 62.2657 52.7725C62.1414 51.4271 62.5855 50.1171 62.4078 48.7894C62.7986 50.6128 62.7098 52.4716 63.1006 54.2949C63.4559 52.7017 63.1894 51.073 63.3493 49.4621C63.4381 50.0817 63.5447 50.7013 63.6335 51.3209C63.6513 51.4625 63.6158 51.5687 63.8645 51.5864C64.0954 51.6041 64.1842 51.9228 64.1664 52.206C64.1487 52.8787 64.1487 53.5514 64.0421 54.2241C63.8112 55.6226 63.971 56.9858 64.202 58.3843C63.1894 57.0743 62.4434 55.6758 62.3723 53.9763ZM66.0494 54.8437C66.0494 54.8968 66.0139 54.9499 65.9961 55.0208C65.9428 55.0031 65.8717 55.0031 65.8717 54.9853C65.8717 54.3658 65.5342 53.8878 65.2678 53.3567C64.5928 52.0821 64.2553 50.6836 63.9177 49.3028C63.7579 48.6832 63.598 48.0813 63.2783 47.4617C63.7046 47.5325 63.7934 47.798 63.9 48.0813C64.3796 49.3205 64.6993 50.6128 65.1434 51.852C65.2145 52.0644 65.25 52.2945 65.4809 52.5601C65.3211 50.9314 64.7704 49.5329 64.273 48.099C64.575 48.0813 64.6993 48.2406 64.7704 48.3999C65.6408 50.4535 66.1737 52.5955 66.0494 54.8437ZM72.8528 54.1002C70.7034 54.7021 66.9731 52.5601 65.9073 49.3913C67.0619 50.9845 68.2876 52.4893 70.3837 53.162C69.4422 52.3653 69.0869 51.3563 68.8205 50.3826C68.7139 50.0109 68.8383 49.4798 68.7494 49.0372C68.6784 48.7186 68.5896 48.3999 68.5363 48.0636C68.9981 48.7009 69.0692 49.5152 69.5843 50.1348C69.5488 48.8071 68.856 47.7095 68.3054 46.5411C69.0869 47.4086 69.6021 48.4176 70.0995 49.4621C70.0284 48.5061 69.7975 47.5856 69.2646 46.7536C69.7797 47.0545 70.1172 47.4971 70.2949 48.0459C70.4903 48.6832 70.7034 49.3205 70.6501 50.0109C70.6146 50.4712 70.5969 50.9491 70.7034 51.3917C71.0765 52.8964 71.5383 53.3921 72.8528 54.1002ZM64.3441 42.2217C65.0369 42.6111 65.5875 43.2661 66.5112 43.3724C66.2448 42.8767 65.7829 42.5934 65.4277 42.0446C66.3869 42.4872 67.3284 42.381 68.1988 42.6288C69.1935 42.9121 69.8508 43.7087 70.4015 44.5407C70.8633 45.2488 71.1475 46.0278 71.2363 46.8775C68.5896 45.7976 65.9961 44.7178 64.3441 42.2217ZM72.0002 42.5757C70.7034 42.0269 69.3889 41.9561 68.0389 41.9915C66.9908 42.0092 66.0138 41.6906 65.2323 40.9294C64.9658 40.6815 64.6816 40.4337 64.4507 40.115C65.7829 40.894 67.1507 41.549 68.7139 41.6906C67.0619 41.2657 65.7119 40.239 64.2908 39.3715C65.3744 39.8495 66.4046 40.416 67.5415 40.7523C68.6784 41.071 69.8508 41.2126 70.9521 41.6021C69.8508 40.8232 68.5007 40.6815 67.2928 40.1682C68.0034 40.1505 68.6429 40.5399 69.4245 40.5576C69.1935 40.239 68.9093 40.1859 68.6429 40.1327C67.4705 39.8318 66.3869 39.3184 65.3033 38.7696C64.7704 38.5041 64.3263 38.1146 63.9533 37.6367C64.8592 38.0615 65.7296 38.5572 66.7244 38.7165C66.1737 38.4333 65.5698 38.2209 65.0191 37.9199C64.4684 37.619 63.9355 37.318 63.3671 36.8577C63.8645 36.8577 64.2553 36.8223 64.6461 36.8577C66.156 37.0525 67.5948 37.5304 69.0159 38.1146C70.0639 38.5572 70.8811 39.3007 71.6982 40.0619C72.0535 40.3983 72.4265 40.6992 72.8173 41.0002C73.6522 41.6552 74.6469 41.8322 75.6772 41.8853C75.9792 41.903 76.2634 41.8853 76.5654 41.8853C76.5832 42.1509 76.3522 42.1509 76.2279 42.2394C74.8601 42.9652 73.4213 43.1776 72.0002 42.5757ZM75.322 48.0459C75.5884 47.8866 75.7128 48.2229 75.9614 48.1167C75.6772 46.9306 74.7713 46.134 74.0963 45.178C74.9312 45.8684 75.7128 46.5943 76.3878 47.4086C76.5121 47.5502 76.5121 47.7272 76.5476 47.8866C76.672 48.7186 76.7608 49.5506 76.8141 50.4003C76.2457 49.6568 75.9259 48.7717 75.322 48.0459Z" fill="black"/>
</g>
<defs>
<clipPath id="clip0_201_2221">
<rect width="66.6667" height="60.8974" fill="white" transform="translate(16.6666 0.230774)"/>
</clipPath>
</defs>
</svg>
