<svg width="40" height="40" viewBox="0 0 40 40" fill="none" xmlns="http://www.w3.org/2000/svg">
<path d="M39.7113 19.5C39.89 19.8094 39.89 20.1906 39.7113 20.5L30.2887 36.8205C30.11 37.1299 29.7799 37.3205 29.4226 37.3205L10.5773 37.3205C10.2201 37.3205 9.88996 37.1299 9.71132 36.8205L0.288676 20.5C0.110042 20.1906 0.110042 19.8094 0.288673 19.5L9.71132 3.17949C9.88996 2.87009 10.2201 2.67949 10.5774 2.67949L29.4226 2.67949C29.7799 2.67949 30.11 2.87009 30.2887 3.17949L39.7113 19.5Z" fill="black"/>
<g clip-path="url(#clip0_86_4415)">
<path d="M29.1411 16.9827C29.1056 16.9685 29.0701 16.9615 29.0417 16.9473C29.0417 16.9615 29.0345 16.9685 29.0345 16.9827C29.0701 16.9898 29.1056 16.9898 29.1411 16.9827Z" fill="white"/>
<path d="M28.4874 20.1267C28.4661 20.1834 28.3595 20.1904 28.324 20.3037C28.4235 20.2613 28.5229 20.2259 28.6153 20.1904C28.5798 20.148 28.5513 20.1126 28.5158 20.0701C28.5016 20.0913 28.4945 20.1055 28.4874 20.1267Z" fill="white"/>
<path d="M28.324 17.5846C28.3524 17.5704 28.3737 17.5634 28.4021 17.5492C28.3808 17.5492 28.3666 17.5563 28.3453 17.5634C28.3382 17.5634 28.3311 17.5704 28.324 17.5846Z" fill="white"/>
<path d="M28.5087 16.749C28.4945 16.7419 28.4874 16.7419 28.4732 16.7419C28.459 16.7632 28.4377 16.7773 28.4235 16.7986C28.4519 16.7844 28.4803 16.7632 28.5087 16.749Z" fill="white"/>
<path d="M28.4519 20.6295C28.6366 20.6649 28.7574 20.5587 28.8995 20.5233C28.864 20.4808 28.8285 20.4383 28.793 20.4029C28.6722 20.4595 28.5585 20.5304 28.4519 20.6295Z" fill="white"/>
<path d="M28.8356 16.8623C28.8143 16.8553 28.793 16.8482 28.7717 16.8411C28.7575 16.8694 28.7361 16.8907 28.7219 16.919C28.7646 16.9048 28.8001 16.8836 28.8356 16.8623Z" fill="white"/>
<path d="M28.1676 20.8844C28.53 20.941 28.8924 20.8702 29.2476 20.934C29.1837 20.8561 29.1126 20.7782 29.0487 20.7003C28.7502 20.7499 28.4518 20.764 28.1676 20.8844Z" fill="white"/>
<path d="M26.6116 18.4272C26.5334 18.5476 26.5689 18.6822 26.5547 18.8025C26.5476 18.8592 26.5476 18.9158 26.5476 18.9725C26.6826 18.8875 26.8105 18.8025 26.9242 18.7034C26.8674 18.5689 26.7963 18.4343 26.6116 18.4272Z" fill="white"/>
<path d="M30.7185 19.9355C30.7967 19.9355 30.889 19.9284 30.8819 19.8293C30.8677 19.7089 30.7612 19.7373 30.683 19.7443C30.6048 19.7514 30.5267 19.7656 30.4414 19.7727C30.5054 19.8364 30.5693 19.9001 30.6333 19.9568C30.6475 19.9426 30.683 19.9355 30.7185 19.9355Z" fill="white"/>
<path d="M28.8923 21.111C29.07 21.1464 29.2405 21.1464 29.4181 21.1323C29.3826 21.0898 29.3471 21.0473 29.3116 21.0119C29.1694 21.0402 29.0273 21.0756 28.8923 21.111Z" fill="white"/>
<path d="M30.8961 20.2259C30.953 20.2825 31.0098 20.3392 31.0666 20.3958C31.0311 20.3179 30.9743 20.2613 30.8961 20.2259Z" fill="white"/>
<path d="M30.882 19.5248C30.9388 19.5177 30.9672 19.4682 30.9672 19.4186C30.9672 19.3407 30.9104 19.3195 30.8535 19.3124C30.7754 19.3053 30.7043 19.3124 30.6262 19.3124C30.6617 19.1849 30.7825 19.2274 30.8606 19.192C30.9317 19.1637 31.0241 19.1566 31.0028 19.0575C30.9885 18.9796 30.9033 18.9796 30.8393 18.9796C30.4698 18.9654 30.1075 18.9937 29.7522 19.0929C29.9583 19.2912 30.1643 19.4965 30.3775 19.7019C30.5338 19.6381 30.6972 19.5461 30.882 19.5248Z" fill="white"/>
<path d="M23.3289 21.3093C23.5776 21.3376 23.8334 21.3093 24.0892 21.3163C24.4302 21.3163 24.7287 21.196 25.0129 21.0118C25.1763 20.9056 25.2118 20.7853 25.1266 20.6507C25.0484 20.5232 24.8992 20.4878 24.75 20.5941C24.4089 20.8277 24.0323 20.8985 23.6273 20.9127C23.2507 20.9269 22.9381 21.0968 22.7036 21.3942C22.9168 21.373 23.1157 21.288 23.3289 21.3093Z" fill="white"/>
<path d="M21.8793 19.6452C21.9433 19.5956 22.0072 19.539 22.0143 19.4469C22.0356 19.1778 22.0854 18.9158 22.064 18.6397C22.0498 18.5051 21.993 18.4131 21.858 18.3918C21.7443 18.3706 21.659 18.4839 21.6519 18.6538C21.6377 18.9158 21.6875 19.1778 21.7088 19.4328C21.723 19.5319 21.7727 19.6027 21.8793 19.6452Z" fill="white"/>
<path d="M26.0857 19.5956C25.9507 19.631 25.8086 19.6735 25.7305 19.8152C25.8157 19.9355 25.9365 19.9001 26.036 19.8789C26.1923 19.8435 26.3486 19.7939 26.4979 19.7443C26.7465 19.6594 26.9881 19.5532 27.2226 19.4399C27.1871 19.3549 27.1516 19.2628 27.116 19.1708C26.7892 19.3478 26.4481 19.4965 26.0857 19.5956Z" fill="white"/>
<path d="M26.4979 19.1354C26.4837 19.1566 26.4695 19.1778 26.4481 19.1991C26.4339 19.192 26.4197 19.1849 26.4055 19.1778C26.2137 19.2699 26.0076 19.3407 25.7944 19.3974C25.7589 19.4044 25.7376 19.4328 25.7234 19.4823C25.9437 19.5744 26.5192 19.3407 27.0521 19.0221C27.0308 18.9654 27.0095 18.9088 26.981 18.8521C26.8318 18.9583 26.6684 19.0504 26.4979 19.1354Z" fill="white"/>
<path d="M17.0619 20.9198C16.6569 20.9057 16.2803 20.8348 15.9392 20.6012C15.79 20.502 15.6408 20.5374 15.5627 20.6578C15.4774 20.7853 15.5129 20.9127 15.6763 21.019C15.9535 21.2031 16.2519 21.3234 16.6 21.3234C16.8558 21.3234 17.1045 21.3447 17.3603 21.3164C17.5806 21.2951 17.7724 21.3801 17.9927 21.4013C17.7511 21.1039 17.4314 20.934 17.0619 20.9198Z" fill="white"/>
<path d="M18.8241 18.3918C18.689 18.4131 18.6322 18.5051 18.618 18.6397C18.5967 18.9088 18.6464 19.1778 18.6677 19.4469C18.6748 19.539 18.7388 19.5956 18.8027 19.6452C18.9093 19.6027 18.9662 19.5319 18.9733 19.4328C18.9946 19.1708 19.0443 18.9158 19.0301 18.6538C19.0159 18.4839 18.9377 18.3706 18.8241 18.3918Z" fill="white"/>
<path d="M28.4732 20.0276C28.4874 20.0417 28.4945 20.0559 28.5087 20.0701C28.5372 20.0134 28.5656 19.9709 28.6011 19.9284C28.6011 19.9214 28.594 19.9214 28.594 19.9143C28.459 19.7514 28.3169 19.6027 28.1677 19.454C28.125 19.4965 28.0895 19.5319 28.0469 19.5673C28.1961 19.716 28.3382 19.8647 28.4732 20.0276Z" fill="white"/>
<path d="M31.0737 20.3958C31.1093 20.4666 31.1306 20.5516 31.1377 20.6507C31.1377 20.6649 31.1377 20.6861 31.1377 20.7003C31.2158 20.7782 31.294 20.8561 31.3722 20.934C31.3651 20.849 31.3579 20.764 31.3508 20.6791C31.2585 20.5799 31.1661 20.4879 31.0737 20.3958Z" fill="white"/>
<path d="M27.9403 19.2487C27.9119 19.2982 27.8764 19.3407 27.8337 19.3832C27.848 19.3974 27.8551 19.4044 27.8693 19.4115C27.8906 19.4328 27.9119 19.4469 27.9332 19.4682C27.9758 19.4328 28.0185 19.3903 28.054 19.3478C28.0185 19.3124 27.9758 19.277 27.9403 19.2487Z" fill="white"/>
<path d="M30.5621 20.1126C30.6261 20.1338 30.6758 20.1621 30.7327 20.1692C30.7966 20.1834 30.8464 20.1975 30.889 20.2259C30.7966 20.1338 30.7113 20.0488 30.619 19.9568C30.5835 19.9851 30.5621 20.0347 30.5621 20.1126Z" fill="white"/>
<path d="M27.7698 19.1141C27.5921 19.2345 27.4145 19.3407 27.2227 19.4399C27.2298 19.4469 27.2298 19.4611 27.2369 19.4682C27.2511 19.5036 27.2653 19.539 27.2795 19.5673C27.3719 19.5178 27.4571 19.4682 27.5495 19.4186C27.5495 19.362 27.5566 19.3053 27.585 19.2558C27.649 19.2487 27.7058 19.2699 27.7556 19.3053C27.8124 19.277 27.8621 19.2487 27.919 19.2204C27.855 19.1779 27.8124 19.1425 27.7698 19.1141Z" fill="white"/>
<path d="M29.6101 21.111C29.5461 21.1181 29.4822 21.1252 29.4111 21.1322C29.4467 21.1747 29.4822 21.2172 29.5177 21.2526C29.5817 21.2455 29.6456 21.2385 29.7096 21.2314C29.6811 21.1889 29.6456 21.1464 29.6101 21.111Z" fill="white"/>
<path d="M27.2156 19.0787C27.2013 19.0362 27.18 19.0008 27.1658 18.9583C27.1303 18.9796 27.0948 19.0008 27.0521 19.0292C27.0734 19.0787 27.0948 19.1283 27.109 19.1708C27.1445 19.1495 27.1871 19.1283 27.2227 19.107C27.2227 19.1 27.2227 19.0858 27.2156 19.0787Z" fill="white"/>
<path d="M30.3632 19.6948C30.2992 19.716 30.2282 19.7373 30.1571 19.7373C30.1713 19.7514 30.1926 19.7727 30.2068 19.7868C30.285 19.7797 30.3561 19.7727 30.4342 19.7656C30.4129 19.7443 30.3916 19.7231 30.3632 19.6948Z" fill="white"/>
<path d="M31.0808 23.1149C31.1021 23.1503 31.1519 23.1787 31.1448 23.2212C31.2158 23.3203 31.294 23.4123 31.365 23.5115C31.3721 23.4336 31.3863 23.3628 31.3934 23.2849C31.3295 23.207 31.2727 23.1291 31.2087 23.0441C31.1732 23.0866 31.1092 23.0725 31.0808 23.1149Z" fill="white"/>
<path d="M26.9881 18.8521C27.0236 18.8309 27.0592 18.8025 27.0947 18.7813C27.0734 18.7317 27.0521 18.6751 27.0307 18.6255C26.9952 18.6538 26.9668 18.6822 26.9313 18.7105C26.9313 18.7105 26.9313 18.7105 26.9313 18.7176C26.9455 18.7601 26.9668 18.8096 26.9881 18.8521Z" fill="white"/>
<path d="M29.5532 19.1495C29.5603 19.1495 29.5674 19.1424 29.5745 19.1424C29.6313 19.1212 29.6811 19.107 29.7379 19.0858C29.7095 19.0575 29.6811 19.0291 29.6527 19.0008C29.6029 19.0291 29.5461 19.0646 29.4963 19.0929C29.5177 19.1212 29.539 19.1354 29.5532 19.1495Z" fill="white"/>
<path d="M28.4519 16.5578C28.3524 16.5508 28.2529 16.5295 28.1534 16.5224C28.0824 16.6287 28.0184 16.7349 27.9474 16.8482C27.9758 16.8765 28.0113 16.9048 28.0398 16.9331C28.2032 17.0889 28.395 17.2093 28.6082 17.3438C28.6579 17.3155 28.7077 17.2872 28.7574 17.2589C28.5656 17.1385 28.3879 17.004 28.2103 16.8552C28.1606 16.8128 28.0895 16.7774 28.0682 16.6641C28.2103 16.6782 28.3382 16.7065 28.4732 16.742C28.5442 16.6641 28.6153 16.5862 28.6792 16.5012C28.6082 16.4587 28.5442 16.4162 28.4732 16.3737C28.4163 16.3383 28.3666 16.31 28.3169 16.2675C28.2884 16.31 28.26 16.3525 28.2316 16.4021C28.3027 16.4587 28.3737 16.5083 28.4519 16.5578Z" fill="white"/>
<path d="M28.7929 20.4029C28.8426 20.3745 28.8995 20.3533 28.9492 20.3321C28.8923 20.2683 28.8355 20.1975 28.7858 20.1338C28.7289 20.148 28.6721 20.1692 28.6152 20.1904C28.6721 20.2612 28.7289 20.3321 28.7929 20.4029Z" fill="white"/>
<path d="M28.7574 17.4359C28.7076 17.443 28.6579 17.443 28.6224 17.443C28.5513 17.4784 28.4732 17.5138 28.4021 17.5492C28.6721 17.5067 28.9279 17.6908 29.205 17.6413C29.2334 17.4996 29.1197 17.4642 29.0416 17.4217C28.9847 17.3934 28.935 17.358 28.8782 17.3226C28.8213 17.3438 28.7645 17.3722 28.7147 17.4005C28.7289 17.4147 28.7432 17.4288 28.7574 17.4359Z" fill="white"/>
<path d="M28.7716 16.8411C28.8142 16.7703 28.871 16.7065 28.9279 16.6499C28.871 16.6145 28.8142 16.5862 28.7645 16.5508C28.6863 16.6216 28.601 16.6995 28.5087 16.749C28.5939 16.7773 28.6863 16.8057 28.7716 16.8411Z" fill="white"/>
<path d="M29.0345 16.9402C29.0559 16.8765 29.0843 16.8198 29.1269 16.7632C29.0985 16.7419 29.063 16.7278 29.0345 16.7065C28.9635 16.7632 28.8995 16.8128 28.8285 16.8623C28.8995 16.8907 28.9706 16.919 29.0345 16.9402Z" fill="white"/>
<path d="M29.2619 17.0181C29.2903 17.004 29.3259 16.9827 29.3543 16.9685C29.3472 16.9331 29.333 16.9048 29.3116 16.8836C29.2548 16.919 29.198 16.9615 29.1411 16.9756C29.1837 16.9969 29.2193 17.011 29.2619 17.0181Z" fill="white"/>
<path d="M28.8995 20.5233C28.9493 20.5799 28.999 20.6436 29.0488 20.7003C29.1127 20.6932 29.1695 20.679 29.2335 20.6649C29.1838 20.6082 29.134 20.5445 29.0843 20.4879C29.0345 20.4949 28.9919 20.5091 28.9422 20.5162C28.9209 20.5162 28.9137 20.5233 28.8995 20.5233Z" fill="white"/>
<path d="M28.2743 17.5846C28.2956 17.5775 28.3169 17.5704 28.3453 17.5633C28.3951 17.5067 28.4448 17.4642 28.4945 17.4217C28.4661 17.4146 28.4377 17.4076 28.4164 17.4146C28.3027 17.4146 28.1961 17.4359 28.1393 17.5492C28.0895 17.6554 28.1393 17.7404 28.2032 17.8183C28.2316 17.8537 28.2672 17.882 28.2956 17.9174C28.4945 18.1157 28.6935 18.3139 28.8925 18.5122C28.928 18.4697 28.9635 18.4272 28.999 18.3918C28.8001 18.2077 28.6082 18.0165 28.4093 17.8324C28.3524 17.7616 28.3027 17.6908 28.2743 17.5846Z" fill="white"/>
<path d="M29.2477 20.934C29.269 20.9552 29.2903 20.9835 29.3116 21.0048C29.3472 20.9977 29.3827 20.9835 29.4253 20.9764C29.3685 20.9623 29.3045 20.9481 29.2477 20.934Z" fill="white"/>
<path d="M29.2832 18.8875C29.3329 18.8592 29.3898 18.8238 29.4395 18.7955C29.4111 18.7672 29.3827 18.7388 29.3471 18.7105C29.2761 18.7247 29.2121 18.7388 29.1482 18.753C29.1979 18.8026 29.2406 18.8451 29.2832 18.8875Z" fill="white"/>
<path d="M26.4126 19.1779C26.441 19.1637 26.4694 19.1495 26.505 19.1354C26.5334 19.0858 26.5476 19.0292 26.5476 18.9796C26.505 19.0079 26.4623 19.0292 26.4268 19.0504C26.3984 19.0646 26.3771 19.0787 26.3486 19.0929C26.3557 19.1212 26.3771 19.1495 26.4126 19.1779Z" fill="white"/>
<path d="M29.745 19.0929C29.6882 19.107 29.6314 19.1283 29.5816 19.1495C29.5745 19.1495 29.5674 19.1566 29.5603 19.1566C29.7593 19.3549 29.9653 19.5461 30.1643 19.7443C30.2353 19.7372 30.3064 19.7231 30.3703 19.7018C30.1572 19.4894 29.9511 19.2911 29.745 19.0929Z" fill="white"/>
<path d="M29.2477 20.934C29.3045 20.9481 29.3614 20.9623 29.4182 20.9765C29.3827 20.9835 29.3472 20.9977 29.3045 21.0048C29.3401 21.0473 29.3756 21.0898 29.4111 21.1252C29.4751 21.1181 29.539 21.111 29.6101 21.1039C29.4822 20.9552 29.3543 20.8065 29.2264 20.6578C29.1695 20.672 29.1056 20.6861 29.0416 20.6932C29.1127 20.7782 29.1837 20.8561 29.2477 20.934Z" fill="white"/>
<path d="M28.8995 20.5233C28.9137 20.5233 28.9279 20.5162 28.935 20.5162C28.9847 20.5091 29.0274 20.4949 29.0771 20.4878C29.0345 20.4383 28.9918 20.3816 28.9421 20.3321C28.8923 20.3533 28.8355 20.3745 28.7858 20.4029C28.8284 20.4454 28.8639 20.4808 28.8995 20.5233Z" fill="white"/>
<path d="M28.6153 20.1904C28.6722 20.1692 28.729 20.155 28.7858 20.1338C28.729 20.063 28.6722 19.9992 28.6153 19.9284C28.5798 19.9709 28.5443 20.0205 28.5229 20.0701C28.5443 20.1055 28.5798 20.1479 28.6153 20.1904Z" fill="white"/>
<path d="M29.3613 17.0464C29.3684 17.011 29.3613 16.9898 29.3613 16.9685C29.3329 16.9898 29.2973 17.0039 29.2689 17.0181C29.2973 17.0323 29.3258 17.0393 29.3613 17.0464Z" fill="white"/>
<path d="M31.3721 20.9269C31.4858 21.0402 31.6066 21.1606 31.7203 21.2739C31.7132 21.1889 31.7061 21.0968 31.6919 21.0119C31.5782 20.8986 31.4645 20.7853 31.3508 20.672C31.3579 20.7569 31.365 20.8419 31.3721 20.9269Z" fill="white"/>
<path d="M26.5476 18.9796C26.5547 18.9229 26.5547 18.8663 26.5547 18.8096C26.5689 18.6893 26.5262 18.5618 26.6115 18.4343C26.8034 18.4414 26.8673 18.576 26.9241 18.7105C26.9597 18.6822 26.9881 18.6538 27.0236 18.6255C27.0094 18.583 26.9881 18.5476 26.9739 18.5051C26.917 18.3706 26.8105 18.2785 26.6612 18.2785C26.5049 18.2715 26.4197 18.3918 26.3486 18.5193C26.3202 18.4202 26.2989 18.3281 26.2704 18.229C26.2207 18.0449 26.1425 17.8749 26.0289 17.7191C25.8654 17.4925 25.702 17.4642 25.4746 17.5988C25.4249 17.6271 25.3965 17.705 25.3041 17.6625C25.3752 17.2376 25.5173 16.7703 24.8494 16.6782C25.1052 16.3808 25.2117 16.0126 25.496 15.7364C25.7873 15.8497 25.9649 15.6231 26.1497 15.4178C26.3912 15.6231 26.5902 15.5098 26.7749 15.3682C26.9384 15.2478 27.0734 15.0921 27.251 14.9788C27.251 15.0071 27.2581 15.0212 27.251 15.0425C27.1302 15.4107 27.2581 15.5877 27.6418 15.6019C27.8265 15.609 28.0113 15.6019 28.196 15.5594C28.1463 15.609 28.0894 15.6373 28.0397 15.6727C27.7839 15.8497 27.7697 15.9984 27.9829 16.218C28.0539 16.2888 28.125 16.3525 28.2031 16.4162C28.2315 16.3737 28.26 16.3312 28.2884 16.2817C28.2386 16.2463 28.1889 16.2109 28.1392 16.1684C27.9402 15.9984 27.9544 15.8639 28.1818 15.7294C28.3168 15.6515 28.4589 15.6019 28.601 15.5311C28.6792 15.4957 28.7787 15.4744 28.8 15.3541C28.7147 15.2762 28.6223 15.3187 28.53 15.3399C28.2742 15.3965 28.0255 15.4815 27.7555 15.4674C27.6844 15.4674 27.6134 15.4674 27.5423 15.4603C27.3292 15.4249 27.2652 15.3257 27.3434 15.1204C27.4144 14.915 27.5281 14.7309 27.6489 14.5468C27.6844 14.4902 27.7484 14.4406 27.7342 14.3485C27.6205 14.3627 27.5778 14.4477 27.521 14.5043C27.3292 14.6955 27.1444 14.8938 26.9313 15.0567C26.8815 15.0991 26.8318 15.1345 26.782 15.1699C26.512 15.347 26.4339 15.3399 26.2278 15.1062C26.1212 15.1062 26.0715 15.1912 26.0289 15.262C25.8796 15.4957 25.702 15.6585 25.4036 15.4815C25.2544 15.6231 25.2615 15.8427 25.0909 15.956C24.9275 16.0622 24.7215 16.0338 24.558 16.1542C24.6078 16.3596 24.7854 16.2534 24.9062 16.31C24.828 16.5154 24.6007 16.5932 24.5083 16.7774C24.5722 16.9261 24.6859 16.8694 24.7783 16.8694C25.1265 16.8694 25.1904 16.9331 25.1833 17.2801C25.1762 17.5634 25.0696 17.8254 24.9773 18.0874C24.9417 18.1865 24.828 18.321 24.9773 18.3918C25.0981 18.4485 25.1478 18.2927 25.2046 18.2077C25.297 18.0874 25.3752 17.9528 25.4888 17.8466C25.7091 17.6271 25.8299 17.6413 25.9862 17.9103C26.0999 18.1086 26.1568 18.3281 26.2065 18.5476C26.242 18.7034 26.2776 18.8663 26.3131 19.0221C26.3202 19.0433 26.3273 19.0716 26.3344 19.0929C26.3628 19.0787 26.3841 19.0646 26.4126 19.0504C26.4623 19.0291 26.5049 19.0008 26.5476 18.9796Z" fill="white"/>
<path d="M28.5086 16.749C28.601 16.6924 28.6792 16.6216 28.7644 16.5508C28.736 16.5366 28.7147 16.5154 28.6863 16.5012C28.6152 16.5791 28.5513 16.6641 28.4802 16.7419C28.4873 16.7419 28.4944 16.749 28.5086 16.749Z" fill="white"/>
<path d="M27.9332 19.2416C27.9261 19.2345 27.919 19.2274 27.9048 19.2203C27.8479 19.2487 27.7982 19.277 27.7413 19.3053C27.7698 19.3266 27.8053 19.3549 27.8337 19.3832C27.8763 19.3336 27.9119 19.2911 27.9332 19.2416Z" fill="white"/>
<path d="M28.1676 19.454C28.1321 19.4186 28.0894 19.3832 28.0539 19.3478C28.0113 19.3832 27.9757 19.4257 27.9331 19.4682C27.9686 19.5036 28.0113 19.539 28.0468 19.5744C28.0894 19.5319 28.125 19.4965 28.1676 19.454Z" fill="white"/>
<path d="M31.0809 23.115C31.1022 23.0725 31.1662 23.0866 31.2088 23.0512C31.1804 23.0158 31.1519 22.9804 31.1235 22.945C30.6688 22.3573 30.1927 21.7979 29.7095 21.2314C29.6456 21.2385 29.5816 21.2455 29.5177 21.2526C30.0648 21.8899 30.6048 22.5343 31.1235 23.1999C31.1306 23.207 31.1377 23.2141 31.1448 23.2283C31.1519 23.1787 31.1093 23.1504 31.0809 23.115Z" fill="white"/>
<path d="M28.8355 16.8623C28.9066 16.8198 28.9705 16.7632 29.0416 16.7066C29.0061 16.6853 28.9705 16.6641 28.935 16.6428C28.8782 16.6995 28.8213 16.7632 28.7787 16.834C28.7929 16.8482 28.8142 16.8553 28.8355 16.8623Z" fill="white"/>
<path d="M28.3452 17.5563C28.3665 17.5492 28.3807 17.5492 28.4021 17.5421C28.4731 17.5067 28.5513 17.4713 28.6223 17.4359C28.5726 17.4288 28.5371 17.4218 28.4944 17.4076C28.4447 17.4572 28.395 17.5067 28.3452 17.5563Z" fill="white"/>
<path d="M27.4144 19.6948C27.5423 19.6381 27.5423 19.5248 27.5494 19.4186C27.4571 19.4682 27.3718 19.5177 27.2794 19.5673C27.3007 19.624 27.3363 19.6664 27.4144 19.6948Z" fill="white"/>
<path d="M31.0737 20.3958C31.0169 20.3392 30.96 20.2825 30.9032 20.2259C30.8606 20.2046 30.8037 20.1834 30.7469 20.1692C30.69 20.1551 30.6332 20.1338 30.5763 20.1126C30.5763 20.0418 30.5906 19.9851 30.6403 19.9568C30.5763 19.8931 30.5124 19.8293 30.4484 19.7727C30.3703 19.7798 30.2992 19.7868 30.2211 19.7939C30.5337 20.0913 30.8392 20.3958 31.1448 20.7003C31.1448 20.6861 31.1448 20.6649 31.1448 20.6507C31.1235 20.5445 31.1092 20.4595 31.0737 20.3958Z" fill="white"/>
<path d="M27.8621 16.6287C27.8337 16.7066 27.8692 16.7703 27.9331 16.8199C27.9402 16.8269 27.9473 16.834 27.9616 16.8411C28.0255 16.7349 28.0966 16.6287 28.1676 16.5154C28.1321 16.5083 28.0966 16.5083 28.0681 16.5083C27.9758 16.5012 27.8905 16.5366 27.8621 16.6287Z" fill="white"/>
<path d="M29.2974 18.9017C29.3684 18.9654 29.4324 19.0362 29.5034 19.1C29.5532 19.0646 29.6029 19.0362 29.6598 19.0079C29.5887 18.9371 29.5177 18.8663 29.4466 18.8026C29.3969 18.8309 29.34 18.8663 29.2903 18.8946C29.2903 18.8946 29.2903 18.8946 29.2974 18.9017Z" fill="white"/>
<path d="M29.1481 18.753C29.2121 18.7388 29.2831 18.7247 29.3471 18.7105C29.2334 18.5972 29.1126 18.491 28.9989 18.3777C28.9634 18.4202 28.9279 18.4556 28.8923 18.4981C28.9847 18.5901 29.07 18.6751 29.1481 18.753Z" fill="white"/>
<path d="M28.7076 17.4005C28.7645 17.3722 28.8213 17.3509 28.8711 17.3226C28.8355 17.3014 28.7929 17.273 28.7574 17.2518C28.7076 17.2801 28.6579 17.3014 28.6082 17.3368C28.6437 17.358 28.6721 17.3793 28.7076 17.4005Z" fill="white"/>
<path d="M29.1411 16.9827C29.2051 16.9686 29.2619 16.9261 29.3117 16.8907C29.2761 16.8553 29.2335 16.834 29.1909 16.8128C29.1695 16.7986 29.1482 16.7845 29.1269 16.7774C29.0843 16.8269 29.0488 16.8836 29.0345 16.9544C29.0701 16.9544 29.1056 16.9686 29.1411 16.9827Z" fill="white"/>
<path d="M31.4006 23.2849C31.3935 23.3628 31.3864 23.4336 31.3722 23.5115C31.4717 23.6389 31.564 23.7593 31.6635 23.8868C31.6706 23.816 31.6848 23.7381 31.6919 23.6673C31.5925 23.5398 31.493 23.4123 31.4006 23.2849Z" fill="white"/>
<path d="M27.3364 19.3478C27.2724 19.277 27.2582 19.192 27.2298 19.107C27.1942 19.1283 27.1516 19.1495 27.1161 19.1708C27.1516 19.2628 27.1871 19.3478 27.2227 19.4399C27.4145 19.3478 27.5922 19.2345 27.7698 19.1141C27.5779 18.9937 27.4785 19.0646 27.3364 19.3478Z" fill="white"/>
<path d="M26.4979 19.1354C26.4695 19.1495 26.441 19.1637 26.4055 19.1779C26.4197 19.1849 26.4339 19.192 26.4482 19.1991C26.4766 19.1779 26.4908 19.1566 26.4979 19.1354Z" fill="white"/>
<path d="M27.0947 18.7813C27.0592 18.8026 27.0237 18.8309 26.9882 18.8521C27.0095 18.9088 27.0379 18.9654 27.0592 19.0221C27.0947 19.0008 27.1303 18.9796 27.1729 18.9513C27.1445 18.9017 27.1161 18.838 27.0947 18.7813Z" fill="white"/>
<path d="M30.7256 26.4076C31.2514 26.6201 31.6706 27.0025 32.2177 27.137C31.898 26.8608 31.7346 26.5068 31.6422 26.1173C31.5143 25.5721 31.5143 25.0127 31.5854 24.4604C31.6067 24.2692 31.6351 24.0851 31.6635 23.8939C31.564 23.7664 31.4717 23.646 31.3722 23.5186C31.3651 23.5965 31.3509 23.6814 31.3367 23.7593C31.2159 24.5666 31.1946 25.3667 31.358 26.174C31.3935 26.3368 31.4575 26.4926 31.5214 26.6697C31.4006 26.6838 31.3367 26.5988 31.2514 26.5705C31.0169 26.4785 30.8393 26.2731 30.5693 26.2731C30.5337 26.2731 30.5124 26.2448 30.4982 26.2165C30.4272 26.0819 30.3135 25.9686 30.2353 25.7704C30.4556 25.9403 30.5977 26.1244 30.8251 26.1952C30.9032 26.089 30.8322 25.9969 30.8109 25.8978C30.9032 25.8907 30.9459 25.9828 31.024 25.9686C31.1022 25.8199 31.1022 25.8199 30.9743 25.5154C31.159 25.3738 31.159 25.3384 30.9672 25.0764C30.9956 24.9348 31.1235 24.8002 31.0098 24.6374C30.9885 24.6091 31.0027 24.5736 31.0311 24.5453C31.2514 24.3258 31.1874 24.078 31.0951 23.8301C31.1448 23.7452 31.2585 23.7947 31.3225 23.7239C31.2798 23.5894 31.1661 23.5186 31.0453 23.4761C30.8748 23.4123 30.7327 23.3203 30.6261 23.1503C30.818 23.1574 30.9601 23.3274 31.1519 23.292C31.1661 23.2707 31.1732 23.2566 31.1732 23.2424C31.1661 23.2353 31.159 23.2282 31.1519 23.2141C30.6403 22.5485 30.0932 21.9112 29.5461 21.2668C29.1553 21.3022 28.7645 21.2809 28.3666 21.2455C27.8266 21.196 27.3079 21.0473 26.7963 20.8561C27.0947 20.7782 27.4003 20.7711 27.7413 20.7357C27.6063 20.5374 27.386 20.6436 27.2581 20.5233C27.5708 20.4241 27.9261 20.3675 28.0966 19.9922C27.8763 19.893 27.7413 20.0205 27.5921 20.0772C27.3079 20.1904 27.0166 20.2754 26.6755 20.2329C27.2155 20.1126 27.6845 19.9072 28.0682 19.5744C28.0326 19.539 27.99 19.5036 27.9545 19.4682C27.8266 19.5815 27.6916 19.6948 27.5139 19.7443C27.6205 19.5956 27.7555 19.4965 27.8621 19.3761C27.8337 19.3478 27.8053 19.3195 27.7697 19.2982C27.6987 19.3336 27.6347 19.369 27.5708 19.4115C27.5637 19.5177 27.5637 19.631 27.4358 19.6877C27.3647 19.6664 27.3221 19.6169 27.3008 19.5602C27.1871 19.624 27.0663 19.6806 26.9455 19.7231C26.5689 19.8718 26.171 19.9426 25.7731 20.0417C25.8655 20.1267 25.9792 20.1196 26.1213 20.1621C25.9152 20.1904 25.766 20.1763 25.5671 20.1126C25.7802 20.4029 26.0502 20.4737 26.3273 20.5303C25.8584 20.5941 25.5102 20.3037 25.1123 20.1126C25.0697 20.0559 25.1691 19.9709 25.0981 19.9072C25.0484 20.0063 25.0697 20.155 24.8849 20.1621C24.8636 19.9355 25.0697 19.7302 24.956 19.4611C24.7641 19.7231 24.8281 20.063 24.5936 20.2683C24.5936 19.9214 24.8991 19.624 24.7499 19.2487C24.6433 19.3124 24.6433 19.4328 24.5581 19.5461V19.0008C24.416 19.1637 24.4089 19.3478 24.2454 19.5036C24.3023 19.2345 24.3876 19.0221 24.3876 18.7813C24.2312 18.9088 24.2454 19.1424 24.0678 19.2487C24.0394 19.0575 24.2028 18.8804 24.082 18.6963C23.9612 18.7601 24.0252 18.9017 23.9115 18.9725C23.9044 18.7034 24.1318 18.4202 23.8404 18.2077C23.8902 18.1086 23.9541 18.144 24.0039 18.1582C24.1815 18.2219 24.3236 18.3423 24.4657 18.4627C24.8494 18.8096 25.2757 19.0575 25.8655 19.015C25.6878 19.1566 25.496 19.0929 25.3539 19.1779C25.4178 19.2487 25.5031 19.2628 25.5884 19.2557C25.8513 19.2274 26.1213 19.1849 26.3629 19.0716C26.3558 19.0504 26.3486 19.0291 26.3415 19.0008C26.306 18.845 26.2705 18.6822 26.235 18.5264C26.1852 18.3069 26.1284 18.0874 26.0147 17.8891C25.8513 17.6129 25.7376 17.5988 25.5173 17.8254C25.4107 17.9316 25.3255 18.0661 25.2331 18.1865C25.1763 18.2715 25.1265 18.4273 25.0057 18.3706C24.8565 18.2998 24.9702 18.1653 25.0057 18.0661C25.0981 17.8041 25.2118 17.5492 25.2118 17.2589C25.2189 16.9119 25.1549 16.8482 24.8068 16.8482C24.7144 16.8482 24.6007 16.9048 24.5368 16.7561C24.622 16.5791 24.8565 16.4941 24.9347 16.2888C24.8139 16.2321 24.6362 16.3313 24.5865 16.133C24.7499 16.0126 24.956 16.0338 25.1194 15.9347C25.2899 15.8214 25.2899 15.6019 25.4321 15.4603C25.7305 15.6373 25.901 15.4744 26.0573 15.2408C26.1071 15.17 26.1497 15.085 26.2563 15.085C26.4623 15.3187 26.5476 15.3257 26.8105 15.1487C26.8602 15.1133 26.91 15.0708 26.9597 15.0354C27.1729 14.8655 27.3576 14.6743 27.5495 14.4831C27.6063 14.4264 27.6489 14.3344 27.7626 14.3273C27.7768 14.4264 27.7129 14.4689 27.6774 14.5256C27.5566 14.7097 27.4429 14.8938 27.3718 15.0991C27.3008 15.3045 27.3576 15.4036 27.5708 15.439C27.6418 15.4532 27.7129 15.4461 27.7839 15.4461C28.0468 15.4532 28.3026 15.3682 28.5584 15.3187C28.6508 15.2974 28.7432 15.2549 28.8284 15.3328C28.8071 15.4603 28.7005 15.4744 28.6295 15.5098C28.4945 15.5807 28.3453 15.6302 28.2103 15.7081C27.9829 15.8427 27.9687 15.9772 28.1676 16.1471C28.2174 16.1896 28.2671 16.225 28.3169 16.2604C28.6082 15.8285 28.9137 15.4107 29.2761 15C29.2477 15.1983 29.2477 15.1983 29.0985 15.3753C29.0132 15.4815 28.9279 15.5807 28.8071 15.7223C29.0771 15.6444 29.1979 15.4107 29.4679 15.3682C29.2619 15.6019 29.07 15.8143 28.8782 16.0268C29.1553 15.9276 29.2903 15.6302 29.6171 15.6302C29.2406 15.8427 28.9563 16.1613 28.6792 16.48C28.7077 16.4941 28.729 16.5154 28.7574 16.5295C28.8995 16.4021 29.0345 16.2675 29.2121 16.2109C29.2335 16.2392 29.2477 16.2746 29.269 16.3029C29.1553 16.4162 29.0345 16.5154 28.9208 16.6357C28.9563 16.657 28.9919 16.6782 29.0274 16.6995C29.134 16.6145 29.2406 16.5295 29.3827 16.4658C29.2974 16.5791 29.1979 16.6641 29.1198 16.7561C29.1411 16.7703 29.1624 16.7844 29.1837 16.7915C29.2192 16.8128 29.269 16.834 29.3045 16.8694C29.3685 16.8269 29.4395 16.7915 29.5248 16.8198C29.4679 16.8694 29.404 16.9119 29.34 16.9544C29.3471 16.9756 29.3471 17.004 29.34 17.0323C29.3045 17.0252 29.2761 17.011 29.2406 17.004C29.0771 17.0889 28.9066 17.1527 28.7361 17.2376C28.7716 17.2589 28.8142 17.2872 28.8498 17.3084C28.9777 17.2518 29.1127 17.2022 29.2548 17.1739V17.4288C29.3827 17.3368 29.4893 17.2589 29.6598 17.2943C29.3614 17.5846 29.0203 17.8183 28.8142 18.1794C29.07 18.0449 29.2406 17.797 29.5248 17.6979C29.3685 17.9387 29.1766 18.144 28.9777 18.3635C29.0913 18.4768 29.2121 18.583 29.3258 18.6963C29.4324 18.6751 29.5319 18.6539 29.6456 18.6468C29.5674 18.6963 29.4893 18.7388 29.4111 18.7813C29.4821 18.8521 29.5532 18.9229 29.6243 18.9867C29.9085 18.8238 30.2069 18.7034 30.5409 18.6468C30.7185 18.6184 30.9174 18.6043 31.0098 18.3777C31.1803 19.1283 31.2514 19.886 31.3153 20.6436C31.429 20.7569 31.5427 20.8702 31.6564 20.9835C31.6493 20.9198 31.6422 20.8632 31.6351 20.7994C31.5285 19.886 31.4717 18.9725 31.2798 18.0661C31.1022 17.2518 30.9317 16.4375 30.6759 15.6444C30.619 15.4603 30.5195 15.3541 30.3206 15.3399C30.2282 15.3328 30.1358 15.3045 30.0364 15.2832C30.1287 15.0496 30.4201 14.9292 30.349 14.6389C30.1572 14.5822 30.0719 14.7734 29.9085 14.7876C29.9227 14.6814 29.9937 14.6318 30.0435 14.5751C30.1287 14.4831 30.1785 14.3344 30.1429 14.2494C30.0435 14.037 30.1287 13.867 30.2069 13.6829C30.2424 13.605 30.2566 13.5201 30.2353 13.4209C30.214 13.3005 30.2566 13.166 30.4058 13.0952C30.7469 12.9323 31.088 12.7624 31.4503 12.6349C31.5427 12.5995 31.6564 12.5995 31.6919 12.4437C31.6067 12.3871 31.5498 12.2879 31.4219 12.2455C31.1661 12.1676 30.9174 12.0755 30.6616 11.9976C29.9795 11.7923 29.2832 11.7356 28.5798 11.7427C28.4732 11.7427 28.3524 11.7639 28.2387 11.6719C28.3382 11.6082 28.4163 11.5657 28.5016 11.5303C28.8071 11.4028 29.1269 11.332 29.4466 11.2399C29.5248 11.2187 29.6385 11.2187 29.674 11.0417C28.5016 10.7797 27.315 10.6664 26.1213 10.6168C26.1355 10.3123 26.5263 10.2061 26.5192 9.83789C25.6594 10.0645 24.8352 10.2769 23.9896 10.4964C24.0394 10.2628 24.1602 10.0999 24.2383 9.92994C24.3236 9.75291 24.5652 9.6821 24.5865 9.42718C23.6983 9.51924 22.8386 9.6467 21.9788 9.9087C22.0286 9.61129 22.1351 9.39178 22.2559 9.16518C22.3554 8.98107 22.3128 8.90318 22.1138 8.91026C21.5027 8.9315 20.9272 9.06605 20.4085 9.40594C20.373 9.42718 20.3446 9.44842 20.3161 9.47675C20.2877 9.44842 20.2593 9.42718 20.2238 9.40594C19.7051 9.07313 19.1224 8.93859 18.5185 8.91026C18.3195 8.90318 18.2769 8.98107 18.3764 9.16518C18.4972 9.38469 18.6037 9.61129 18.6535 9.9087C17.7937 9.6467 16.934 9.51924 16.0458 9.42718C16.0671 9.6821 16.3087 9.75291 16.3939 9.92994C16.4721 10.107 16.5929 10.2628 16.6426 10.4964C15.7971 10.2769 14.9729 10.0645 14.1131 9.83789C14.106 10.199 14.4968 10.3123 14.511 10.6168C13.3173 10.6664 12.1307 10.7797 10.9583 11.0417C10.9938 11.2187 11.1004 11.2116 11.1857 11.2399C11.5054 11.332 11.8252 11.4028 12.1307 11.5303C12.216 11.5657 12.2941 11.6082 12.3936 11.6719C12.2799 11.7639 12.1591 11.7427 12.0525 11.7427C11.3491 11.7356 10.6457 11.7923 9.97064 11.9976C9.71484 12.0755 9.46615 12.1676 9.21036 12.2455C9.08957 12.2809 9.03272 12.3871 8.94035 12.4437C8.97588 12.5995 9.08957 12.5995 9.18194 12.6349C9.53721 12.7624 9.87827 12.9323 10.2264 13.0952C10.3756 13.166 10.4183 13.3005 10.397 13.4209C10.3828 13.5201 10.397 13.605 10.4254 13.6829C10.5035 13.867 10.5888 14.0299 10.4893 14.2494C10.4467 14.3344 10.5035 14.476 10.5888 14.5751C10.6385 14.6318 10.7096 14.6884 10.7238 14.7876C10.5604 14.7734 10.4751 14.5822 10.2833 14.6389C10.2122 14.9292 10.4964 15.0496 10.5959 15.2832C10.5035 15.3045 10.4041 15.3328 10.3117 15.3399C10.1127 15.3541 10.0133 15.4532 9.95643 15.6444C9.70063 16.4375 9.5301 17.2518 9.35247 18.0661C9.15352 18.9654 9.10378 19.886 8.9972 20.7994C8.99009 20.8702 8.98299 20.9481 8.97588 21.0189C8.97588 21.0543 8.97588 21.0827 8.96877 21.111C8.97588 21.1393 8.99009 21.1606 8.99009 21.196C8.99009 21.2172 8.9972 21.2385 8.9972 21.2597C9.09667 21.1606 9.19615 21.0614 9.29562 20.9623C9.34536 20.9127 9.3951 20.8632 9.44484 20.8207C9.80721 20.4595 10.1696 20.1055 10.5391 19.7514C10.5462 19.7443 10.5533 19.7373 10.5604 19.7302C10.8517 19.4469 11.1359 19.1708 11.4273 18.8875C11.5552 18.7671 11.6759 18.6397 11.7967 18.5193C11.9104 18.406 12.017 18.2927 12.1307 18.1794C12.2231 18.0803 12.3225 17.9882 12.422 17.8962C12.4575 17.8678 12.486 17.8324 12.5144 17.797C12.5783 17.7191 12.6352 17.6342 12.5783 17.528C12.5215 17.4147 12.4149 17.3934 12.3012 17.3934C12.2799 17.3934 12.2657 17.3934 12.2444 17.4005C12.2373 17.4005 12.2373 17.4005 12.2302 17.4005C12.216 17.4005 12.1946 17.4076 12.1804 17.4147C12.1378 17.4217 12.0952 17.4359 12.0454 17.4359C12.0312 17.4359 12.017 17.4359 12.0028 17.4359C11.9886 17.4359 11.9744 17.4359 11.9531 17.4288C12.081 17.3368 12.2088 17.2589 12.3296 17.181L12.3367 17.1739C12.3581 17.1597 12.3865 17.1456 12.4078 17.1243C12.4149 17.1173 12.422 17.1102 12.4291 17.1102C12.4504 17.096 12.4646 17.0818 12.486 17.0677C12.4931 17.0606 12.5073 17.0535 12.5144 17.0464C12.5357 17.0323 12.5499 17.0181 12.5641 17.004C12.5712 16.9969 12.5783 16.9898 12.5854 16.9827C12.6068 16.9615 12.6352 16.9402 12.6565 16.919C12.6778 16.8977 12.6991 16.8836 12.7133 16.8623C12.7347 16.8411 12.7489 16.8269 12.7702 16.8057C12.827 16.7561 12.8625 16.6924 12.8412 16.6145C12.8128 16.5224 12.7275 16.4941 12.6494 16.4941C12.5996 16.4941 12.5499 16.5012 12.5002 16.5083C12.4575 16.5154 12.4149 16.5224 12.3652 16.5295C12.3296 16.5366 12.287 16.5366 12.2515 16.5437C12.3154 16.5012 12.3794 16.4658 12.4433 16.4162C12.5357 16.3525 12.621 16.2817 12.6991 16.1967C12.9123 15.9701 12.8981 15.8214 12.6423 15.6515C12.5925 15.6161 12.5357 15.5877 12.486 15.5382C12.6707 15.5807 12.8554 15.5877 13.0402 15.5807C13.431 15.5665 13.5518 15.3895 13.431 15.0212C13.4239 15.0071 13.431 14.9858 13.431 14.9575C13.6157 15.0708 13.7507 15.2266 13.907 15.347C14.0918 15.4886 14.2907 15.6019 14.5323 15.3965C14.7242 15.6019 14.9018 15.8285 15.186 15.7152C15.4702 15.9914 15.5768 16.3596 15.8326 16.657C15.1718 16.7561 15.3068 17.2235 15.3779 17.6413C15.2855 17.6837 15.25 17.6058 15.2073 17.5775C14.9729 17.4359 14.8165 17.4713 14.6531 17.6979C14.5394 17.8537 14.4684 18.0236 14.4115 18.2077C14.3831 18.2998 14.3618 18.3989 14.3334 18.4981C14.2623 18.3706 14.1771 18.2573 14.0207 18.2573C13.8715 18.2644 13.772 18.3564 13.7081 18.4839C13.6868 18.5335 13.6655 18.583 13.6441 18.6397C13.6228 18.6893 13.6015 18.7317 13.5873 18.7813C13.566 18.838 13.5376 18.8946 13.5162 18.9513C13.502 18.9867 13.4878 19.0221 13.4736 19.0575C13.4665 19.0716 13.4594 19.0858 13.4594 19.1C13.431 19.1779 13.4168 19.2628 13.3528 19.3266C13.2036 19.0362 13.1112 18.9654 12.9052 19.1C12.8839 19.1141 12.8625 19.1283 12.8412 19.1424C12.8341 19.1424 12.8341 19.1495 12.827 19.1495C12.8057 19.1637 12.7844 19.1849 12.756 19.2062C12.756 19.2062 12.7489 19.2062 12.7489 19.2133C12.6565 19.2911 12.5712 19.369 12.486 19.454C12.422 19.5177 12.351 19.5886 12.287 19.6523C12.2799 19.6594 12.2728 19.6664 12.2728 19.6664C12.2088 19.7373 12.1449 19.8081 12.081 19.886C12.0667 19.9001 12.0596 19.9143 12.0454 19.9284C11.8465 20.1692 11.6404 20.4029 11.4415 20.6436C11.3136 20.7923 11.1857 20.941 11.0649 21.0827C11.0293 21.1252 10.9938 21.1606 10.9583 21.203C10.4822 21.7625 10.0062 22.3289 9.55142 22.9096C9.50879 22.9592 9.47326 23.0158 9.43063 23.0654C9.36668 23.1503 9.30273 23.2282 9.23878 23.3132C9.14641 23.4336 9.04693 23.5611 8.95456 23.6814C8.96167 23.7593 8.96877 23.8372 8.97588 23.9151C8.9972 24.0851 9.02562 24.255 9.04693 24.4249C9.11799 24.9844 9.11799 25.5367 8.99009 26.0819C8.89772 26.4714 8.7343 26.8254 8.41455 27.1016C8.96167 26.9671 9.38089 26.5847 9.90669 26.3722C9.87116 26.6413 9.83564 26.9033 9.80721 27.1653C9.77879 27.4273 9.72195 27.6893 9.75748 27.9726C9.94932 27.9301 10.0133 27.8097 10.0914 27.7035C10.2691 27.4557 10.4538 27.2149 10.6741 27.0025C10.7593 26.9175 10.8659 26.8467 11.008 26.7334C10.9086 27.052 10.7878 27.3069 10.7238 27.6327C11.0293 27.3919 11.2994 27.1937 11.6262 27.0874C11.8749 27.0095 11.9246 27.0166 12.0454 27.2503C12.2444 27.6327 12.2657 28.0221 12.1378 28.4258C11.9957 28.886 11.5196 29.2118 11.0365 29.1834C10.9867 29.1834 10.937 29.1622 10.9086 29.2259C11.5836 29.6225 13.1254 29.3392 14.0989 28.0221C14.0634 28.1921 14.042 28.3125 14.0207 28.4399C13.9639 28.8152 13.9568 29.1905 14.0847 29.5658C14.1273 29.7004 14.1486 29.842 14.1771 29.9836C14.3334 30.0261 14.3192 29.8916 14.3476 29.8207C14.4542 29.5375 14.5963 29.2755 14.7952 29.0347C14.781 29.4242 14.9515 29.7712 14.9302 30.1606C14.9089 30.543 14.8165 30.9041 14.7739 31.2865C15.4205 30.7342 15.6834 29.9907 15.8539 29.1905C16.1026 29.3888 16.1666 29.6791 16.2803 29.9836C16.5147 29.8632 16.6355 29.6437 16.8061 29.403C16.8984 29.9128 16.934 30.3801 16.8913 30.8546C17.3745 30.4226 17.7298 29.9199 17.9571 29.2613C18.0992 29.8278 17.8932 30.3093 17.8292 30.8121C18.3195 30.2881 18.6819 29.7074 18.8382 28.9993C18.8951 29.4879 18.9945 29.9553 19.1295 30.4085C19.2787 30.4226 19.2788 30.3306 19.3001 30.2456C19.3995 29.8278 19.499 29.41 19.5985 28.9923C19.6198 28.9002 19.6411 28.8152 19.6767 28.7232C19.698 29.0843 19.8117 29.4171 19.9396 29.7499C20.0177 29.9482 20.0888 30.1535 20.2025 30.3377C20.2451 30.3872 20.2877 30.4439 20.3232 30.4934C20.3304 30.4864 20.3375 30.4722 20.3446 30.4651C20.3659 30.4226 20.3943 30.3872 20.4227 30.3518C20.4227 30.3518 20.4227 30.3447 20.4156 30.3447C20.5293 30.1606 20.6004 29.9553 20.6785 29.757C20.8064 29.4313 20.9201 29.0914 20.9414 28.7303C20.9769 28.8223 20.9983 28.9073 21.0196 28.9993C21.1191 29.4171 21.2185 29.8349 21.318 30.2527C21.3393 30.3306 21.3393 30.4297 21.4885 30.4156C21.6306 29.9624 21.723 29.495 21.7799 29.0064C21.9362 29.7145 22.2986 30.2952 22.7888 30.8192C22.7178 30.3164 22.5117 29.842 22.6609 29.2684C22.8883 29.927 23.2436 30.4297 23.7267 30.8617C23.6912 30.3801 23.7196 29.9199 23.812 29.41C23.9825 29.6579 24.1033 29.8703 24.3378 29.9907C24.4515 29.6862 24.5154 29.3959 24.7641 29.1976C24.9347 29.9978 25.1976 30.7413 25.8442 31.2936C25.8015 30.9112 25.7021 30.5501 25.6878 30.1677C25.6665 29.7853 25.8371 29.4313 25.8228 29.0418C26.0147 29.2826 26.1568 29.5446 26.2705 29.8278C26.2989 29.8986 26.2847 30.0332 26.441 29.9907C26.4694 29.8491 26.4837 29.7074 26.5334 29.5729C26.6613 29.2047 26.6542 28.8294 26.5973 28.447C26.576 28.3266 26.5547 28.1992 26.5192 28.0292C27.4926 29.3534 29.0345 29.6296 29.7095 29.233C29.6811 29.1693 29.6243 29.1905 29.5816 29.1905C29.0985 29.2118 28.6224 28.886 28.4803 28.4328C28.3524 28.0292 28.3737 27.6398 28.5726 27.2574C28.6934 27.0308 28.7432 27.0166 28.9919 27.0945C29.3187 27.2007 29.5887 27.4061 29.8943 27.6398C29.8303 27.314 29.7095 27.0591 29.61 26.7405C29.7521 26.8538 29.8587 26.9246 29.944 27.0095C30.1643 27.222 30.3561 27.4627 30.5266 27.7106C30.6048 27.8168 30.6688 27.9372 30.8606 27.9797C30.8961 27.6964 30.8393 27.4344 30.8109 27.1724C30.7966 26.9387 30.754 26.6838 30.7256 26.4076ZM30.0293 23.0725C29.8729 23.0583 29.7379 23.0371 29.6029 23.03C29.4182 23.0229 29.2335 23.0229 29.0487 23.0654C28.8995 23.1008 28.7432 23.0937 28.6082 23.0087C28.6224 23.037 28.6437 23.0654 28.665 23.1079C28.5798 23.1645 28.5016 23.2141 28.4021 23.1362C27.9261 22.7821 27.3505 22.6193 26.8318 22.3289C27.2866 22.4068 27.6916 22.683 28.1605 22.7184C27.9261 22.5414 27.6774 22.3927 27.3434 22.2935C27.6276 22.2015 27.8337 22.3431 28.0397 22.3643C28.1037 22.336 27.99 22.2652 28.0966 22.244C28.2813 22.2015 28.4661 22.1873 28.6508 22.2156C29.0771 22.2935 29.7095 22.6901 30.0293 23.0725ZM27.1231 21.1606C27.6276 21.3234 28.1108 21.5359 28.5869 21.7837C28.6224 21.8049 28.6508 21.8333 28.6934 21.8616C28.2529 22.0457 27.3221 22.0599 26.6897 21.9961C26.9952 21.9112 27.2937 21.9749 27.5992 21.8191C27.4429 21.7483 27.3292 21.72 27.1942 21.7483C27.0592 21.7766 26.9242 21.7766 26.7821 21.7695C26.8247 21.6987 26.91 21.7483 26.9526 21.6846C26.7181 21.5783 26.4694 21.6562 26.235 21.6137C26.2136 21.5783 26.2492 21.5854 26.2634 21.5713C26.2847 21.5571 26.306 21.55 26.2989 21.4934C26.2136 21.4296 26.1 21.4934 25.9934 21.458C26.0289 21.3517 26.1497 21.3872 26.2136 21.3305C26.1994 21.2951 26.1852 21.2668 26.171 21.2385C26.2776 21.2314 26.3842 21.2172 26.4979 21.2101C26.235 21.0473 25.9579 21.1606 25.6878 21.1535C26.171 20.9481 26.6542 21.0048 27.1231 21.1606ZM28.7787 15.2762C28.9777 14.8584 29.2974 14.5397 29.6171 14.2211C29.4111 14.6318 29.0629 14.9363 28.7787 15.2762ZM29.1908 14.4548C29.2761 14.2282 29.3969 14.0157 29.404 13.7325C29.5248 13.8245 29.5887 13.8741 29.6669 13.9308C29.5532 14.1503 29.3756 14.299 29.1908 14.4548ZM30.278 15.4744C30.4769 15.7506 30.484 16.048 30.5835 16.3029C30.683 16.572 30.7469 16.8482 30.8038 17.1314C30.8606 17.4076 30.9388 17.6837 30.9672 18.0236C30.5906 17.8324 30.2353 17.9528 29.8374 17.9741C29.9937 17.8324 30.1572 17.8183 30.3064 17.79C30.4485 17.7616 30.5977 17.7616 30.619 17.5634C30.6261 17.5209 30.7043 17.4855 30.754 17.443C30.6261 17.3863 30.5195 17.3438 30.413 17.2943C30.6545 17.1031 30.6403 16.9331 30.349 16.7278C30.4343 16.6782 30.5195 16.6499 30.5409 16.5508C30.4485 16.4375 30.3419 16.5366 30.2282 16.5437C30.4911 16.2038 30.3561 15.8922 29.9085 15.8285C30.0008 15.6798 30.2211 15.701 30.278 15.4744ZM24.6718 10.4823C25.226 10.3548 25.7731 10.1636 26.37 10.0503C26.2065 10.2911 26.0076 10.4752 26.0289 10.7797C27.1231 10.808 28.2032 10.9496 29.3329 11.1266C29.0558 11.2116 28.8284 11.2683 28.6153 11.3532C28.395 11.4382 28.2032 11.5586 28.0255 11.7498C28.2174 11.8702 28.4021 11.8702 28.5798 11.8702C29.1553 11.8702 29.7379 11.8702 30.2922 12.0259C30.6688 12.1322 31.0595 12.2242 31.4503 12.4791C30.8251 12.7057 30.278 12.9748 29.7735 13.3218C29.7522 13.1094 29.7379 13.1023 30.4556 12.5924C29.6598 12.8332 28.9421 13.2722 28.1463 13.5271C28.4661 13.2722 28.8498 13.1235 29.1979 12.8474C29.0061 12.7978 28.8782 12.8757 28.7645 12.9394C28.2813 13.2014 27.8053 13.4705 27.3718 13.8175C27.2297 13.9308 27.0734 14.0228 26.8389 14.0936C27.5139 13.4209 28.2742 12.9677 29.0061 12.4579C28.2529 12.7978 27.5992 13.2793 26.9597 13.8104C27.0023 13.6546 27.4713 13.1377 27.6916 12.9677C27.9829 12.7411 28.3595 12.6632 28.6366 12.4012C28.2103 12.4366 27.8834 12.7057 27.5139 12.8757C27.6703 12.6491 27.9829 12.5924 28.125 12.3163C27.99 12.295 27.9118 12.3588 27.8266 12.4154C27.5708 12.5924 27.3079 12.7695 27.0521 12.9394C26.9029 13.0385 26.7537 13.1235 26.576 13.1589C27.0876 12.7411 27.6845 12.4437 28.1961 12.0259C27.1587 12.5641 26.2279 13.2581 25.2544 13.8954C25.901 13.3289 26.6471 12.8969 27.2724 12.3092C27.0308 12.3871 26.8034 12.4933 26.5973 12.642C26.0218 13.0456 25.4676 13.4705 24.9205 13.9166C24.7712 14.037 24.622 14.1503 24.4231 14.1857C24.8281 13.7537 25.2899 13.3855 25.7376 13.0031C26.1852 12.6208 26.7394 12.3871 27.1942 11.9197C26.9242 11.941 26.7537 12.0401 26.5831 12.1534C25.8442 12.6349 25.1691 13.2014 24.5226 13.7962C24.4515 13.867 24.3733 13.9308 24.2881 13.9803C24.821 13.2722 25.432 12.642 26.1568 12.1251C25.8442 12.2738 25.5102 12.3942 25.2402 12.6208C24.821 12.9677 24.4728 13.3855 24.1318 13.8033C24.082 13.867 24.0394 13.9449 23.9541 13.9803C24.0039 13.7821 24.2241 13.4634 24.5936 13.0881C24.8565 12.819 25.1336 12.5712 25.3894 12.3021C24.6291 12.7836 24.0962 13.4776 23.606 14.214C23.7196 13.867 23.9257 13.5909 24.146 13.3147C24.4231 12.9748 24.7215 12.6491 25.0341 12.3446C25.1265 12.2525 25.2331 12.1676 25.2331 12.0047C24.4231 12.7199 23.7196 13.513 23.2578 14.5043C23.3786 13.9874 23.6486 13.5413 23.947 13.1235C24.2454 12.7057 24.5936 12.3234 24.8565 11.8843C24.3876 12.2525 24.0465 12.7411 23.7054 13.2226C23.3573 13.7112 23.1157 14.2565 22.938 14.823C22.9096 14.476 23.1228 13.9449 23.6202 13.0244C23.9328 12.4437 24.3094 11.9056 24.7357 11.4028C24.5012 11.5515 24.2739 11.7215 24.1175 11.9551C23.5278 12.8119 23.0162 13.7112 22.7533 14.7309C22.7462 14.7592 22.7249 14.7876 22.6822 14.8584C22.7604 13.7608 23.272 12.8898 23.8333 12.0401C23.542 12.2455 23.3431 12.5216 23.1583 12.819C23.1441 12.7695 23.1299 12.7341 23.1157 12.6916C22.9878 12.7695 22.9878 12.9323 22.867 13.0456C22.938 12.6703 23.2152 12.4083 23.2507 12.0543C22.9096 12.5075 22.7533 13.0456 22.5401 13.5555C22.6609 12.8898 22.9452 12.2809 23.2152 11.6648C22.9238 12.0472 22.7036 12.4791 22.4336 12.8686C22.533 12.4721 22.7675 12.1392 22.8954 11.7569C22.5686 12.1392 22.398 12.6066 22.1707 13.0456C22.263 12.642 22.3696 12.2525 22.5046 11.856C22.1351 12.4154 21.9291 13.0244 21.9007 13.6971C21.8083 13.5271 21.8154 13.4634 21.8864 13.0244C21.922 12.7907 22.0001 12.5641 21.9859 12.3234C21.7941 12.5995 21.8225 12.9394 21.7301 13.2722C21.4814 12.8544 21.8438 12.5145 21.8367 12.1251C21.6449 12.3021 21.6662 12.557 21.5596 12.7482C21.4672 12.6562 21.4743 12.6562 21.5951 12.2879C21.6449 12.1392 21.7372 11.9905 21.7088 11.8206C21.453 12.1676 21.4672 12.642 21.1546 13.0244C21.1475 12.7411 21.3038 12.5358 21.2825 12.295C21.0906 12.5924 21.0906 12.9606 20.9343 13.2722C20.9059 13.0173 20.9769 12.7624 20.9556 12.4933C20.7993 12.5783 20.8633 12.7057 20.8135 12.8049C20.6927 12.4791 20.9485 11.3816 21.2114 11.1266C21.3251 11.2399 21.2398 11.4524 21.4175 11.5373C22.0499 11.0558 22.6325 10.4752 23.4283 10.2203C23.2933 10.4539 23.2081 10.7089 23.0517 10.9496C23.5989 10.8292 24.1175 10.6097 24.6718 10.4823ZM16.3229 9.66086C16.4508 9.63253 16.5645 9.65378 16.6711 9.67502C16.7421 9.67502 16.8061 9.68918 16.87 9.71043C17.4811 9.81664 18.085 9.92286 18.6677 10.1282C18.8311 10.1849 18.9022 10.1211 18.8666 9.93702C18.8169 9.65378 18.7032 9.39178 18.5753 9.10853C19.1935 9.13686 19.7619 9.2714 20.2806 9.57588C20.2877 9.57588 20.3019 9.58297 20.309 9.58297C20.3161 9.59005 20.3232 9.59005 20.3304 9.59713C20.3375 9.59005 20.3446 9.59005 20.3517 9.58297C20.3588 9.57588 20.373 9.57588 20.3801 9.5688C20.8988 9.26432 21.4601 9.12978 22.0854 9.10145C21.9575 9.38469 21.8438 9.6467 21.7941 9.92994C21.7585 10.107 21.8296 10.1778 21.993 10.1211C22.5259 9.93702 23.073 9.8308 23.6202 9.73167C23.741 9.68918 23.8689 9.67502 23.9968 9.66794C24.1033 9.6467 24.2099 9.62545 24.3378 9.65378C24.082 10.0786 23.6628 10.3477 23.3644 10.7159C23.471 10.4256 23.677 10.2132 23.8902 10.0078C23.9399 9.95826 23.9968 9.92286 24.0394 9.86621C23.9399 9.87329 23.8404 9.87329 23.741 9.90162C23.6841 9.93702 23.6131 9.95826 23.5349 9.97243C23.3928 9.99367 23.2578 10.0574 23.1299 10.114C22.9523 10.199 22.7746 10.2911 22.5615 10.3973C22.6822 10.2203 22.8883 10.1778 22.9736 10.0149C22.9167 9.97243 22.8812 10.0008 22.8457 10.022C22.4193 10.3052 22.057 10.6735 21.7159 11.0983C21.8083 10.6805 22.1636 10.461 22.3057 10.1211C21.922 10.3619 21.6875 10.7159 21.517 11.1337C21.4459 10.8859 21.7585 10.6947 21.588 10.461C21.4885 10.4185 21.453 10.5389 21.3749 10.5248C21.3464 10.4752 21.4175 10.4256 21.3677 10.376C21.2185 10.5035 21.1119 10.6593 21.048 10.8434C20.9769 11.0346 20.913 11.2258 20.8419 11.417C20.778 11.5798 20.7709 11.7639 20.6643 11.9197C20.6501 11.2399 20.9485 10.6239 21.0693 9.97243C20.8562 10.2273 20.7069 10.5177 20.6004 10.8222C20.6004 10.8151 20.6004 10.808 20.6004 10.8009C20.5861 10.6876 20.5861 10.5743 20.5719 10.4681C20.5861 10.3336 20.5933 10.199 20.5719 10.0574C20.5506 10.0928 20.5364 10.1211 20.5222 10.1565C20.5009 10.0645 20.4583 9.97243 20.4085 9.88745C20.373 9.9441 20.3517 9.99367 20.3304 10.0362C20.309 9.99367 20.2877 9.95118 20.2522 9.88745C20.1953 9.97243 20.1598 10.0645 20.1385 10.1565C20.1243 10.1211 20.103 10.0928 20.0888 10.0574C20.0675 10.199 20.0746 10.3406 20.0888 10.4681C20.0817 10.5814 20.0746 10.6947 20.0603 10.8009C20.0603 10.808 20.0603 10.8151 20.0603 10.8222C19.9538 10.5248 19.8117 10.2415 19.5985 9.98659C19.7193 10.638 20.0177 11.2541 20.0035 11.9339C19.8969 11.7852 19.8898 11.6011 19.8259 11.4311C19.7548 11.2399 19.6909 11.0488 19.6198 10.8576C19.5488 10.6735 19.4493 10.5177 19.3001 10.3902C19.2503 10.4398 19.3214 10.4893 19.293 10.5389C19.2148 10.5531 19.1793 10.4327 19.0798 10.4752C18.9093 10.7018 19.2219 10.893 19.1509 11.1479C18.9803 10.7301 18.7458 10.376 18.3622 10.1353C18.5043 10.4823 18.8595 10.6947 18.9519 11.1125C18.6037 10.6876 18.2485 10.3194 17.8221 10.0362C17.7866 10.0149 17.7511 9.98659 17.6942 10.0291C17.7795 10.1919 17.9856 10.2344 18.1064 10.4115C17.8932 10.3052 17.7156 10.2132 17.5379 10.1282C17.41 10.0645 17.275 10.0008 17.1329 9.98659C17.0903 9.97951 17.0476 9.97243 17.005 9.95826C16.9766 9.95826 16.9482 9.95118 16.9197 9.95118C16.8558 9.9441 16.7919 9.93702 16.735 9.92286C16.6995 9.91578 16.6711 9.90162 16.6355 9.89453C16.6782 9.9441 16.735 9.98659 16.7776 10.0291C16.9908 10.2344 17.1969 10.4469 17.3034 10.7372C16.9979 10.3548 16.5787 10.0857 16.3229 9.66086ZM9.85695 17.1243C9.9138 16.8411 9.97774 16.5649 10.0772 16.2958C10.1767 16.0409 10.1838 15.7506 10.3828 15.4674C10.4396 15.694 10.6599 15.6727 10.7451 15.8214C10.3046 15.8851 10.1625 16.1896 10.4254 16.5366C10.3188 16.5295 10.2122 16.4304 10.1127 16.5437C10.1341 16.6428 10.2193 16.6711 10.3046 16.7207C10.0133 16.919 9.99906 17.096 10.2406 17.2872C10.1341 17.3368 10.0275 17.3793 9.89959 17.4359C9.94932 17.4784 10.0275 17.5138 10.0346 17.5563C10.0559 17.7546 10.2051 17.7546 10.3472 17.7829C10.4964 17.8183 10.6599 17.8254 10.8162 17.967C10.4183 17.9528 10.0559 17.8254 9.68642 18.0166C9.72195 17.6767 9.80011 17.4005 9.85695 17.1243ZM10.9583 19.1C10.5959 18.9867 10.2193 18.9583 9.83564 18.9725C9.76458 18.9725 9.68642 18.9725 9.67221 19.0504C9.6509 19.1566 9.74327 19.1566 9.81432 19.1849C9.89248 19.2203 10.0133 19.1779 10.0488 19.3053C9.97064 19.3053 9.89248 19.2982 9.82143 19.3053C9.75748 19.3124 9.70063 19.3336 9.70774 19.4115C9.70774 19.4682 9.73616 19.5107 9.793 19.5177C9.98485 19.539 10.1625 19.6452 10.3472 19.7019C10.3259 19.7231 10.3046 19.7443 10.2833 19.7656C10.1909 19.7585 10.0914 19.7443 9.99906 19.7302C9.9209 19.7231 9.80721 19.6948 9.80011 19.8152C9.7859 19.9214 9.87827 19.9284 9.96353 19.9214C10.0204 19.9214 10.0559 19.9355 10.0843 19.9639C10.0133 20.0347 9.94222 20.1055 9.87116 20.1692C9.71484 20.2188 9.62247 20.3179 9.57984 20.4595C9.49458 20.5445 9.41642 20.6224 9.33115 20.7074C9.3951 19.9284 9.45905 19.1495 9.63668 18.3848C9.72905 18.6043 9.92801 18.6184 10.1056 18.6539C10.4467 18.7105 10.7664 18.838 11.0578 19.0079C11.008 19.0504 10.9796 19.0787 10.9583 19.1ZM11.2496 18.8167C11.1644 18.7671 11.072 18.7176 10.9867 18.6609C11.1146 18.668 11.2354 18.6963 11.3491 18.7176C11.3136 18.753 11.2851 18.7884 11.2496 18.8167ZM12.2444 17.5421C12.2728 17.5563 12.3012 17.5704 12.3367 17.5846C12.3296 17.5704 12.3154 17.5634 12.3083 17.5492C12.351 17.5563 12.3936 17.5634 12.4362 17.5846C12.4149 17.6908 12.3581 17.7687 12.2941 17.8254C12.0881 18.0166 11.882 18.2148 11.6759 18.406C11.477 18.1794 11.2638 17.967 11.1075 17.7191C11.3917 17.8183 11.5623 18.0661 11.8181 18.2007C11.612 17.8395 11.2709 17.6058 10.9725 17.3155C11.143 17.2801 11.2496 17.358 11.3775 17.4501V17.1951C11.5338 17.2235 11.6759 17.2801 11.8181 17.3438C11.7683 17.3722 11.7257 17.4005 11.6759 17.4288C11.5978 17.4713 11.4841 17.4996 11.5125 17.6483C11.7612 17.6837 11.9957 17.535 12.2444 17.5421ZM10.9938 13.9237C11.0649 13.867 11.1288 13.8175 11.2567 13.7254C11.2709 14.0087 11.3846 14.2211 11.4699 14.4477C11.2851 14.299 11.1075 14.1503 10.9938 13.9237ZM11.882 15.2762C11.5978 14.9292 11.2496 14.6318 11.0436 14.2211C11.3633 14.5468 11.683 14.8655 11.882 15.2762ZM11.6475 16.7278C11.612 16.749 11.5836 16.7703 11.548 16.7844C11.4699 16.6853 11.3633 16.6003 11.2709 16.4729C11.4201 16.5437 11.5338 16.6428 11.6475 16.7278ZM11.3846 16.3171C11.4059 16.2888 11.4201 16.2534 11.4415 16.225C11.6333 16.2888 11.7683 16.4304 11.9175 16.5649C11.8607 16.6003 11.8038 16.6287 11.747 16.6641C11.6404 16.5437 11.5054 16.4375 11.3846 16.3171ZM11.3775 16.9119C11.3633 16.9331 11.3491 16.9615 11.3491 16.9969C11.2709 16.9544 11.1928 16.8977 11.1217 16.834C11.2283 16.8057 11.2994 16.8553 11.3775 16.9119ZM12.5996 16.6641C12.6068 16.6782 12.621 16.6924 12.6281 16.7065C12.5996 16.7844 12.5428 16.8128 12.5002 16.8553C12.3225 17.011 12.1307 17.1456 11.9317 17.273C11.7612 17.1881 11.5836 17.1173 11.4201 17.0323C11.4699 17.0181 11.5125 17.004 11.5552 16.9898C11.5836 16.9898 11.6049 16.9898 11.6333 16.9827C11.6333 16.9756 11.6262 16.9685 11.6262 16.9615C11.6973 16.9331 11.7754 16.9048 11.8465 16.8765C11.8749 16.8907 11.9033 16.9048 11.9388 16.919C11.9246 16.8977 11.9104 16.8765 11.9033 16.8553C11.9957 16.8198 12.081 16.7844 12.1733 16.7561C12.1946 16.7703 12.216 16.7774 12.2373 16.7915C12.2231 16.7774 12.2088 16.7632 12.2017 16.749C12.3296 16.7136 12.4575 16.6782 12.5996 16.6641ZM12.2373 16.3737C12.1591 16.4233 12.0738 16.4729 11.9957 16.5154C11.7115 16.1896 11.4273 15.8639 11.0436 15.6444C11.3704 15.6444 11.5054 15.9418 11.7825 16.0409C11.5907 15.8285 11.4059 15.6161 11.1928 15.3824C11.4628 15.4249 11.5836 15.6656 11.8536 15.7364C11.7328 15.5948 11.6475 15.4886 11.5623 15.3895C11.413 15.2054 11.413 15.2054 11.3846 15.0142C11.7541 15.4249 12.0667 15.8568 12.3652 16.2958C12.3225 16.3242 12.2799 16.3525 12.2373 16.3737ZM13.2889 13.8245C12.8625 13.4776 12.3794 13.2085 11.8962 12.9465C11.7825 12.8828 11.6546 12.8119 11.4628 12.8544C11.8109 13.1306 12.2017 13.2793 12.5144 13.5342C11.7186 13.2864 11.0009 12.8474 10.2051 12.5995C10.9228 13.1094 10.9086 13.1164 10.8872 13.3289C10.3756 12.9819 9.83564 12.7057 9.21036 12.4862C9.60826 12.2313 9.99196 12.1392 10.3685 12.033C10.9299 11.8772 11.5054 11.8772 12.081 11.8772C12.2657 11.8772 12.4504 11.8772 12.6352 11.7569C12.4646 11.5657 12.2657 11.4382 12.0454 11.3603C11.8323 11.2753 11.6049 11.2187 11.3278 11.1337C12.4575 10.9567 13.5305 10.8151 14.6318 10.7868C14.6531 10.4823 14.4542 10.2911 14.2907 10.0574C14.8876 10.1707 15.4276 10.3619 15.9889 10.4893C16.5432 10.6168 17.0619 10.8434 17.609 10.9779C17.4527 10.7372 17.3745 10.4823 17.2324 10.2486C18.0282 10.5035 18.6108 11.0842 19.2432 11.5657C19.4209 11.4807 19.3285 11.2683 19.4493 11.155C19.7122 11.4099 19.9751 12.5075 19.8472 12.8332C19.7974 12.7411 19.8614 12.6066 19.7051 12.5216C19.6838 12.7907 19.7619 13.0456 19.7264 13.3005C19.5701 12.9819 19.5701 12.6208 19.3782 12.3234C19.3498 12.5641 19.5132 12.7624 19.5061 13.0527C19.2006 12.6703 19.2148 12.203 18.9519 11.8489C18.9235 12.0259 19.0158 12.1676 19.0656 12.3163C19.1864 12.6845 19.1935 12.6774 19.1011 12.7765C18.9945 12.5783 19.0158 12.3304 18.824 12.1534C18.8169 12.5429 19.1793 12.8828 18.9306 13.3005C18.8382 12.9677 18.8595 12.6278 18.6748 12.3517C18.6677 12.5924 18.7387 12.819 18.7743 13.0527C18.8453 13.4917 18.8524 13.5555 18.7601 13.7254C18.7316 13.0456 18.5256 12.4437 18.1561 11.8843C18.284 12.2738 18.3977 12.6703 18.49 13.0739C18.2627 12.6349 18.0992 12.1676 17.7653 11.7852C17.8932 12.1676 18.1277 12.5075 18.2271 12.8969C17.9571 12.5004 17.7369 12.0755 17.4455 11.6931C17.7085 12.3092 17.9998 12.9182 18.1206 13.5838C17.9074 13.0739 17.7511 12.5358 17.41 12.0826C17.4455 12.4366 17.7298 12.6986 17.7937 13.0739C17.6729 12.9606 17.6729 12.8049 17.545 12.7199C17.5308 12.7624 17.5166 12.7978 17.5024 12.8474C17.3177 12.5429 17.1116 12.2738 16.8274 12.0684C17.3887 12.9182 17.9003 13.7891 17.9785 14.8867C17.9358 14.8159 17.9145 14.7876 17.9074 14.7592C17.6445 13.7112 17.1329 12.8119 16.5432 11.9551C16.3868 11.7215 16.1595 11.5515 15.925 11.4028C16.3513 11.9126 16.7279 12.4437 17.0405 13.0244C17.5379 13.9449 17.7511 14.476 17.7227 14.823C17.545 14.2494 17.3034 13.7042 16.9553 13.2226C16.6142 12.7411 16.2732 12.2525 15.8042 11.8843C16.0671 12.3304 16.4153 12.7057 16.7137 13.1235C17.0192 13.5484 17.2821 13.9874 17.4029 14.5043C16.9411 13.513 16.2376 12.7199 15.4276 12.0047C15.4205 12.1605 15.5342 12.2525 15.6266 12.3446C15.9392 12.6562 16.2376 12.9748 16.5147 13.3147C16.735 13.5838 16.9411 13.867 17.0548 14.214C16.5645 13.4776 16.0316 12.7836 15.2713 12.3021C15.5271 12.5712 15.8113 12.8261 16.0671 13.0881C16.4366 13.4705 16.6568 13.7891 16.7066 13.9803C16.6213 13.9449 16.5787 13.867 16.5289 13.8033C16.1879 13.3855 15.8397 12.9677 15.4205 12.6208C15.1505 12.3942 14.8236 12.2738 14.5039 12.1251C15.2358 12.642 15.8397 13.2722 16.3726 13.9803C16.2874 13.9308 16.2092 13.8599 16.1382 13.7962C15.4916 13.1943 14.8236 12.6278 14.0776 12.1534C13.907 12.0472 13.7365 11.941 13.4665 11.9197C13.9213 12.38 14.4755 12.6208 14.9231 13.0031C15.3708 13.3855 15.8326 13.7537 16.2376 14.1857C16.0387 14.1503 15.8895 14.037 15.7402 13.9166C15.1931 13.4705 14.6389 13.0456 14.0634 12.642C13.8573 12.4933 13.6299 12.3871 13.3884 12.3092C14.0136 12.8969 14.7597 13.3359 15.4063 13.8954C14.4328 13.2581 13.502 12.5641 12.4646 12.0259C12.9691 12.4508 13.5731 12.7411 14.0847 13.1589C13.907 13.1164 13.7578 13.0385 13.6086 12.9394C13.3528 12.7624 13.0899 12.5924 12.8341 12.4154C12.7489 12.3588 12.6778 12.295 12.5357 12.3163C12.6778 12.5924 12.9833 12.6491 13.1468 12.8757C12.7773 12.7057 12.4504 12.4366 12.0241 12.4012C12.3012 12.6632 12.6778 12.7482 12.9691 12.9677C13.1894 13.1377 13.6513 13.6546 13.701 13.8104C13.0615 13.2864 12.4078 12.7978 11.6475 12.465C12.3794 12.9748 13.1468 13.4351 13.8147 14.1007C13.5873 14.037 13.431 13.9449 13.2889 13.8245ZM15.0155 15C14.7242 14.8088 14.4613 14.5822 14.2339 14.3131C14.1202 14.1786 14.0065 14.0441 13.9781 13.8599C13.9568 13.7042 13.772 13.6263 13.7152 13.4492C13.8644 13.4705 13.971 13.5413 14.0847 13.5909C14.4897 13.7608 14.8876 13.9378 15.2926 14.1149C15.5768 14.2423 15.8184 14.4194 16.0387 14.6743C16.0529 14.5539 15.9392 14.4831 15.996 14.3627C16.465 14.5114 16.8913 14.7522 17.3105 15.0425C17.3177 14.8442 17.3177 14.8442 17.1329 14.5256C17.3034 14.5893 17.3674 14.7451 17.5024 14.823C17.6516 14.908 17.7653 15.0425 17.8648 15.177C17.9571 15.3045 18.0424 15.432 18.1703 15.609C18.2129 15.1133 18.2271 14.6672 18.3053 14.2352C18.4119 14.2423 18.4545 14.3061 18.49 14.391C18.5185 14.4548 18.554 14.5185 18.6322 14.5114C18.7316 14.5114 18.7458 14.4264 18.7743 14.3556C18.9022 13.9803 19.0301 13.605 19.158 13.2297C19.1793 13.1589 19.2077 13.0952 19.2361 13.0102C19.3924 13.1306 19.4848 13.2864 19.5985 13.4138C19.769 13.5979 19.8259 13.5909 19.9253 13.3501C20.0603 13.0315 20.1811 12.7128 20.3232 12.4012C20.4583 12.7128 20.5861 13.0385 20.7212 13.3501C20.8206 13.5909 20.8775 13.5979 21.048 13.4138C21.1688 13.2864 21.2612 13.1306 21.4104 13.0102C21.4388 13.0952 21.4672 13.1589 21.4885 13.2297C21.6164 13.605 21.7443 13.9803 21.8722 14.3556C21.8935 14.4264 21.9149 14.5114 22.0143 14.5114C22.0996 14.5114 22.128 14.4548 22.1564 14.391C22.192 14.3131 22.2346 14.2423 22.3412 14.2352C22.4193 14.6672 22.4336 15.1062 22.4762 15.609C22.597 15.432 22.6894 15.2974 22.7817 15.177C22.8812 15.0425 22.9949 14.908 23.1441 14.823C23.2791 14.7451 23.3431 14.5964 23.5136 14.5256C23.3359 14.8442 23.3359 14.8442 23.3359 15.0425C23.7552 14.7592 24.1815 14.5185 24.6505 14.3627C24.7002 14.476 24.5865 14.5468 24.6078 14.6743C24.8281 14.4194 25.0697 14.2352 25.3539 14.1149C25.7518 13.9378 26.1568 13.7608 26.5618 13.5909C26.6755 13.5413 26.7821 13.4776 26.9313 13.4492C26.8745 13.6263 26.6897 13.7042 26.6684 13.8599C26.64 14.0511 26.5334 14.1786 26.4126 14.3131C26.1852 14.5822 25.9223 14.8088 25.631 15C24.6078 15.6585 24.0323 16.6145 23.7125 17.7616C23.5207 18.4627 23.3146 19.1495 23.0162 19.8152C22.9523 19.9497 22.8741 20.063 22.7604 20.1692C22.9309 19.8222 23.0802 19.4682 23.2009 19.107C23.3217 18.7388 23.4781 18.3777 23.4425 17.9741C23.2223 18.4414 23.1725 18.9725 22.9167 19.4257C23.1157 18.3706 23.2862 17.3155 23.5989 16.2888C23.407 16.6357 23.2365 16.9969 23.0802 17.3509C22.9238 17.705 22.8315 18.0803 22.7249 18.4485C22.7746 17.4642 23.1015 16.5649 23.542 15.701C23.0802 16.4445 22.6965 17.2235 22.5686 18.1015C22.5686 17.4501 22.7959 16.8553 22.9452 16.2321C22.7746 16.4445 22.668 16.6995 22.5686 16.9473C22.5828 16.6782 22.7036 16.4304 22.7604 16.1613C22.6325 16.2038 22.668 16.3383 22.5828 16.3879C22.5472 16.31 22.6325 16.218 22.5757 16.1471C22.4975 16.1471 22.5259 16.2675 22.4549 16.2534C22.3483 16.1967 22.4051 16.0693 22.3199 16.0126C22.2346 16.0763 22.3199 16.2109 22.2062 16.2746C22.1778 16.133 22.2346 16.0055 22.2346 15.8851C22.2346 15.7718 22.2346 15.6585 22.2346 15.5452C22.1636 15.7081 22.1849 15.8781 22.0996 16.0905C22.0712 15.8497 22.0783 15.6727 22.0925 15.4886C22.1138 15.3045 22.192 15.1204 22.0783 14.9504C21.9575 14.9504 22.0001 15.0921 21.9149 15.0991C21.8722 15.0354 21.8367 14.9646 21.7443 15.0071C21.6946 14.9221 21.7799 14.7947 21.6164 14.738C21.5027 14.9292 21.6164 15.17 21.4814 15.3753C21.4672 15.085 21.6093 14.823 21.4956 14.5681C21.3962 14.561 21.3962 14.6601 21.3322 14.7026C21.318 14.5397 21.3677 14.4052 21.2754 14.2282C21.1617 14.6105 21.2185 14.9858 21.1048 15.3257C20.9912 14.9575 21.2256 14.5751 21.0551 14.1998C20.9414 14.3131 20.9698 14.4477 20.9414 14.5822C20.913 14.4264 20.9627 14.2565 20.8135 14.1503C20.7638 14.1503 20.7709 14.2282 20.6998 14.2069C20.6572 14.1644 20.6998 14.0653 20.579 14.0087C20.5435 14.4618 20.6004 14.8938 20.5719 15.3328C20.5293 15.2974 20.508 15.2549 20.4938 15.2124C20.5435 14.7097 20.5222 14.2069 20.5009 13.7042C20.4654 13.7467 20.444 13.7821 20.4298 13.8245C20.4227 13.7325 20.4014 13.6404 20.3161 13.5555C20.2309 13.6404 20.2096 13.7325 20.2025 13.8245C20.1882 13.7821 20.1669 13.7396 20.1314 13.7042C20.1101 14.2069 20.0888 14.7097 20.1385 15.2124C20.1243 15.2549 20.103 15.2974 20.0603 15.3328C20.0319 14.8938 20.0888 14.4618 20.0532 14.0087C19.9324 14.0582 19.9751 14.1644 19.9324 14.2069C19.8614 14.2211 19.8685 14.1432 19.8188 14.1503C19.6695 14.2565 19.7193 14.4194 19.6909 14.5822C19.6624 14.4477 19.6909 14.3131 19.5772 14.1998C19.4066 14.5751 19.6411 14.9575 19.5274 15.3257C19.4138 14.9858 19.4706 14.6105 19.3569 14.2282C19.2716 14.3981 19.3214 14.5397 19.3001 14.7026C19.2361 14.6601 19.2361 14.561 19.1366 14.5681C19.023 14.823 19.158 15.085 19.1509 15.3753C19.0158 15.1629 19.1295 14.9221 19.0158 14.738C18.8524 14.7947 18.9377 14.9221 18.888 15.0071C18.7956 14.9646 18.7601 15.0283 18.7174 15.0991C18.6251 15.085 18.6748 14.9504 18.554 14.9504C18.4403 15.1204 18.5185 15.3045 18.5398 15.4886C18.5611 15.6656 18.5611 15.8497 18.5327 16.0905C18.4474 15.8781 18.4758 15.701 18.3977 15.5452C18.3977 15.6585 18.3977 15.7718 18.3977 15.8851C18.3977 16.0126 18.4545 16.133 18.4261 16.2746C18.3124 16.2109 18.4048 16.0763 18.3124 16.0126C18.2271 16.0622 18.284 16.1967 18.1774 16.2534C18.1064 16.2675 18.1348 16.1542 18.0566 16.1471C17.9998 16.225 18.085 16.31 18.0495 16.3879C17.9571 16.3383 17.9927 16.2038 17.8719 16.1613C17.9287 16.4375 18.0495 16.6782 18.0637 16.9473C17.9642 16.6995 17.8577 16.4445 17.6871 16.2321C17.8363 16.8482 18.0637 17.4501 18.0637 18.1015C17.9358 17.2235 17.545 16.4516 17.0903 15.701C17.5308 16.5649 17.8577 17.4642 17.9074 18.4485C17.7937 18.0803 17.7085 17.705 17.5521 17.3509C17.3958 16.9898 17.2253 16.6357 17.0334 16.2888C17.3461 17.3155 17.5095 18.3777 17.7156 19.4257C17.4598 18.9725 17.41 18.4414 17.1898 17.9741C17.1542 18.3777 17.3105 18.7388 17.4313 19.107C17.5521 19.4682 17.7013 19.8222 17.8719 20.1692C17.7582 20.0701 17.68 19.9568 17.6161 19.8152C17.3177 19.1566 17.1116 18.4627 16.9197 17.7616C16.6142 16.6145 16.0387 15.6515 15.0155 15ZM13.772 18.7388C13.8928 18.838 14.0278 18.9229 14.1699 19.0079C14.1771 19.0575 14.1913 19.107 14.2197 19.1566C14.0492 19.0716 13.8786 18.9725 13.7152 18.8734C13.7365 18.8238 13.7578 18.7813 13.772 18.7388ZM13.4807 19.4611C13.4807 19.454 13.4878 19.454 13.4878 19.4469C13.7152 19.5602 13.9497 19.6594 14.1842 19.7443C14.3334 19.801 14.4897 19.8435 14.646 19.8789C14.7455 19.9001 14.8663 19.9355 14.9515 19.8152C14.8734 19.6735 14.7313 19.631 14.5963 19.5956C14.241 19.4965 13.9142 19.3478 13.5944 19.1779C13.6157 19.1283 13.637 19.0787 13.6513 19.0362C14.1699 19.3407 14.7384 19.5673 14.9515 19.4823C14.9373 19.4257 14.916 19.4044 14.8805 19.3974C14.6673 19.3478 14.4755 19.277 14.2836 19.1849C14.3192 19.1637 14.3405 19.1354 14.3547 19.107C14.5821 19.2062 14.8379 19.2416 15.0865 19.2699C15.1718 19.277 15.2571 19.2628 15.321 19.192C15.1789 19.107 14.9871 19.1708 14.8094 19.0291C15.3992 19.0716 15.8255 18.8238 16.2092 18.4768C16.3442 18.3494 16.4934 18.2361 16.6711 18.1723C16.7208 18.1511 16.7847 18.1228 16.8345 18.2219C16.5503 18.4343 16.7776 18.7176 16.7634 18.9867C16.6568 18.9159 16.7137 18.7742 16.5929 18.7105C16.4721 18.9017 16.6284 19.0787 16.6071 19.2628C16.4295 19.1566 16.4437 18.9229 16.2874 18.7955C16.2874 19.0362 16.3726 19.2487 16.4295 19.5177C16.266 19.362 16.2589 19.1779 16.1168 19.015V19.5602C16.0316 19.4469 16.0316 19.3266 15.925 19.2628C15.7829 19.6452 16.0884 19.9355 16.0813 20.2825C15.8468 20.0772 15.9108 19.7302 15.7189 19.4753C15.6052 19.7443 15.8184 19.9497 15.79 20.1763C15.6123 20.1692 15.6337 20.0134 15.5768 19.9214C15.5058 19.9851 15.5981 20.0701 15.5626 20.1267C15.1718 20.3179 14.8165 20.6012 14.3476 20.5445C14.6247 20.4879 14.8947 20.417 15.1079 20.1267C14.916 20.1904 14.7597 20.2046 14.5536 20.1763C14.6957 20.1338 14.8165 20.1409 14.9018 20.0559C14.5039 19.9568 14.106 19.886 13.7294 19.7373C13.6228 19.6948 13.5162 19.6452 13.4168 19.5956C13.4452 19.5461 13.4594 19.5036 13.4807 19.4611ZM14.4897 21.2243C14.4755 21.2597 14.4613 21.288 14.4471 21.3163C14.511 21.373 14.6318 21.3376 14.6673 21.4438C14.5679 21.4792 14.4471 21.4155 14.3618 21.4792C14.3476 21.5288 14.376 21.5429 14.3973 21.5571C14.4115 21.5642 14.4471 21.5571 14.4257 21.5996C14.1913 21.6421 13.9426 21.5642 13.7081 21.6704C13.7507 21.7341 13.836 21.6846 13.8786 21.7554C13.7294 21.7625 13.5944 21.7625 13.4665 21.7341C13.3315 21.7058 13.2178 21.7341 13.0615 21.8049C13.367 21.9607 13.6655 21.897 13.971 21.982C13.3386 22.0457 12.4078 22.0315 11.9673 21.8474C12.0028 21.8191 12.0383 21.7908 12.0738 21.7695C12.5428 21.5217 13.0331 21.3093 13.5376 21.1464C14.0065 20.9906 14.4897 20.934 14.9729 21.1252C14.7029 21.1252 14.4257 21.0189 14.1628 21.1818C14.2765 21.203 14.3831 21.2172 14.4897 21.2243ZM13.1326 19.2557C13.161 19.3124 13.1681 19.3832 13.1681 19.4469C13.0899 19.4044 13.0189 19.362 12.9407 19.3195C12.9976 19.277 13.0544 19.2487 13.1326 19.2557ZM12.8412 19.4115C12.8412 19.4044 12.8483 19.4044 12.8412 19.4115C12.9478 19.5107 13.0686 19.6098 13.1681 19.7443C12.9976 19.6948 12.8697 19.5956 12.7489 19.4894C12.7844 19.4611 12.8128 19.4328 12.8412 19.4115ZM11.2922 21.1322C11.4557 21.1464 11.612 21.1393 11.7683 21.111C11.6404 21.0827 11.5125 21.0473 11.3917 21.0189C11.4201 20.9906 11.4486 20.9552 11.4699 20.9269C11.8038 20.8773 12.152 20.941 12.4931 20.8844C12.2302 20.764 11.9388 20.7499 11.6617 20.7074C11.7115 20.6507 11.7612 20.5941 11.8109 20.5374C11.9317 20.5799 12.0525 20.6649 12.216 20.6295C12.1165 20.5374 12.017 20.4737 11.9104 20.417C11.9744 20.3462 12.0312 20.2754 12.0952 20.1975C12.1804 20.2259 12.2657 20.2613 12.351 20.2967C12.3154 20.1834 12.2088 20.1763 12.1875 20.1196C12.1875 20.1126 12.1804 20.1055 12.1804 20.0984C12.2017 20.0701 12.2302 20.0417 12.2515 20.0134C12.3794 19.8647 12.5144 19.716 12.6565 19.5815C13.0331 19.9001 13.4949 20.0913 14.0207 20.2117C13.6797 20.2542 13.3884 20.1763 13.1041 20.0559C12.9549 19.9993 12.8128 19.8718 12.5996 19.9709C12.7702 20.3392 13.1254 20.4029 13.4381 20.502C13.3102 20.6224 13.0899 20.5162 12.9549 20.7144C13.2889 20.7499 13.6015 20.7569 13.8999 20.8348C13.3812 21.026 12.8697 21.1676 12.3296 21.2243C11.9531 21.2597 11.5765 21.2809 11.1999 21.2526C11.2212 21.2172 11.2567 21.1747 11.2922 21.1322ZM12.0099 22.2227C12.1946 22.1944 12.3794 22.2086 12.5641 22.251C12.6707 22.2723 12.557 22.3431 12.621 22.3714C12.827 22.3502 13.026 22.2086 13.3173 22.3006C12.9833 22.3998 12.7347 22.5485 12.5002 22.7255C12.9691 22.683 13.3741 22.4139 13.8289 22.336C13.3102 22.6263 12.7418 22.7892 12.2586 23.1433C12.1591 23.2141 12.081 23.1716 11.9957 23.1149C12.017 23.0725 12.0383 23.0441 12.0525 23.0158C11.9175 23.1008 11.7612 23.1079 11.612 23.0725C11.4273 23.03 11.2425 23.03 11.0578 23.037C10.9228 23.0441 10.7807 23.0654 10.6314 23.0795C10.9512 22.6901 11.5836 22.2935 12.0099 22.2227ZM9.40931 26.5564C9.32405 26.5918 9.25299 26.6767 9.1393 26.6555C9.20325 26.4785 9.2672 26.3227 9.30273 26.1598C9.46615 25.3596 9.44484 24.5524 9.32405 23.7452C9.31694 23.6814 9.30983 23.6248 9.29562 23.5611C9.37378 23.4619 9.45194 23.3628 9.5301 23.2566V23.2636C9.72195 23.299 9.86406 23.1291 10.0559 23.122C9.94932 23.2849 9.80721 23.384 9.63668 23.4478C9.50879 23.4973 9.3951 23.5611 9.35957 23.6956C9.42352 23.7664 9.53721 23.7239 9.58695 23.8018C9.48747 24.0496 9.43063 24.2975 9.6509 24.517C9.67221 24.5453 9.69353 24.5807 9.67221 24.6091C9.55142 24.7719 9.68642 24.8994 9.71484 25.0481C9.523 25.3101 9.523 25.3455 9.70774 25.4871C9.57984 25.7987 9.57984 25.7987 9.658 25.9403C9.73616 25.9545 9.77879 25.8624 9.87116 25.8695C9.84985 25.9686 9.77879 26.0607 9.85695 26.1669C10.0843 26.089 10.2264 25.912 10.4467 25.742C10.3685 25.9403 10.2549 26.0536 10.1838 26.1881C10.1696 26.2165 10.1483 26.2448 10.1127 26.2448C9.82143 26.2589 9.64379 26.4714 9.40931 26.5564ZM10.2762 26.8467C10.3756 26.8892 10.4254 26.7546 10.532 26.8184C10.2904 27.1087 10.1625 27.4698 9.93511 27.7672C9.95643 27.4273 9.99196 27.0945 10.0417 26.7617C10.0488 26.698 10.0559 26.6272 10.1056 26.5705C10.3828 26.2448 10.6954 25.9545 11.0222 25.6783C10.7451 26.0536 10.3899 26.3722 10.2762 26.8467ZM11.8607 24.6303C11.2922 24.8711 10.7167 24.7861 10.1767 24.4816C10.127 24.4533 10.0417 24.4462 10.0417 24.34C10.1625 24.34 10.2762 24.3471 10.397 24.34C10.8091 24.3187 11.1999 24.2479 11.5409 23.9859C11.6973 23.8655 11.8465 23.7522 11.9886 23.6106C12.3083 23.3061 12.6352 23.0087 13.0615 22.8317C13.6228 22.5909 14.1984 22.4068 14.8094 22.3289C14.9658 22.3077 15.1221 22.3289 15.321 22.3289C15.0937 22.513 14.8734 22.6334 14.6602 22.7538C14.44 22.8742 14.2055 22.9521 13.9781 23.0725C14.3831 23.0158 14.7242 22.8105 15.0865 22.6405C14.9373 22.8317 14.7597 22.9875 14.5465 23.0937C14.1202 23.3132 13.6868 23.5186 13.2107 23.6389C13.1041 23.6673 12.9904 23.6885 12.8981 23.8089C13.2107 23.8018 13.4665 23.6531 13.7507 23.6531C13.2676 23.8585 12.7275 23.9151 12.287 24.2267C12.7347 24.0709 13.2036 24.0213 13.6513 23.8868C14.106 23.7522 14.5181 23.5327 14.9515 23.3345C14.3831 23.6814 13.8431 24.0921 13.1823 24.2621C13.8076 24.2054 14.3547 23.9434 14.8876 23.6319C14.7952 23.7593 14.6815 23.8514 14.575 23.9576C14.2623 24.2621 13.8715 24.3895 13.4523 24.3825C12.9052 24.3825 12.3794 24.4108 11.8607 24.6303ZM15.5058 22.1094C15.4773 22.0953 15.4489 22.0811 15.385 22.0457C15.6976 21.8545 15.9463 21.5925 16.3655 21.6633C16.3158 21.7625 16.2234 21.8333 16.2874 21.9182C16.3655 22.0174 16.4579 21.9324 16.5361 21.9041C16.6 21.8828 16.6568 21.8403 16.7137 21.812C16.7563 21.7908 16.8061 21.7695 16.8558 21.8333C16.5858 22.0103 16.2305 22.074 16.06 22.3998C16.3939 22.3077 16.6497 22.0315 17.005 21.989C16.6142 22.2227 16.3229 22.5485 16.06 22.9096C16.6071 22.5909 17.0832 22.159 17.744 22.0882C17.2892 22.2723 16.9055 22.5485 16.6355 22.9662C17.0476 22.7538 17.41 22.4422 17.8719 22.336C17.474 22.6263 17.14 22.9662 16.8487 23.3557C17.2111 23.1079 17.545 22.8317 17.9714 22.6972C17.68 22.945 17.4455 23.2353 17.204 23.5256C17.5948 23.2849 17.9785 23.0441 18.3835 22.8246C18.5114 22.7538 18.5611 22.7821 18.5966 22.9096C18.22 23.0583 17.9074 23.2778 17.7227 23.6389C18.0992 23.5256 18.3764 23.1858 18.8169 23.2212C18.2058 23.6319 17.7653 24.1842 17.4669 24.8427C17.4455 24.6799 17.4455 24.5312 17.4455 24.3754C17.4455 24.2196 17.5237 24.0638 17.4598 23.8443C17.1613 23.9222 16.9411 24.1134 16.7066 24.2621C16.465 24.4179 16.2518 24.6091 16.0174 24.7932C16.2092 24.4037 16.3087 23.9859 16.4224 23.5398C16.0671 23.5398 15.7758 23.7168 15.4347 23.816C15.5697 23.5327 15.7474 23.3132 15.9037 23.0866C16.0174 22.9238 15.9676 22.8529 15.7758 22.8246C15.6195 22.8034 15.4702 22.8813 15.2855 22.8671C15.3708 22.7113 15.4773 22.6051 15.5839 22.4989C15.8255 22.251 15.8184 22.2227 15.5058 22.1094ZM16.8416 26.1952C16.9624 25.6854 16.9553 25.1755 17.1613 24.7153C17.005 25.4729 16.9837 26.2448 16.8558 27.0095C17.1969 26.1881 17.5663 25.3809 17.9785 24.5382C17.9571 25.3384 17.2182 27.7106 16.8345 28.27C16.7776 28.2487 16.7776 28.2133 16.7634 28.185C16.6497 27.8805 16.6355 27.5619 16.5929 27.2432C16.5076 26.6201 16.5005 25.9969 16.6284 25.3809C16.6924 25.0693 16.8061 24.779 17.0334 24.4887C16.9624 24.8073 16.8913 25.0764 16.8345 25.3455C16.7492 25.8058 16.7563 25.9899 16.8416 26.1952ZM12.1733 26.351C12.2017 26.0111 12.3225 25.6995 12.5073 25.4163C12.7275 25.0764 12.9904 24.7578 13.3884 24.6515C13.7294 24.5524 14.1131 24.5949 14.4968 24.4179C14.3547 24.6445 14.1699 24.7507 14.0634 24.9489C14.4257 24.8994 14.6531 24.6445 14.9302 24.4887C14.2623 25.4871 13.2249 25.9191 12.1733 26.351ZM11.5196 29.2401C12.0454 28.9568 12.2231 28.7586 12.3794 28.1567C12.422 27.9726 12.4149 27.7885 12.4007 27.6044C12.3865 27.3282 12.4646 27.0733 12.5428 26.8184C12.6068 26.5988 12.7489 26.4218 12.9549 26.3014C12.7418 26.6342 12.6494 27.0025 12.621 27.3848C12.8199 26.9671 13.0331 26.5634 13.3386 26.2165C13.1183 26.6838 12.8483 27.1228 12.827 27.6539C13.0331 27.4061 13.0615 27.0804 13.2462 26.8254C13.2249 26.96 13.1894 27.0874 13.161 27.2149C13.1254 27.3919 13.1752 27.6044 13.1326 27.7531C13.026 28.1496 12.8839 28.5532 12.5073 28.8648C13.3457 28.5957 13.836 27.9938 14.2978 27.3565C13.8715 28.624 12.3794 29.4808 11.5196 29.2401ZM14.5536 28.9427C14.4471 29.148 14.3121 29.3463 14.3121 29.5941C14.3121 29.6012 14.2836 29.6012 14.2623 29.6083C14.2552 29.5871 14.241 29.5658 14.241 29.5375C14.1842 28.6311 14.4044 27.7814 14.7526 26.96C14.781 26.8892 14.8308 26.8325 14.9515 26.8396C14.7526 27.4132 14.5323 27.9726 14.4684 28.624C14.5607 28.5178 14.575 28.4258 14.6034 28.3408C14.781 27.8451 14.9089 27.3282 15.1008 26.8325C15.1434 26.7192 15.1789 26.613 15.3494 26.5847C15.2216 26.8396 15.1576 27.0804 15.0937 27.3211C14.9587 27.8734 14.8236 28.4328 14.5536 28.9427ZM15.7545 28.709C15.7402 28.8719 15.7189 29.0277 15.7118 29.1905C15.6834 29.8703 15.385 30.4297 14.9729 30.9466C15.0723 30.3943 15.1292 29.842 15.0368 29.2826C14.9942 29.0135 14.9942 28.7444 14.9871 28.4753C14.9871 28.362 15.0155 28.2346 15.1079 28.2275C15.2073 28.2204 15.1931 28.1708 15.2002 28.1213C15.2429 27.8734 15.2784 27.6256 15.3139 27.3778C15.3779 28.0221 15.2713 28.6736 15.4134 29.3109C15.5626 28.5815 15.5342 27.838 15.6905 27.1087C15.6337 27.6468 15.8042 28.1779 15.7545 28.709ZM15.3566 26.3227C15.051 26.5139 14.7313 26.6909 14.4257 26.8962C14.1984 27.045 13.971 27.1937 13.6655 27.2928C13.8857 26.7546 14.0349 26.2235 14.2765 25.7349C14.3263 25.6287 14.3476 25.4871 14.4257 25.4234C14.6886 25.2109 14.8947 24.9348 15.2144 24.694C15.1221 24.8852 15.0297 25.0198 15.0652 25.1968C15.2358 25.1401 15.3139 24.9985 15.4489 24.9206C15.0723 25.5933 14.5323 26.1386 14.042 26.7759C14.1913 26.7546 14.241 26.6909 14.305 26.6342C14.5892 26.4077 14.7739 26.0607 15.1434 25.9261C15.2002 25.9049 15.2358 25.827 15.2784 25.7774C15.4702 25.5367 15.655 25.2959 15.8468 25.0481C15.9818 25.1543 15.8681 25.2109 15.8113 25.2747C15.6123 25.48 15.4205 25.6925 15.2855 25.9615C15.8184 25.6783 16.1879 25.2109 16.6213 24.7507C16.4579 25.3809 16.3087 25.6075 15.861 25.9686C15.6976 26.1032 15.5271 26.2165 15.3566 26.3227ZM16.3371 29.8986C16.3016 29.5517 16.1382 29.3109 15.9392 29.0914C15.8753 29.0206 15.8539 28.9568 15.861 28.8719C15.9108 28.3974 16.0103 27.9372 16.0458 27.4557C16.0671 27.7672 16.0529 28.0788 16.0742 28.3904C16.0955 28.6948 16.0884 29.0135 16.2589 29.2967C16.2234 28.6594 16.2305 28.0292 16.2305 27.3565C16.3371 27.9301 16.4011 28.4682 16.4721 28.9993C16.7492 28.9498 16.8558 28.7373 17.0192 28.5815C16.9197 29.0772 16.7137 29.5092 16.3371 29.8986ZM17.0548 30.5997C17.0334 30.3235 17.0192 30.0473 16.9837 29.7783C16.9837 29.757 16.9766 29.7216 16.9908 29.7074C17.1826 29.4242 17.2466 29.0914 17.3745 28.7232C17.4029 29.2613 17.069 29.6933 17.1826 30.189C17.3887 29.9553 17.4882 29.672 17.6303 29.41C17.5237 29.842 17.3461 30.2456 17.0548 30.5997ZM19.5701 28.6311C19.4635 29.056 19.3569 29.4808 19.2503 29.9057C19.2432 29.934 19.229 29.9694 19.1722 29.9553C19.094 29.2826 18.8453 28.617 18.959 27.9159C18.8453 28.3195 18.7601 28.7302 18.6606 29.1339C18.554 29.5375 18.4048 29.927 18.1206 30.2739C18.1135 30.2244 18.0992 30.196 18.1064 30.1748C18.2058 29.6579 18.1277 29.148 17.9998 28.6453C17.7227 27.5619 17.68 26.4855 18.0566 25.4092C18.1561 25.1189 18.3053 24.8569 18.4332 24.5807C18.3693 25.1897 18.2271 25.7916 18.3266 26.4572C18.4332 25.9474 18.4261 25.4729 18.5469 25.0198C18.5753 25.8553 18.5398 26.698 18.6464 27.5265C18.6961 26.7971 18.6251 26.0607 18.7956 25.3384C18.8169 25.8128 18.8595 26.2802 18.9519 26.7405C19.0585 26.4431 18.9874 26.1315 19.0585 25.8341C19.1295 26.528 19.2006 27.2149 19.2716 27.9088C19.3782 27.1087 19.3285 26.3156 19.229 25.5296C19.4138 26.1244 19.499 26.7334 19.5701 27.3424C19.6198 27.7743 19.6767 28.2062 19.5701 28.6311ZM20.7212 28.8294C20.6643 28.9639 20.6288 29.0985 20.5861 29.2401C20.5009 29.5304 20.4369 29.8278 20.3232 30.1181C20.2167 29.8349 20.1456 29.5375 20.0603 29.2401C20.0177 29.1055 19.9822 28.9639 19.9253 28.8294C19.7832 28.4895 19.7193 28.1354 19.7406 27.7601C19.8543 27.9867 19.8472 28.2346 19.9538 28.4895C20.0461 28.2346 19.9609 27.9938 19.9822 27.7531C20.1101 27.9867 20.1101 28.2629 20.2948 28.5178C20.3019 28.5249 20.309 28.532 20.3161 28.5391C20.3232 28.532 20.3304 28.5178 20.3446 28.5107C20.5293 28.2629 20.5222 27.9867 20.6572 27.7531C20.6714 27.9938 20.5861 28.2346 20.6856 28.4895C20.7993 28.2346 20.7851 27.9867 20.8988 27.7601C20.9343 28.1354 20.8633 28.4895 20.7212 28.8294ZM20.3304 27.3565C19.8827 26.8042 19.6838 26.1315 19.5203 25.4446C19.4138 24.9914 19.3924 24.5241 19.3143 24.0709C19.1793 23.2849 18.8027 22.6334 18.2058 22.1094C17.815 21.7695 17.3319 21.6421 16.8345 21.5642C16.4792 21.5075 16.1453 21.3942 15.8184 21.2597C15.6052 21.1747 15.4489 21.026 15.3494 20.8207C15.2997 20.7144 15.2997 20.6082 15.3566 20.502C15.4489 20.3108 15.5484 20.2754 15.7402 20.3604C15.7758 20.3746 15.8113 20.4029 15.8468 20.4241C16.1239 20.6224 16.4153 20.6507 16.735 20.5233C17.0974 20.3746 17.4384 20.41 17.7795 20.6012C18.0566 20.7569 18.1135 20.7286 18.2129 20.4241C18.3693 19.9709 18.3621 19.4894 18.3337 19.0221C18.3124 18.7247 18.3266 18.4273 18.355 18.1369C18.3764 17.9174 18.3693 17.6979 18.4119 17.4855C18.6179 16.4658 19.2219 15.8073 20.238 15.5382C20.2664 15.5311 20.2877 15.524 20.3161 15.5169C20.3446 15.524 20.3659 15.5311 20.3943 15.5382C21.4104 15.8073 22.0143 16.4658 22.2204 17.4855C22.263 17.6979 22.2559 17.9245 22.2772 18.1369C22.3128 18.4273 22.3199 18.7247 22.2986 19.0221C22.263 19.4894 22.263 19.9709 22.4193 20.4241C22.5188 20.7215 22.5828 20.7499 22.8528 20.6012C23.1938 20.41 23.542 20.3675 23.8973 20.5233C24.217 20.6578 24.5083 20.6224 24.7855 20.4241C24.821 20.4029 24.8565 20.3746 24.892 20.3604C25.0839 20.2754 25.1834 20.3108 25.2757 20.502C25.3255 20.6082 25.3326 20.7074 25.2828 20.8207C25.1834 21.026 25.027 21.1747 24.8139 21.2597C24.487 21.3942 24.146 21.5075 23.7978 21.5642C23.3004 21.6421 22.8173 21.7695 22.4265 22.1094C21.8296 22.6334 21.453 23.2849 21.318 24.0709C21.2398 24.5241 21.2185 24.9914 21.1119 25.4446C20.9769 26.1315 20.778 26.8042 20.3304 27.3565ZM24.757 23.0866C24.9134 23.3132 25.091 23.5256 25.226 23.816C24.8849 23.7168 24.5936 23.5398 24.2383 23.5398C24.352 23.9859 24.4444 24.4037 24.6433 24.7932C24.4089 24.6161 24.1957 24.4179 23.9541 24.2621C23.7196 24.1134 23.5065 23.9222 23.2009 23.8443C23.137 24.0638 23.2152 24.2196 23.2152 24.3754C23.2152 24.5241 23.2152 24.6799 23.1938 24.8427C22.8954 24.1771 22.4549 23.6319 21.8438 23.2212C22.2843 23.1858 22.5615 23.5186 22.938 23.6389C22.7533 23.2707 22.4407 23.0583 22.0641 22.9096C22.0996 22.7821 22.1493 22.7609 22.2772 22.8246C22.6822 23.037 23.0659 23.2778 23.4567 23.5256C23.2152 23.2424 22.9807 22.945 22.6894 22.6972C23.1086 22.8317 23.4496 23.1079 23.812 23.3557C23.5136 22.9733 23.1796 22.6263 22.7888 22.336C23.2507 22.4422 23.6131 22.7467 24.0252 22.9662C23.7552 22.5485 23.3715 22.2794 22.9167 22.0882C23.5775 22.1661 24.0607 22.598 24.6007 22.9096C24.3307 22.5485 24.0465 22.2227 23.6557 21.989C24.011 22.0315 24.2597 22.3077 24.6007 22.3998C24.4302 22.0811 24.082 22.0103 23.8049 21.8333C23.8546 21.7695 23.8973 21.7908 23.947 21.812C24.011 21.8403 24.0678 21.8828 24.1247 21.9041C24.2028 21.9324 24.2952 22.0174 24.3733 21.9182C24.4444 21.8333 24.352 21.7625 24.2952 21.6633C24.7073 21.5925 24.956 21.8616 25.2757 22.0457C25.2118 22.0811 25.1905 22.0953 25.1549 22.1094C24.8352 22.2227 24.8352 22.251 25.0768 22.4989C25.1834 22.6051 25.2899 22.7113 25.3752 22.8671C25.1905 22.8813 25.0413 22.8034 24.8849 22.8246C24.6931 22.8529 24.6433 22.9308 24.757 23.0866ZM23.4923 24.7082C23.7054 25.1685 23.6912 25.6783 23.812 26.1881C23.9044 25.9828 23.9044 25.8058 23.8191 25.3455C23.7694 25.0764 23.6983 24.8073 23.6202 24.4887C23.8475 24.7861 23.9612 25.0693 24.0252 25.3809C24.146 25.9969 24.146 26.6201 24.0607 27.2432C24.0181 27.5619 24.0039 27.8805 23.8902 28.185C23.876 28.2133 23.8831 28.2558 23.8191 28.27C23.4354 27.7106 22.7036 25.3313 22.6751 24.5382C23.0802 25.3809 23.4496 26.1881 23.7978 27.0095C23.6699 26.2448 23.6486 25.4659 23.4923 24.7082ZM22.668 28.6453C22.5401 29.148 22.462 29.6508 22.5615 30.1748C22.5686 30.196 22.5544 30.2244 22.5472 30.2739C22.2559 29.927 22.1138 29.5375 22.0072 29.1339C21.9078 28.7302 21.8225 28.3266 21.7088 27.9159C21.8225 28.624 21.5738 29.2826 21.4956 29.9553C21.4388 29.9694 21.4246 29.934 21.4175 29.9057C21.3109 29.4808 21.2043 29.056 21.0977 28.6311C20.9912 28.2062 21.048 27.7743 21.0977 27.3494C21.1688 26.7405 21.2612 26.1315 21.4388 25.5367C21.3393 26.3227 21.2896 27.1158 21.3962 27.9159C21.4672 27.222 21.5383 26.5351 21.6093 25.8412C21.6804 26.1386 21.6093 26.4501 21.7159 26.7475C21.8012 26.2802 21.8509 25.8128 21.8722 25.3455C22.0428 26.0678 21.9788 26.8042 22.0214 27.5335C22.1351 26.698 22.0925 25.8624 22.1209 25.0268C22.2346 25.48 22.2275 25.9545 22.3412 26.4643C22.4407 25.7916 22.2915 25.1968 22.2346 24.5878C22.3625 24.864 22.5117 25.1331 22.6112 25.4163C22.9878 26.4855 22.938 27.5619 22.668 28.6453ZM23.677 29.7783C23.6415 30.0473 23.6273 30.3235 23.606 30.5997C23.3075 30.2456 23.1299 29.842 23.0233 29.41C23.1725 29.672 23.2649 29.9553 23.471 30.189C23.5846 29.6933 23.2507 29.2613 23.2791 28.7232C23.407 29.0914 23.471 29.4242 23.6628 29.7074C23.6841 29.7216 23.6841 29.7499 23.677 29.7783ZM24.7144 29.0914C24.5154 29.3109 24.352 29.5517 24.3165 29.8986C23.9399 29.5092 23.7339 29.0701 23.6344 28.5815C23.7978 28.7373 23.9044 28.9498 24.1815 28.9993C24.2525 28.4612 24.3165 27.9301 24.4231 27.3565C24.4231 28.0292 24.4302 28.6594 24.3947 29.2967C24.5652 29.0135 24.551 28.6948 24.5794 28.3904C24.6007 28.0788 24.5865 27.7672 24.6078 27.4557C24.6433 27.9301 24.7428 28.3974 24.7926 28.8719C24.8068 28.9568 24.7855 29.0206 24.7144 29.0914ZM24.0465 24.7578C24.4799 25.218 24.8494 25.6854 25.3823 25.9686C25.2544 25.7066 25.0626 25.4942 24.8565 25.2818C24.7997 25.2251 24.686 25.1685 24.821 25.0552C25.0128 25.2959 25.1976 25.5438 25.3894 25.7845C25.4321 25.8341 25.4676 25.912 25.5244 25.9332C25.8868 26.0748 26.0786 26.4147 26.3629 26.6413C26.4268 26.6909 26.4765 26.7617 26.6258 26.7829C26.1355 26.1386 25.5955 25.5933 25.2189 24.9277C25.3539 25.0056 25.4321 25.1472 25.6026 25.2039C25.6381 25.0268 25.5386 24.8923 25.4534 24.7011C25.7731 24.9419 25.9792 25.218 26.2421 25.4305C26.3202 25.4942 26.3415 25.6358 26.3913 25.742C26.6329 26.2306 26.775 26.7546 27.0024 27.2999C26.6968 27.2007 26.4623 27.052 26.2421 26.9033C25.9436 26.698 25.6239 26.521 25.3113 26.3298C25.1407 26.2235 24.9702 26.1102 24.8139 25.9828C24.3591 25.6146 24.2099 25.3809 24.0465 24.7578ZM24.9489 29.1905C24.9418 29.0277 24.9205 28.8719 24.9062 28.709C24.8565 28.1708 25.0341 27.6468 24.9631 27.1158C25.1194 27.8451 25.0839 28.5886 25.2402 29.318C25.3823 28.6807 25.2757 28.0292 25.3397 27.3848C25.3752 27.6327 25.4178 27.8805 25.4534 28.1284C25.4605 28.185 25.4463 28.2275 25.5457 28.2346C25.6381 28.2417 25.6736 28.3691 25.6665 28.4824C25.6594 28.7515 25.6594 29.0206 25.6168 29.2897C25.5244 29.8491 25.5884 30.3943 25.6807 30.9537C25.2757 30.4297 24.9773 29.8703 24.9489 29.1905ZM26.4197 29.5375C26.4197 29.5587 26.4055 29.58 26.3984 29.6083C26.3771 29.6012 26.3486 29.6012 26.3486 29.5941C26.3486 29.3463 26.2136 29.1551 26.1071 28.9427C25.8371 28.4328 25.7021 27.8734 25.5671 27.3211C25.5031 27.0733 25.4392 26.8325 25.3113 26.5847C25.4818 26.613 25.5173 26.7192 25.5599 26.8325C25.7518 27.3282 25.8797 27.8451 26.0573 28.3408C26.0857 28.4258 26.1 28.5178 26.1923 28.624C26.1284 27.9726 25.9081 27.4132 25.7092 26.8396C25.83 26.8325 25.8797 26.8962 25.9081 26.96C26.2563 27.7814 26.4694 28.6382 26.4197 29.5375ZM29.1411 29.2401C28.2813 29.4808 26.7892 28.624 26.3629 27.3565C26.8247 27.9938 27.315 28.5957 28.1534 28.8648C27.7768 28.5461 27.6347 28.1425 27.5282 27.7531C27.4855 27.6044 27.5353 27.3919 27.4997 27.2149C27.4713 27.0874 27.4358 26.96 27.4145 26.8254C27.5992 27.0804 27.6276 27.4061 27.8337 27.6539C27.8195 27.1228 27.5424 26.6838 27.3221 26.2165C27.6347 26.5634 27.8408 26.9671 28.0397 27.3848C28.0113 27.0025 27.919 26.6342 27.7058 26.3014C27.9118 26.4218 28.0468 26.5988 28.1179 26.8184C28.1961 27.0733 28.2813 27.3282 28.26 27.6044C28.2458 27.7885 28.2387 27.9797 28.2813 28.1567C28.4305 28.7586 28.6153 28.9568 29.1411 29.2401ZM25.7376 24.4887C26.0147 24.6445 26.235 24.9065 26.6044 24.9489C26.4979 24.7507 26.3131 24.6374 26.171 24.4179C26.5547 24.5949 26.9313 24.5524 27.2795 24.6515C27.6774 24.7648 27.9403 25.0835 28.1605 25.4163C28.3453 25.6995 28.459 26.0111 28.4945 26.351C27.4358 25.9191 26.3984 25.4871 25.7376 24.4887ZM28.8 24.6303C28.2813 24.4108 27.7555 24.3825 27.2155 24.3966C26.7963 24.4037 26.4055 24.2762 26.0929 23.9718C25.9863 23.8726 25.8726 23.7735 25.7802 23.646C26.3131 23.9576 26.8602 24.2196 27.4855 24.2762C26.8247 24.1063 26.2847 23.6956 25.7163 23.3486C26.1497 23.5398 26.5618 23.7664 27.0166 23.9009C27.4713 24.0284 27.9403 24.0851 28.3808 24.2408C27.9403 23.9293 27.4003 23.8726 26.9171 23.6673C27.2013 23.6602 27.4571 23.816 27.7697 23.8231C27.6774 23.6956 27.5637 23.6743 27.4571 23.6531C26.9881 23.5327 26.5547 23.3274 26.1213 23.1079C25.9081 23.0016 25.7305 22.8459 25.5813 22.6547C25.9436 22.8246 26.2918 23.0229 26.6897 23.0866C26.4694 22.9733 26.2279 22.8883 26.0076 22.768C25.7873 22.6476 25.5742 22.5272 25.3468 22.3431C25.5457 22.3431 25.7021 22.3289 25.8584 22.3431C26.4623 22.421 27.0379 22.6122 27.6063 22.8459C28.0255 23.0229 28.3524 23.3203 28.6792 23.6248C28.8213 23.7593 28.9706 23.8797 29.1269 24.0001C29.4608 24.2621 29.8587 24.3329 30.2708 24.3541C30.3916 24.3612 30.5053 24.3541 30.6261 24.3541C30.6332 24.4604 30.5409 24.4604 30.4911 24.4958C29.944 24.7861 29.3685 24.8711 28.8 24.6303ZM30.1287 26.8184C30.2353 26.7546 30.2851 26.8892 30.3845 26.8467C30.2708 26.3722 29.9085 26.0536 29.6385 25.6712C29.9724 25.9474 30.2851 26.2377 30.5551 26.5634C30.6048 26.6201 30.6048 26.6909 30.619 26.7546C30.6688 27.0874 30.7043 27.4202 30.7256 27.7601C30.4982 27.4627 30.3703 27.1087 30.1287 26.8184Z" fill="white"/>
</g>
<defs>
<clipPath id="clip0_86_4415">
<rect width="26.6667" height="24.359" fill="white" transform="translate(6.66663 7.69232)"/>
</clipPath>
</defs>
</svg>
