<svg width="40" height="40" viewBox="0 0 40 40" fill="none" xmlns="http://www.w3.org/2000/svg">
<g clip-path="url(#clip0_65_1464)">
<rect width="40" height="40" rx="20" fill="#373D74" fill-opacity="0.1"/>
<path d="M39.405 8.22839C38.0133 8.84506 36.5183 9.26172 34.9466 9.45006C36.5683 8.47971 37.7816 6.9525 38.36 5.15339C36.8364 6.05837 35.1689 6.69538 33.43 7.03672C32.2606 5.78817 30.7117 4.9606 29.0239 4.68251C27.336 4.40443 25.6035 4.69138 24.0954 5.49881C22.5873 6.30625 21.3879 7.58899 20.6836 9.1479C19.9792 10.7068 19.8092 12.4546 20.2 14.1201C17.1128 13.9651 14.0927 13.1626 11.3357 11.7649C8.57868 10.3672 6.14638 8.40533 4.19665 6.00672C3.52998 7.15672 3.14665 8.49006 3.14665 9.91006C3.1459 11.1884 3.4607 12.4471 4.06311 13.5746C4.66552 14.7021 5.53691 15.6635 6.59998 16.3734C5.36711 16.3342 4.16143 16.001 3.08331 15.4017V15.5017C3.08319 17.2946 3.70337 19.0324 4.83862 20.4201C5.97387 21.8077 7.55426 22.7599 9.31165 23.1151C8.16795 23.4246 6.96887 23.4702 5.80498 23.2484C6.30081 24.7911 7.26664 26.1401 8.56726 27.1066C9.86788 28.0731 11.4382 28.6087 13.0583 28.6384C10.308 30.7974 6.91146 31.9685 3.41498 31.9634C2.79561 31.9636 2.17677 31.9274 1.56165 31.8551C5.11077 34.137 9.24221 35.3481 13.4616 35.3434C27.745 35.3434 35.5533 23.5134 35.5533 13.2534C35.5533 12.9201 35.545 12.5834 35.53 12.2501C37.0488 11.1517 38.3598 9.79155 39.4016 8.23339L39.405 8.22839Z" fill="black"/>
</g>
<defs>
<clipPath id="clip0_65_1464">
<rect width="40" height="40" rx="20" fill="white"/>
</clipPath>
</defs>
</svg>
